<?xml version="1.0" encoding="utf-8"?>
<!-- Generator: Adobe Illustrator 23.0.1, SVG Export Plug-In . SVG Version: 6.00 Build 0)  -->
<svg version="1.1" id="Layer_1" xmlns="http://www.w3.org/2000/svg" xmlns:xlink="http://www.w3.org/1999/xlink" x="0px" y="0px"
	 viewBox="0 0 863 24.5" style="enable-background:new 0 0 863 24.5;" xml:space="preserve">
<style type="text/css">
	.st0{fill-rule:evenodd;clip-rule:evenodd;fill:#FFFFFF;}
</style>
<g>
	<path class="st0" d="M866,26.5V6.1c-1.8-0.2-3.5-0.5-5.3-0.7l-1.6-0.6C856.3,2.5,850,3,845.6,2c-0.8,0.1-1.1,0.4-1.2,0.7
		c-3.2-0.1-5.5,0.6-7.9,1.4c0.1,0.5,0.3,0.9,0.4,1.4c0,1.1-3.5,1.4-3.6,2.4c-0.2,0-0.5,0.1-0.7,0.1c-2.4,1-5.5,1.6-7.1,2.9
		c0,0,0,0.1,0,0.1c-3.9-0.7-7.5-0.2-11.2,0.4c-0.3,0.3,0.1,0.4-0.1,0.6c-0.1-0.1-0.2-0.2-0.4-0.3c0.5-0.7-0.5-0.9-2-0.9
		c-0.2,0.1-0.2,0.2-0.4,0.2c-1.5-0.3-2.9-0.6-4.4-0.9c-1.2-0.5-2.4-1-3.7-1.4c-1.1,0.1-2.2,0.1-3.4,0.2c-1.2-0.2-2.4-0.3-3.6-0.5
		c-1.7,0.2-3.4,0.4-5.1,0.5c-1.9,0.1-2.9,0.6-3.6,1.2c-1.7,0.1-3.4,0.1-5.1,0.1c-4.7,0-9.4,0-14.1,0c-3.1-0.9-6.5-1.2-10.3-0.9
		c-0.6,0.1-1.2,0.2-1.7,0.3c-8.2,0.5-14.9-1.7-22.6-2c0,0,0.1,0,0.1,0.1c0,0-0.1,0-0.1-0.1c-0.6,0-1.2-0.1-1.8-0.1
		c-4.1,0.4-8.1,0.8-12.2,1.2c-2.4,0.5-3.8,1.6-7,1.5l0,0h0h0c-0.8-1-4.2-0.4-5.2-1.3c-0.5-0.1-1-0.1-1.6,0c-2.9,1.2-5.8,0.5-8.7,0
		C694,8.8,690,9.7,687,8.2c-0.6,0-1.2,0-1.7,0c-1.6-0.2-2,0.1-2.2,0.7c-1,0-2,0-3,0.1c-3.4-0.2-7,0.3-10.1-0.6
		c-1.3,0.2-2.6,0.4-3.9,0.6c-4.9,0.1-9.3-0.8-13.8-1.2c-4.6-0.4-8.1,0.8-12.2,1.3c-2.6-0.7-5.6-0.9-8.7-0.7
		c-0.1,0.2-0.1,0.4-0.1,0.6c-1,0.1-1.9,0.1-2.9,0.2c-0.4,1.4-4.6,1.5-5.7,2.6c-2.9,0-5.8-0.1-8.7-0.1c-5.9-2.6-11.6-0.3-17.4,0.1
		c-1.2,0-2.3,0.1-3.5,0.1c-1.2,0-2.3,0-3.4,0c-2.2-0.1-4.4-0.1-6.7-0.2c-3.8-1.3-8.2-0.9-12.5-0.6c-1.2,0.4-2.4,0.8-3.6,1.2
		c-1.1,0.1-2.2,0.2-3.3,0.2c-1.2,0-2.3-0.1-3.5-0.1c-1.7-0.4-3.4-0.4-5.1-0.1c0-0.2-0.1-0.4-0.2-0.6c-2.9-1.1-5.8-1-8.8,0
		c-6.8,1.9-13.7-0.2-20.6,0.1c-3.8-2.3-7.9-0.9-12-0.1c0-1-1.7-1.5-3.5-2c-0.6-0.3-1.3-0.5-1.9-0.8c-1.8,0.1-3.5,0.2-5.3,0.3
		c-1.7-0.3-3.4-0.5-5.1-0.8c-2.4-1.2-5.8-0.5-8.7-0.6c0,0.2,0,0.4,0,0.6h-0.1c0.2-0.2,0.5-0.4,0.2-0.6c-3.3-0.4-6.7-0.9-8.7-2.2
		c-0.1-0.2-0.2-0.4-0.3-0.6c-2.2,0-4.4,0-6.7,0l0.1-0.2c-0.5,0.1-1,0.1-1.6,0.2c-0.7,0.6-1.5,1.3-2.2,1.9c-2.2,0-4.6-0.4-6.7,0.2
		c-4.6-0.7-9.2-1.5-13.8-2.3c-0.1-1-1.7-1.6-3.6-2.1c-0.6,0-1.2-0.1-1.7-0.1c-2.3,0.4-4.7,0.7-7,1.1c-1.8,0.1-3.3-0.8-5.2-0.2
		c-3.2-0.2-5.4,0.4-7.1,1.4c-5.5-0.4-5.4,1.5-7,2.7c-5,0.6-11.1,0.4-13.8,2.8c-3.6-0.6-7.2-1.1-10.7,0.1c-1.1,0.4-2.2,0.8-3.2,1.2
		c-2.3,0.1-4.6,0.1-6.9,0.2c-1.2,0-2.3,0.1-3.5,0.1c-1.7-0.3-3.1-0.9-5.2-0.7c-1.7-0.3-3.4-0.6-5.2-0.9c-0.6,0-1.2,0-1.8,0
		c-3-0.1-5.1,0.5-6.9,1.3c-2.9-0.2-5.9-1.1-8.7,0.1c-3,1.1-4.6-0.4-7-0.6c-0.6-0.1-1.2-0.2-1.8-0.2c-0.2,0-0.5,0.1-0.7,0.1
		c-0.1-0.1-0.3-0.2-0.3-0.4c-1.3-1-3.5-1.1-6-0.9c-1.4-0.1-2.7,0-3.4,0.6c-0.6-0.2-1.3-0.4-1.9-0.6c-1.8-1.1-5.1,0.2-7-0.7
		c-3.9,0.6-8.3-0.6-12,0.6c-1.2,0.1-2.3,0.2-3.4,0.3c-3.4,0.8-5.2-0.2-7-1.1c-2.3-0.8-5.4-0.5-8-0.9c-1.3,0.1-2.2,0.3-3.1,0.6
		c-0.1,0-0.1,0-0.2,0.1c-2-0.6-3.1,0.3-4.4,0.8c-2.4,0.4-5.2,0.6-7,1.5l0.1-0.1c-1.1-0.2-2.2-0.3-3.3-0.5c-1.1,0.3-2.1,0.5-3.1,0.8
		c-0.8,0-1.7-0.1-2.5,0.1c-1.1,0.3-1.8,0.6-1.6,1.1c-0.6-0.1-1.1,0-1.6,0.2c-0.5-0.1-1-0.1-1.5-0.1c-0.1,0.2-0.3,0.4-0.4,0.6
		c-3.6,1.3-7.5,0.5-11.4,0.3c-0.2-0.1-0.4-0.2-0.6-0.3c-1.9,0.1-3.8,0.2-5.4-0.4c-2.2,0.1-4.5,0.2-6.7,0.3c-1.6-0.2-3.2-0.5-4.8-0.7
		c-1.4-0.8-3.5-0.6-5.5-0.6c-3.6-1.1-7.1-1.2-10.7,0c-5.2,0-9.6-2.5-15.3-0.6c-1.5,0.7-3.4,0.7-5.5,0.6c-0.4-0.2-0.8-0.5-1.3-0.7
		c-2.5-0.9-5.7-0.9-8.7-1.2c-4.3,1.2-8.5,0.2-12.7-0.1c-1.2-0.3-2.3-0.5-3.5-0.8c-0.7-0.4-1.4-0.8-2.1-1.2l-4.8,0.6l-3.5-0.2
		c-2.2-2.4-6,0.1-8.8-0.5c-3.8,0.2-8,0.1-11.3,0.8c-3.9,0.7-5.6-0.1-7.9-0.9c-1.8-0.2-3-2.7-5.4-0.2c-1.7,0.5-3.3,1-5,1.5
		c-1.1,0.3-2.3,0.6-3.4,0.9c-3.5,0.4-6.9,0.7-10.4,1.1c-1.5-0.7-3.7-0.1-5.4-0.4c-0.5-0.1-1.1-0.2-1.7-0.3c-2.3,0.3-5.2-0.2-7,0.8
		c-0.5,0.2-0.6,0.5-0.1,0.8c0.1,0,0.2-0.1,0.3,0l-1.7,0.6c0-0.1,0.2-0.1,0.1-0.1c-1.6-0.7-4-0.1-5.8-0.5c-0.4,0-0.8,0-1.3-0.1
		c-2.1,2.3-8.7,2-12.3,3.4c-4.4-1.1-7.2,1.5-11.4,0.9c-0.1-0.1-0.1-0.1-0.2-0.2c-1.9-0.4-3,0.1-4.2,0.5c-4.5,0.1-9.1,0.2-13.6,0.3
		c0,0.2,0,0.4,0,0.6c-0.6,0.2-1.3,0.3-1.9,0.5c-0.4,0.1-0.8,0.1-1.2,0.1c-2.7-1-6-0.4-9-0.5l-2,1.3c-2.3,0.1-4.5,0.1-6.8,0.2
		c-1.9-0.1-3.8-0.1-5.7,0c-1.8,0.1-3.5,0.3-5.3,0.2c-3,0.3-5.8,0.7-9,0.1c-2.6-0.5-5.5-0.6-7.9,0.3v7.3H866z"/>
</g>
</svg>
