<?xml version="1.0" encoding="utf-8"?>
<!-- Generator: Adobe Illustrator 23.0.1, SVG Export Plug-In . SVG Version: 6.00 Build 0)  -->
<svg version="1.1" id="Layer_1" xmlns="http://www.w3.org/2000/svg" xmlns:xlink="http://www.w3.org/1999/xlink" x="0px" y="0px"
	 viewBox="0 0 852 37" style="enable-background:new 0 0 852 37;" xml:space="preserve">
<style type="text/css">
	.st0{fill-rule:evenodd;clip-rule:evenodd;fill:#FFFFFF;}
</style>
<path class="st0" d="M807.2,0.3L807.2,0.3c-0.1,0-0.1,0-0.2,0h-64.8c0,0,0,0-0.1,0h-0.1h-9.2c-0.1,0-0.1,0-0.2,0.1h-2
	c0,0,0-0.1-0.1-0.1h-7.8l-0.1,0.1h-15.3c-0.6,0-1.1,0-1.7,0c-0.1-0.1-0.2-0.1-0.3-0.1h-3.1c-0.2,0.1-0.5,0-0.7,0.1
	c0,0.1,0,0.1,0,0.1c-1.4,0.1-2.9,0.4-4.4,0.5c-0.9-0.2-1.9-0.5-2.8-0.7h-34.7c-0.1,0.1-0.3,0.1-0.4,0.2V0.4
	c-1.7-0.3-3.5,0.7-5.2-0.1c-0.2-0.1-0.7-0.1-1.2,0.1c-0.1-0.1-0.1-0.1-0.1-0.1h-13c-0.3,0.1-0.6,0.1-0.9,0.1H635
	c-0.3-0.1-0.6-0.1-1-0.1h-2.6c0,0-0.1,0-0.1,0.1c-0.1,0-0.2,0-0.3-0.1h-15.6c-0.2,0.1-0.4,0-0.7,0.1c-0.1,0.1-0.1,0.1-0.2,0.1
	c-0.1-0.1-0.1-0.1-0.1-0.1h-60.1c0,0.1,0,0.1,0.1,0.1c-0.5-0.1-0.9-0.1-1.4,0c-0.1-0.1-0.3-0.1-0.5-0.1h-4.7c-0.3,0.1-0.7,0.1-1,0.2
	c-0.3-0.2-0.7-0.1-1-0.2h-4c-0.3,0.1-0.6,0.1-1,0.1c-0.5,0.1-1,0.3-1.5,0.4c0.2-0.2,0.4-0.4,0.6-0.6h-15.8h-0.1l0,0h-39.6
	c-0.3,0.2-0.5,0.4-0.4,0.7c0,0.1,0,0.2,0,0.4c0,0,0,0-0.1,0c0.1-0.2,0.3-0.4-0.1-0.6c-0.7-0.2-1.4-0.4-2.1-0.4h-2.3
	c-0.6,0.1-1.1,0-1.7,0.2c-5,0.6-10.5,0.1-15.6,0.5c-0.2-0.1-0.5-0.1-0.7-0.3c-0.3-0.2-0.8-0.3-1.2-0.4h-9.2c-0.4,0.1-0.8,0-1.2,0.1
	c-0.1,0.1-0.2,0.1-0.3,0.1c-0.1-0.1-0.3-0.2-0.4-0.3h-53.2l0,0c0,0,0,0-0.1,0h-26.5c0,0.1-0.1,0.1-0.2,0.1l0,0c-0.5-0.1-1-0.1-1.5,0
	V0.3h-38.1c-0.6,0.1-1.3,0.1-1.8,0.4c-0.2,0.1,0.1,0.2,0,0.4c-0.6-0.6-1.5-1-3.4-0.6h-1.3c-0.1,0-0.3-0.1-0.5-0.1h-15.4
	c-0.1,0-0.1,0-0.2,0.1c-0.1-0.1-0.2,0-0.3-0.1h-18.8c-0.1,0-0.1,0-0.2,0.1c-0.2-0.1-0.4-0.1-0.6-0.1h-83.2c0,0.1-0.2,0.1-0.2,0.1
	h-11.8c-7.7,0-15.2,0-22.8,0c-0.2-0.1-0.3-0.1-0.4-0.1h-20.7c-0.3,0-0.5,0.1-0.7,0.1h-3.3c-0.2-0.1-0.5-0.1-0.7-0.1H78.2
	c-0.2,0.1-0.5,0.1-0.7,0.3l0,0c-0.5,0-1.1,0.1-1.6,0.1c-1.6-0.2-3.2-0.2-4.8,0.4h-0.3C71,1,71.3,1,71.4,1c-0.3-0.3-0.8-0.4-1.2-0.6
	H46.6c-1.7,0.1-3.4,0.1-4.7,0.7h-0.2c0.2-0.1,0.5-0.1,0.6-0.2c-0.3-0.3-0.8-0.4-1.2-0.5H-4.2c-0.1,0.1-0.3,0.1-0.4,0.1v20.7
	c3,0,6.1-0.1,8.7-0.8c2.2-0.3,4.4-0.5,6.7-0.8c1.2,0.1,2.4,0.1,3.6,0.1c11.4,1.6,22.5,1.6,32.7-1.3l17.2-0.6
	c2.4,0.9,5.1,1.5,8.7,1.3c3.7-1.1,9.5-0.7,12.3-2.5c2.5-0.2,4.6,0.1,6.7,0.7c2.9-0.2,6.2,0,8.5-0.9c3.9,0.4,5.2-0.9,7.1-1.8l5,0.7
	c3.4,0.9,7,2.6,11.1,1.8c6.2-1.2,12.1-0.3,18.2-0.6c1.2,0,2.3,0,3.5,0c1.2,0.3,2.3,0.5,3.4,0.8c0.6-0.1,1.1-0.1,1.7-0.2
	c1.9,0.2,3.8,0.3,5.1-0.5c0.6,0,1.2,0,1.8,0c2.9,0.8,4.6-0.4,6.8-0.6c2.7,0.1,5.6,0.1,8.3,0.1c2,0.8,4.8,0.4,7.3,0.7
	c2.8-0.1,5.8-0.1,8.6-0.2c3.8,0.9,8,1.1,11.9,0.4c3-0.5,5.7-0.8,8.7-0.2c1.2-0.2,2.4-0.4,3.6-0.6c1.6-0.1,3.3-0.2,4.9-0.3
	c1.4,0.1,2.6,0,3.5-0.5c1.7-0.1,3.5-0.1,5.2-0.1l10.2,0.1c0.5,0.3,1.1,0.5,1.6,0.8c1.2-0.1,2.4-0.1,3.5-0.2l0,0
	c3.3-0.3,5.8-0.9,5.8-2.4l3.1-1.3c2.9-1,6.1-1.7,10.1-1.3c1.7,0,3.3,0,5-0.1c4.6,2,9.4,2,14,0c1.1-0.2,2.2-0.4,3.3-0.7
	c0,0,0,0,0.1,0c2.2-0.3,4.5-0.5,6.9-0.8c3,0.1,6.2,0.6,8.8-0.5c3-0.1,5.1-0.9,6.9-1.8c1.1,0,2.2-0.1,3.3-0.1c3-0.3,5.9,0,8.7,0.5
	c3,1,6.6,0.8,10,0.6c1.7-0.2,3.5-0.4,5.2-0.6c0.5-0.1,0.6-0.3,0.8-0.5c2.5,0.4,4.6,0.1,6.4-0.7c2.2,0.2,4.5,0.4,6.8,0.6
	c0.8,0.1,1.5,0.1,2.1-0.1c0,0,0,0,0-0.1c1.2,0.2,2.5,0.4,3.7,0.6c0.2,0.4,0.6,0.6,1.3,0.8c0.5,0,1,0,1.5,0.1c4.3,0.9,8.6,2,13.7,0.8
	c8.3-1.6,17.5,0.9,25.7-0.8c2.9,1,5.7,0.2,8.5-0.1c1.2,0,2.4,0.1,3.6,0.1c1.4,0.6,3.1,0.8,5.1,0.4c1.7,0.1,3.4,0.1,5.1,0.1
	c0.6,0.1,1.2,0.1,1.8,0.2c0.5-0.2,0.9-0.4,1.4-0.6c0.1,0.1,0.2,0.1,0.3,0.1c0.6,0.1,1.3,0.2,2,0.4c0.2,0,0.4-0.1,0.5,0
	c1.4,0.7,4.8-0.1,6.2,0.7c1.1,0,2.1,0,3.2-0.1c1.1-0.7,3.2-0.6,4.9-0.8c0.3,0,0.7-0.1,1,0c2.4-0.2,4.9-0.3,7.4-0.4h7.4
	c1.2,0.6,3,0.7,4.9,0.7c0.1,1.4,0.9,2.6,5.3,2.7c1.2,0.6,2.4,1.3,3.6,1.9c1.8-0.1,3.5-0.2,5.3-0.4c0.5,0.1,1,0.3,1.5,0.4
	c0.6,0,1.1,0,1.7,0c3.1,1.1,6.9,0.5,10.3,0.6c3.1,1.1,6.7,1.1,10.3,0.5c0.6,0,1.2,0.1,1.7,0.1c1.8-0.4,3.5-0.8,5.3-1.3
	c2.2-0.2,4.5-0.4,6.8-0.6c0.6,0.2,1.1,0.4,1.7,0.6c3.2,0.8,4.8,2.8,10.2,1.9c0-0.2,0.1-0.4,0.1-0.6c1.7-0.2,3.4-0.4,5-0.7l1.8-0.7
	c0.3-0.3-0.1-0.4-0.4-0.6h0.3c0-0.2,0-0.4,0-0.6h0.1c-0.2,0.2-0.4,0.4-0.1,0.6c0,0.2,0,0.4,0.1,0.6c1.9,0.1,3.9-0.1,5.1,0.7
	c1.7,0.5,3.4,1,5.1,1.5c1.7-0.5,3.4-1.1,5.1-1.6c1.1,0,2.2,0,3.2,0c0.7-1.8,4.2-1.1,6.9-1.1c0.7,0.1,1.1-0.1,1.5-0.2
	c0.1,0,0.2,0,0.2,0.1c0.6,0,1.2,0.1,1.8,0.1c0.6,0.6,2.1,0.6,3.4,0.7c1.1,0.1,2.3,0.4,3.4,0.5c3.6,1.2,7.9,0.7,11.9,0.6
	c3.3,1.3,6.9-0.1,10.3,0.1c1.5-0.5,3.8,0.1,5.2-0.6c2.2-0.1,4.4-0.1,6.7-0.2c0.6-0.1,0.8-0.4,0.9-0.6c0.7-0.1,1.5-0.1,2.2-0.1
	c0,0.1,0,0.1,0,0.2c2.5,0.4,4.6,1.1,7.4,1.2c0.6,0,1.1,0.1,1.7,0.1c0-0.2,0-0.4,0-0.7l0,0c-0.3,0.2-0.5,0.4-0.1,0.7
	c1.4,1.6,6.2,1.1,8.7,2.1c2,0.7,4.6,0.3,7,0.6l0,0c1.1,0.4,2,0.4,3,0c0.9,0.5,2.3,0.7,3.8,0.7h3.4l0.4,0.6c0.5,1.7,3.7,1.3,6.6,1.3
	c1.9,0,3.9,0.1,5.3-0.6c1.6,0.1,3.2,0.2,4.8,0.4c0.6,0.3,1.3,0.5,1.9,0.8c4.4,0.7,9.2,0.2,13.6,0.6l9.9,1c0.2-0.1,0.1-0.1,0.3-0.2
	c0.1,0.1,0.1,0.1,0.2,0.1l-0.5,0.1c0.5,1.3,0.9,2.6,5.3,2.6c0.7,0.4,1.4,0.8,2.1,1.2c1.4,0,2.6-0.1,3.3-0.6
	c5.3,0.1,9.9-0.8,14.4-1.8c1.2-0.5,2.5-0.7,3.8-0.8c1.4-0.1,2.7,0,4,0.5c4.9-0.1,9.5,0,13.3,1.6c3.2,1.3,7.7,1.8,12.4,1.6
	c2.7,0.4,4.2-0.1,5.2-1.1c0.6,0,1.1,0,1.7-0.1c2.4,0.4,4.4-1.1,7-0.2c2.8,0,5.8,0.1,8.6,0.1l-0.2,0.2c3.6,0.1,7.6,0.8,10.6-0.6
	c1.8-0.1,3.7-0.1,4.9-0.8c2.8-0.1,5.1-0.5,7-1.3c1.7-0.3,3.3-0.6,5-0.8c4.6,0,9.2,0.1,13.8,0.1c2.9,0.2,5.9,0.4,8.8,0.6
	c1.6,0.1,3.3,0.2,4.9,0.3c2.8,0.1,5.7,0.2,8.5,0.3c1.7,0.1,3.4,0.1,5.2,0.2c2.4,1,5.2,1.4,8.8,1.1c1.1,0.1,2.1,0.1,3.2,0.2
	c1.3,0.7,3.3,1,5.5,1.1c1.9,1,4.9,0.9,8,0.9v-26H807.2z"/>
</svg>
