<?xml version="1.0" encoding="utf-8"?>
<!-- Generator: Adobe Illustrator 23.0.2, SVG Export Plug-In . SVG Version: 6.00 Build 0)  -->
<svg version="1.1" id="Layer_1" xmlns="http://www.w3.org/2000/svg" xmlns:xlink="http://www.w3.org/1999/xlink" x="0px" y="0px"
	 viewBox="0 0 496 512" style="enable-background:new 0 0 496 512;" xml:space="preserve">
<style type="text/css">
	.st0{fill:#C52084;}
</style>
<path class="st0" d="M248,15C114.9,15,7,122.9,7,256s107.9,241,241,241s241-107.9,241-241S381.1,15,248,15z M441,175h-91.1
	c-7.4-48-21.6-90.9-42.2-119.5C368,73.4,416.9,117.7,441,175z M328.9,256c0,18.7-1,36.7-2.8,54H169.8c-1.8-17.3-2.8-35.3-2.8-54
	s1-36.7,2.8-54h156.3C327.9,219.3,328.9,237.3,328.9,256z M248,46.8c33.6,0,62.4,52.9,74.7,128.2H173.4
	C185.6,99.7,214.5,46.8,248,46.8z M188.3,55.6L188.3,55.6C167.7,84.1,153.6,127,146.2,175H55.1C79.1,117.7,128.1,73.4,188.3,55.6z
	 M38.8,256c0-18.7,2.7-36.7,7.3-54h96.8c-1.8,17.7-2.8,35.9-2.8,54s1,36.3,2.7,54H46.1C41.5,292.7,38.8,274.7,38.8,256z M55.1,337
	h91.1c7.4,48,21.6,90.9,42.2,119.5C128.1,438.6,79.2,394.3,55.1,337z M248,465.2c-33.6,0-62.4-52.9-74.7-128.2h149.3
	C310.5,412.3,281.6,465.2,248,465.2z M307.8,456.4C328.4,427.9,342.5,385,350,337h91.1C416.9,394.3,368,438.6,307.8,456.4z
	 M353.2,310c1.8-17.7,2.8-35.9,2.8-54s-1-36.3-2.8-54H450c4.6,17.3,7.2,35.3,7.2,54s-2.6,36.7-7.3,54H353.2z"/>
</svg>
