<?xml version="1.0" encoding="utf-8"?>
<!-- Generator: Adobe Illustrator 23.0.2, SVG Export Plug-In . SVG Version: 6.00 Build 0)  -->
<svg version="1.1" id="Layer_1" xmlns="http://www.w3.org/2000/svg" xmlns:xlink="http://www.w3.org/1999/xlink" x="0px" y="0px"
	 viewBox="0 0 742.3 141.6" style="enable-background:new 0 0 742.3 141.6;" xml:space="preserve">
<style type="text/css">
	.st0{fill:#6DBAC3;}
	.st1{fill:#7CAEBC;}
	.st2{fill:#3583A0;}
	.st3{fill:#FFFFFF;}
	.st4{opacity:0.5;}
	.st5{opacity:0.13;}
	.st6{fill:#01FF84;}
</style>
<g>
	<g>
		<path class="st0" d="M11.5,97.5c-2.3-0.2-4.6,0.3-6.8-0.2C6.9,97.4,9.2,97,11.5,97.5z"/>
		<path class="st1" d="M130,64.6c0.1,0,0.2,0,0.3,0c0.1,0,0.3,0,0.4,0c0.4,0.3,1,0.2,1.3,0.7c0,0-0.1,0.2-0.2,0.2
			c-0.6,0.1-1.1-0.2-1.5-0.6C130.2,64.9,130.1,64.8,130,64.6z"/>
		<path class="st2" d="M18.3,114c0.1-0.1,0.2-0.2,0.3-0.3c0.5,0.9,0.4,1.9,0.5,2.9C18.8,115.7,18.5,114.8,18.3,114z"/>
	</g>
	<g>
		<path class="st3" d="M521.5,122.8c-0.3,0.2-0.7,0.7-1.4,1.5l-1.9,3.3c-2-1.5-4.2-2.3-6.6-2.3c-0.4,0-0.6,0.1-0.7,0.2
			c-0.2,0.3-0.3,0.9-0.3,1.8c0,0.2,0,1,0,2.4c0,1.4,0,2.5,0,3.2c0,1.2,0,2-0.1,2.4c-0.2,1.5-0.3,2.5-0.4,3.1c-0.8,0.4-2,1.3-3.7,2.7
			v-7.1l0.8-0.4l-0.8-1.5v-14.9l0.3-0.9l-0.3-5.4c0-0.5,0-1.2,0-2.1c0-1.1,0-1.8,0-2c0-1.3-0.1-2.2-0.4-2.6
			c-0.2-0.5-0.4-0.8-0.4-0.8c-0.4-0.5-0.9-0.7-1.5-0.8l0.1-0.8h8.6l2.1,0.7l2.6-0.7h3.9l-0.7,1.9c-0.2,0.3-0.3,0.9-0.4,1.8
			c-0.1,1.1-0.2,1.8-0.3,2.2c-0.9-1.5-1.9-2.4-3.1-3c-1-0.5-2.5-0.7-4.4-0.7c-0.8,0-1.3,0.1-1.6,0.3c0.1,0.5,0,1.8-0.2,3.9l-0.4,1.7
			l0.4,6.5v6.5l2.5,0.3l1.4-0.3l3.1,0.6l1.2-0.6H521.5z"/>
		<path class="st3" d="M547.5,118.1l-0.8,4.4c-0.2,0.5-0.5,0.9-0.8,1.3c-0.7,0.9-1.5,1.6-2.4,2c-2.3,1.1-4.8,1.6-7.3,1.6
			c-2.2,0-4.1-0.3-5.8-1c0.1-0.5,0.2-0.8,0.3-0.9c-0.1,0-0.1,0-0.2,0c-0.5,0.1-1.1,0.1-1.7,0.1c-0.8-0.4-1.5-0.9-2.2-1.4
			c-3-2.2-4.5-5.4-4.5-9.6c0-3.8,1.2-7,3.6-9.5c0.6-0.6,1.3-1.2,2-1.7c0.1,0,0.1,0.2,0.2,0.7c0.1,0.5,0.1,0.7,0.2,0.7
			c0.2-0.7,0.5-1.3,0.8-2c2.2-1.1,4.3-1.6,6.3-1.6c2.6,0,4.7,0.1,6.3,0.4c0.7,0.3,1.9,0.6,3.4,0.9c0.1-0.3,0.8-0.8,1.9-1.7v5.6
			l0.1,7h-1.5c-1.4-1-2.9-1.5-4.5-1.5H527c-0.2,0.6-0.8,1.4-1.9,2.5c0,0,0.2,0.1,0.5,0.3s0.4,0.3,0.4,0.4c0,1.3,0.3,2.5,0.9,3.6
			c0.5,0.9,1.4,1.9,2.5,3.1c2,2.1,4.5,3.1,7.5,3.1c1.2,0,2.8-0.5,4.8-1.4c0.9-0.4,1.6-0.8,2-1.1c0.2-0.2,0.9-0.9,2-2
			c0.5-0.5,0.9-1,1.4-1.6C547.3,118.6,547.4,118.4,547.5,118.1z M544.4,107.5c-0.8-0.9-1.3-1.3-1.3-1.4c-0.6-0.6-1.1-0.9-1.5-1.1
			c-1.6-0.7-3.2-1-4.7-1c-1.7,0-3.4,0.6-5.4,1.8c-1.8,1.1-3.2,2.4-4.2,3.9l13.6,0.2c0.5,0,1.1-0.3,1.8-0.9
			C543.7,108,544.3,107.5,544.4,107.5z"/>
		<path class="st3" d="M573.1,120.1c0,1.9-0.9,3.7-2.7,5.3c-0.7,0.6-1.5,1-2.4,1.4c-0.1,0.1-0.3,0-0.6-0.3c-0.2-0.3-0.4-0.4-0.6-0.4
			c-0.1,0-0.3,0.2-0.5,0.7s-0.4,0.6-0.5,0.7c-1.1,0.2-2.4,0.3-3.8,0.3c-2.9,0-5.5-0.5-7.6-1.6c-2.8-1.3-4.2-3.2-4.2-5.8
			c0-0.6,1-1.4,2.9-2.5c1.6-0.9,2.9-1.4,4-1.6c-0.2,0.4-0.6,1.1-1,1.9c-0.4,0.9-0.7,1.6-0.7,2.2c0,1.7,0.6,3.1,1.9,4
			c1.3,1,3.1,1.4,5.3,1.4c1.3,0,2.5-0.5,3.8-1.4c1.3-1,2-2.1,2-3.4c0-2.4-1.4-4-4.3-4.9c-1.7-0.5-4.4-1.3-7.8-2.3
			c-0.9-0.4-1.6-0.9-2.3-1.4c0,0,0-0.1,0-0.1c0-0.1,0.1-0.2,0.4-0.4c0.2-0.2,0.3-0.4,0.3-0.5c-0.1-0.2-0.4-0.3-0.9-0.3
			c-0.5-0.1-0.8-0.2-0.8-0.4c-0.5-0.5-0.8-1.6-0.8-3.1c0-2.2,1.3-3.9,3.9-5.1c2.1-1,4.4-1.5,6.9-1.5c2.1,0,3.8,0.3,5.2,1
			c0,0,0.1,0.1,0.1,0.1c0,0.1-0.1,0.2-0.2,0.4c-0.1,0.2-0.2,0.3-0.2,0.4c0,0,0,0.1,0.1,0.1c0.4-0.1,0.8-0.2,1.2-0.3
			c1.6,1.1,2.6,2.8,3.2,5.2c-1.5,0.3-2.7,0.9-3.6,1.8c-0.8,0.8-1.7,1.4-2.6,1.6c0.3-0.6,0.5-1.2,0.8-1.8c0.3-0.8,0.5-1.5,0.5-2
			c0-1.1-0.6-2.1-1.8-3.1c-1.2-0.9-2.4-1.4-3.7-1.4c-1.3,0-2.4,0.5-3.5,1.4c-1.1,0.9-1.6,2-1.6,3.1c0,2.7,1.4,4.5,4.2,5.6
			c2.7,0.7,5.3,1.3,7.9,2C571.7,115.8,573.1,117.5,573.1,120.1z"/>
		<path class="st3" d="M600.1,101.8l-0.9,2.7c-0.5,0-1.6-0.1-3.4-0.2c-1.9-0.1-4.1-0.1-6.4-0.1c-0.6,0-1.3,0.5-2.2,1.6
			c-0.9,1.1-1.4,1.8-1.6,2c-0.4,0.7-0.8,1.6-1.1,2.6c-0.5,1.9-0.8,3.9-0.8,5.9c0,3,0.8,5.3,2.5,6.9c0.8,0.9,1.7,1.4,2.5,1.7
			c0.8,0.3,2,0.4,3.5,0.4c0.5,0,1.5-0.3,3.1-1c2-0.9,3.5-1.8,4.4-2.8l-0.7,1.9c-1.1,0.9-2.1,1.8-3.2,2.6c-1.6,1.1-3.6,1.7-5.9,1.8
			c-3,0.1-5.6-0.9-7.8-3c-0.9-0.8-1.6-1.7-2.2-2.7c-0.1-0.1,0.1-0.3,0.4-0.5c0.3-0.2,0.4-0.4,0.4-0.5c-0.1-0.1-0.3-0.3-0.8-0.4
			c-0.5-0.1-0.7-0.2-0.8-0.4c-0.2-0.6-0.2-1.6-0.2-3.1c0-2.6,0.7-5.1,2-7.5c0.4-0.7,1.1-1.6,2.1-2.4c2.1-1.9,3.2-2.9,3.4-3.1
			l-13.3-0.1c0.9-0.7,2.5-2,4.7-3.9c1.5,1.4,4.1,2.3,7.9,2.7l8.1-0.4l0.4,0.5l2.3-1.2L600.1,101.8z"/>
		<path class="st3" d="M611.4,127.2h-4.3c0-0.5,0-1.2,0.1-2.3s0.2-2,0.3-3v-3.8l0.6-0.7l-0.6-0.7v-10.6c0-0.9-0.2-1.5-0.6-2
			c-0.4-0.5-1.9-1.4-4.3-2.7h8.7v8.1l-0.7,1.2l0.7,0.3V127.2z"/>
		<path class="st3" d="M639,101.5L638,103l-10.1,25.1c-1-1-2.1-3-3.3-6c-1.2-2.9-2.4-5.8-3.9-8.8c-0.6-1.2-1.3-2.5-2.1-3.9
			c-0.1-0.1,0.1-0.2,0.4-0.4c0.3-0.2,0.5-0.3,0.4-0.4s-0.4-0.4-1.1-0.7c-0.6-0.4-1-0.6-1.1-0.7c-1-1.6-2.2-3.4-3.5-5.4h9.6
			c-0.4,0.5-0.8,1-1.1,1.5l-1,0.1c-0.1,0-0.1,0-0.1,0.1c0,0.1,0.1,0.2,0.2,0.5c0.1,0.3,0.1,0.5,0.1,0.5l3.9,8.4
			c0,0.1-0.1,0.2-0.4,0.4c-0.3,0.1-0.4,0.3-0.4,0.4c0,0.1,0.3,0.2,0.7,0.4c0.4,0.2,0.7,0.3,0.7,0.4l2.4,5.2c1.1-1.6,2.5-4.8,4.1-9.4
			c0.8-2.2,1.2-3.6,1.2-4.1s-0.2-1-0.6-1.6c-0.5-0.6-1.1-1.6-1.9-2.8L639,101.5z"/>
		<path class="st3" d="M667.8,127.3h-6.6l-0.6-3.8l-1,0.1l-1.7-4.2l-9.4,4.3l1,0.6l-5.8,3.2h-1.8v-6.8c0.1-0.1,0.4-1.1,0.9-2.9
			c0.2-0.6,0.7-1.6,1.4-3.1c0-0.1,0.2-0.1,0.4-0.1c0.2,0,0.4,0,0.4-0.1l0.2-1.4c0.2-1.5,2.2-3.7,6.2-6.6c-0.1-0.1-0.4-0.5-0.9-1.2
			s-0.9-1.2-1.3-1.4c-0.8-0.3-2.7-1-5.7-2.2h9.5c0.9,0.4,1.9,1.6,3.2,3.7c0.2,0.4,0.6,1.1,1.1,2.1c0.2,0.5,0.6,1.4,1,2.6
			c0,0.1,0,0.2,0,0.3c0,0.2-0.1,0.4-0.3,0.5c-0.2,0.1-0.3,0.2-0.3,0.3c0,0,0,0.1,0.1,0.2c0,0,0.1-0.1,0.2-0.1c0.2,0,0.6,0.2,1.1,0.6
			c0.5,0.4,0.8,0.7,0.9,1.1c0.5,1.2,1.2,3,2.1,5.2c1.4,3,2.8,5.5,4.2,7.4C666.5,125.9,667.1,126.5,667.8,127.3z M656.5,117.2
			c-0.6-1.1-1.2-2.3-1.9-3.4c-0.9-1.7-1.3-2.6-1.2-2.8l0.7-1.8l-1.1,0.7l-0.5-0.7l-0.1-0.1c-0.5,0.2-1.1,0.7-1.7,1.5
			c-0.6,0.9-1.2,1.8-1.8,2.7c-1.6,2.3-2.4,4.3-2.4,6.2c-0.2,0.8-0.2,1.3-0.2,1.3l5.8-2C654.2,118.2,655.7,117.6,656.5,117.2z"/>
		<path class="st3" d="M688.3,121.9c-0.9,1.7-1.5,2.9-1.6,3.6c-0.2,0.8-0.4,1.8-0.7,2.9c-1.2-0.3-2.9-0.6-5-0.9l-0.2,0h-9.1v-20.8
			l0.8-1l-0.8-1.5v-6.1c0-0.5-0.2-1-0.7-1.3c-0.4-0.3-1.6-1.2-3.6-2.7c1.8,0,3.3,0,4.2,0.1c0.3,0,0.7,0.4,1.2,1.1c0,0,0,0,0,0
			l0.5-0.9c0.5,0,1.4-0.2,2.9-0.6v22.9l-0.8,0.8l0.8,3c0.1,0.4,0.1,1.1,0.1,2v2c0.1,0.1,0.4,0.2,0.9,0.2c2.5,0,4.4-0.2,5.8-0.7
			C684.3,123.4,686.1,122.7,688.3,121.9z"/>
	</g>
	<g>
		<path class="st3" d="M540.1,71.3c0.1,0.3,0.3,0.6,0.5,1.1c0.3-0.2,0.6-0.3,0.7-0.5c1.1-2.2,3-3.7,4.9-5.1c1.9-1.4,3.8-2.9,5.6-4.4
			c0.6-0.5,4.1-4.1,4.6-5.8c0.3-0.5,0.5-1,0.5-1.1c0.1-0.5-0.2-0.3-0.2-0.3c-4.7,4.8-9.4,3-12.4,1c-3-2-2-4.7-2-4.7
			c0.2-0.3,0.8-2.1-1.1-0.7c-1.2,0.9-1.8,2.6-2,3.7c0,0.1,0,0.1-0.1,0.2c-0.2,0.8-0.2,1.6-0.2,2.6c-0.3-0.1-0.5-0.2-0.7-0.4
			c-0.3-0.4-0.8-0.9-1.4-1.5c-0.2-0.3-0.4-0.6-0.7-0.8c-0.3-0.3-0.6-0.5-1-0.8c-0.8-0.7-1.5-1.2-2-1.3c-0.6-0.1-0.7,0.2-0.6,0.7
			c0,0,0,0,0,0c0,0,0,0,0,0.1c0.1,0.5,0.4,1.1,0.6,1.6c0.2,0.6,0.4,1.2,0.7,1.8c0.1,0.5,0.1,1-0.2,1.1c-0.7,0.2-2.8,0.1-4.4,1.2
			c-0.1,0.1-0.2,0.2-0.3,0.2c-0.8,0.5-1.6,1-2.3,1.7c-1.8,1.7-3.1,3.7-4.1,6.7c3.6-2.2,6.4-4.8,10.7-4.3c-0.2,0.7-0.2,1.3-0.4,1.9
			c-0.7,2-1.1,4.1-1,6.2c0.1,1.3,0.9,1.7,1.8,0.8c0.8-0.8,1.6-1.8,2.2-2.8c0.6-0.9,0.9-2,1.5-2.9c0.4-0.7,1-1.3,1.7-1.7
			c0.4-0.2,1.3,0,1.7,0.2c0.2,0.1,0.2,1,0,1.4C540,67.9,539.5,69.5,540.1,71.3z M536,60.8c-3.5-0.6-6.3,0.7-5-0.3
			c1.4-1,6.6-1.1,6.6-1.1l0.2,0c0.8,0,1.7,0.1,2.6,0.1c2.4,0.2,4.7,0.3,7.1,0.4c0.2,0,0.4-0.1,0.6-0.1c0,0,0.1,0,0.1,0
			c2.8,0,4.7-0.6,6-1.3c-0.5,0.6-0.8,1-1,1c-0.8,0.9-2.8,1.6-4,1.6c-0.5,0-1.2,0.1-1.7,0.1l0.1,0c0,0-0.1,0-0.3,0c-1,0-2.1,0-3.1,0
			C541.4,61.1,538.7,60.9,536,60.8z"/>
		<path class="st3" d="M561.4,23.4c-0.5,0.3-0.9,0.6-1.5,0.9c-0.1,0-0.3-0.1-0.7-0.2c-0.7-0.8-1.2-1.6-1.6-2.2
			c-3.4-1.2-7.4-2-11.7-2.2c-4.4-0.3-10.5,0.7-18.1,2.9L514.4,31c12.4-3.8,20-5.7,22.9-5.7c3.4,0.1,5.7,0.4,6.8,0.7
			c1.1,0.3,1.7,0.5,1.6,0.5c4.6,0,9.8,2.6,15.5,7.7c4.8,4.4,7.2,11.3,7.2,20.7c0,2.6-0.2,5-0.6,7.2c0.2,1.7,0.4,3,0.6,4.1
			c-0.1,0.4-0.5,0.7-1.1,1c-0.6,0.3-1,0.6-1.2,0.9c-1.1,2.8-2.6,5.2-4.5,7.4c-4.5,5.1-10.5,7.7-18,7.7c-6.7,0-12.3-2.6-16.7-7.8
			c-2.4-2.9-4.1-5.4-4.9-7.7c-1.1-2.6-1.6-5.9-1.6-9.9c0-2.7,0.5-5.4,1.4-8c1.4-3.8,4.6-7.9,9.6-12.2c0.7-0.6,1.3-0.7,1.7-0.3
			c0.7,0.6,1.3,0.9,1.7,0.9c0.2,0,0.4,0,0.6-0.1c0.7,0,1.7,0,2.9-0.1c1.2-0.1,2.1-0.1,2.6-0.1c1.4,0,2.7,0.3,3.7,0.8
			c0.7,0.3,2.2,1.5,3.8,3.1c2.4,2.9,4,7,2.8,9.2c-1.9,3.4-5,1-5.6,0.7c-0.6-0.3,0.7-0.8,0.7-0.8s0.7-0.4-0.7-0.9
			c-1.4-0.6-3.2,2-1.9,4.1c1.3,2.2,4.7,3.1,7.7,2.8c3-0.3,9.7-3.7,7.4-13.3c-1.5-6.2-4.1-9-5.7-10.3c-0.1-0.1-0.2-0.1-0.2-0.2
			c0,0-0.1-0.1-0.1-0.1c-0.2-0.2-0.4-0.3-0.7-0.5l-2.9-1.7l-0.3-0.1c-4.9-1.6-8.2-2.3-9.9-2.2c-5.1-0.1-9.9,0.9-14.5,2.9
			c-4.1,1.8-7.5,4.3-10.2,7.3c-3,3.6-5,6.7-5.9,9.5c-0.7,2.2-1,5.7-1,10.3c0,2.8,0.4,5.3,1.1,7.7c0.1,0.3,0.6,0.5,1.5,0.8
			c0.9,0.2,1.4,0.5,1.5,0.8c0.1,0.2,0,0.8-0.3,1.6c-0.3,0.9-0.4,1.4-0.3,1.6c1.3,2.1,3.4,4.9,6.3,8.2c6.6,7.6,15,11.4,25.1,11.4
			c9.4,0,17.1-2.1,23.1-6.3c5.5-3.8,9.7-8.5,12.8-14.1c2.8-5.1,4.1-9.9,4.1-14.6c0-9.4-3.6-17.7-10.9-24.8
			C568.3,27.6,564.9,25.2,561.4,23.4z"/>
		<path class="st3" d="M601.5,80.3c-1.3,0-2-0.2-2.2-0.5V75c0.2-2.2,0.1-3.9-0.1-4.8l-1.8-7.1l2-1.8V6.5c-3.5,0.9-5.8,1.3-7,1.4
			l-1.1,2.2c0,0.1,0,0.1-0.1,0.1c-1.3-1.6-2.2-2.5-2.8-2.5c-2.3-0.1-5.7-0.2-10.1-0.2c4.6,3.5,7.5,5.6,8.5,6.4
			c1,0.8,1.6,1.9,1.6,3.1v14.6l2,3.6l-2,2.4v49.7h21.8l0.5,0.1c5,0.8,9,1.5,12,2.1c0.6-2.7,1.2-5,1.6-7c0.4-1.8,1.7-4.7,3.9-8.7
			c-5.3,2.1-9.5,3.7-12.8,4.8C612.1,79.8,607.5,80.3,601.5,80.3z"/>
		<path class="st3" d="M732,59.9c-0.9-0.6-0.5,0.3-0.6,1.9c-0.2,1.6-1.5,4.1-4.6,4.4c-3.1,0.3-6.3,1.2-7.1,1.3
			c-0.8,0.1-1.2,0.6-1-1.3c0.2-1.8-1.5-2.6-2.3-2.8c-0.8-0.3-0.7,0.1-1,2.8c-0.3,2.7-2.2,4-3.1,4.5c-1,0.5-1.7,0-1.4-1.7
			c0.3-1.7-0.6-3.3-1.4-4.1c-0.8-0.8-2.1-0.7-1.8-0.2c0.3,0.4,0.7,2.1-1.9,5.1c-2.6,3-9,5-10.8,5.7c-1.8,0.7-1.2-1.1-0.9-1.8
			c0.2-0.7,1.2-2.5,1.2-4.2c0-1.7-0.5-2.4,0.6-5c1-2.7,3-2.1,3-2.1s0.2-2.8-4.5-1.7c-4.6,1.1-4.8,6-5.5,8.7
			c-0.7,2.7-0.6,3.5-1.8,5.3c-1,1.4-3.8-0.7-4.9-1.7c-0.6-0.6-1.2-1.3-1.9-2.2c-1.8-2.7-3.3-4.9-4.3-6.4c-0.1-0.2-0.5-0.1-1.2,0.1
			c-0.9,0.2-1.4,0.3-1.6,0.3c-0.2,0-0.3,0-0.3-0.1c-0.2-0.3-0.1-0.8,0.2-1.4c0.4-0.6,0.5-1.1,0.5-1.3c0-0.2-0.1-0.3-0.2-0.5
			c-1.2-1.7-2.4-3.2-3.4-4.4c-3.9-5.1-8.5-9.1-13.8-12.1c4.1-1.7,6.5-2.8,7.2-3.1c2.8-1.3,4.9-2.8,6.5-4.4s4.5-5.6,8.8-12.1
			c-1.3,0-2.7,0-4.3,0.1c-1.6,0.1-2.6,0.1-3.1,0.1c-1,0-3.1-0.5-6.3-1.5c0,3.4-0.3,6-1,7.7c-1.6,4.2-6.5,7.5-14.6,9.9l-3.7,0.4
			l-3-1.3l3-4.5V7.9l-12.6-0.4h-9.7l8.2,4.5l0.4,0.2c2.1,1.1,3.2,2.5,3.2,4.3v10l0.9,2.1L635.2,40v28.1l2.4,2.8l-2.4,4.1v11.6h12.3
			c-1.6-5-2.4-11-2.4-18.1l0.2-7.9c0.1-4.6,0.2-8.4,0.2-11.3c0-1.5,0.3-2.2,1-2.2c4,0,8.4,3.4,13.2,10.3c1.3,1.8,4.1,6.2,8.3,13.2
			c4.1,6.6,6.7,10.8,8,12.5c2.2,2.9,4.4,4.4,6.7,4.4h0.1c0.1,0,0.2,0,0.4-0.1c0.7,0,2.4,0.2,4.7,2c3.1,2.4,0.6,7.3-0.3,7.9
			c-0.9,0.6-1.6-0.2-1.6-0.2s1,3.1,3.6,3.5c2.6,0.4,3.4-1.1,3.6-1.2c1.3-0.2,0.8,3.1,1.2,4c0.5,0.9-0.6,1.8-0.6,1.8
			c0.9,0.3,1.5,0.1,2.5-0.4c1-0.5,1.3-5.3,1.3-5.3c0.5,0.1,0.7,0.6,1.4,2.8c0.8,2.2,1.9,6.9,7.5,9.3c5.5,2.4,9.1,0.1,7.5,0
			c0,0-0.1,0-0.1,0c-1.5-0.1-3.3-2-4.2-3.3c-1-1.4-2.3-5-2.8-7.9c-0.5-2.9-3.1-4.8-3.1-4.8c1.2,0.2,3.5,0,4.5-0.7
			c1-0.6,2.5-2.8,0.6-2.6c-1.9,0.2-3.6-0.7-5.7-3.1c-2.1-2.4-5.9-3-5.9-3c0.6-1.5,4.7-3,8.6-3.9c4-0.9,8.3,1.3,10.8,2.9
			c2.6,1.6,3.4,3.7,3.3,1c-0.1-2.7-5.5-5.8-10-6.9c-4.5-1.1-13.5,0.4-13.5,0.4c3.2-4.2,9.9-5.6,13.7-7c3.8-1.4,8.7-2.9,14.8-3.4
			c6.1-0.5,7.7-6.3,7.7-6.3s0.5,1.3-1.4,4.4c-1.8,3.1-5,2.9-13.8,4.5c-7.5,1.4-13.9,3.7-17.3,6.2c-0.4,0.3,3.4-0.5,6.5-0.4
			c3.1,0.1,3.4,0.6,5.7,0.1c2.3-0.5,3,0.4,4.1,0.6c1.1,0.2,2-0.3,3.4,0.3c1.5,0.6,1,1.6,1.3,1.7c0.3,0.1,0.9-0.5,0.9-1.9
			c0.1-1.4-1.9-3.2-3-3.5c-1.1-0.3-1.5-0.6,0-1.5c1.5-0.9,2.1-0.6,7.6-1.6c5.5-1.1,6.3-2.5,7.5-5.7C735.4,62.8,732.9,60.4,732,59.9z
			 M689.5,75.8c0.9-0.8,2-6.1,2.8-9.6c0.7-3.4,2.3-4.1,2.3-4.1c-2,3.1-1.6,7.5-1.8,9.2c-0.2,1.7-1.8,5.1-2,5.1
			C690.7,76.5,688.6,76.6,689.5,75.8z M701.6,91.4c1.2,1.6,3.6,2,3.6,2c-3.7,1.4-5.3-1.9-6.8-2.4c-1.5-0.6-0.9,0.2-0.9,0.2
			c1.6,1,4.1,6.7,5.1,10.5c1.1,3.8,4.6,7.4,4.6,7.4c-1.1-0.3-3.6-2.9-5.6-7.5c-2-4.6-5.3-9.1-5.3-9.1s-0.9-1.6-2,2
			c-1.1,3.5-3.3,2.1-3.3,2.1c2.4-0.1,2.6-3.1,2.9-5.3c0.3-2.2-3.2-3.6-3.2-3.6c1.8-0.4,3.1,0,5.7,0.8
			C698.9,89,700.9,90.5,701.6,91.4z"/>
		<path class="st3" d="M504,16.4c2.8,1.3,5.3,3.7,7.4,7.2c0.3-1,0.5-2.8,0.6-5.3c0.2-2.2,0.5-3.6,0.9-4.4l1.6-4.5h-21.3l-3.6,1.5
			L484.2,9h-20.8l-0.2,1.9c1.5,0.2,2.8,0.8,3.7,1.9c0.1,0.2,0.4,0.8,1,2c0.6,1.2,0.9,3.3,0.9,6.4c0,0.7,0,2.3,0,5
			c-0.1,2.1-0.1,3.7,0,5l0.7,13l-0.7,2.1v36.1l1.1,3.3l-1.1,1.2l-0.1,54c4-3.4,11.3-6,13.2-6.9c0.3-1.4-2.4-6-1.9-9.6
			c0.1-1-0.2-29.1-0.2-31.9c0-1.9-0.8-12.7-0.8-16c0-3.3,0-5.3,0-5.8c0-2.1,0.2-3.6,0.7-4.3c0.2-0.3,0.8-0.4,1.7-0.4
			c5.7,0,9.3,0.9,14.2,4.6l4.7-7.9c1.5-1.9,2.6-3.1,3.3-3.6h-5.8l-3,1.4L489,60l-3.4,0.7l-6.1-0.7V44.3l0-15.5l0-4.5
			c0.6-5.1,0.8-8.3,0.6-9.4c0.5-0.4,1.8-0.6,3.8-0.6C488.4,14.3,501.5,15.2,504,16.4z"/>
	</g>
	<path class="st3" d="M730.8,40.7c-0.2-0.1-0.4-0.1-0.6-0.1c-0.8,0.1-1.6,0.1-2.4,0.3c-1.6,0.5-3,1.3-4.2,2.6
		c-0.1,0.1-0.1,0.1-0.2,0.2c-0.7,0.8-1.1,1.5-1.1,1.5l0.5-1.3c0,0,0,0,0,0c0.1-0.1,0.1-0.3,0.2-0.4l0-0.1c0,0,0,0,0,0
		c0.4-0.9,0.9-1.7,1.7-2.3c0.5-0.4,1-0.8,1.7-0.3c0.1,0.1,0.3,0.1,0.4,0c0.3-0.1,0.5-0.3,0.5-0.7c0-0.3-0.2-0.5-0.5-0.5
		c-0.7,0-1.4,0-1.9,0.5c-0.6,0.6-1.1,1.2-1.7,1.8c-0.2,0.2-0.4,0.4-0.7,0.9c0-0.6,0-0.9-0.1-1.2c-0.1-0.7-0.2-1.4-0.3-2.1
		c-0.1-0.5-0.3-1-0.8-1.3c-0.3-0.2-0.6-0.3-1,0c-0.1,0.1-0.2,0.3-0.1,0.4c0.1,0.3,0.3,0.5,0.7,0.5c0.5,0,0.6,0.3,0.8,0.7
		c0.3,1,0.3,1.9,0.3,2.9c0,0.5-0.2,0.9-0.6,1.5c-0.1-0.4-0.1-0.6-0.1-0.8c-0.2-2.2-1.1-4.1-2.5-5.8c-0.7-0.9-1.6-1.5-2.9-1.4
		c-0.5,0-0.9,0.3-1,0.7c-0.2,0.6-0.4,1.2-0.2,1.9c0.2,0.9,0.4,1.8,0.4,2.8c0,1.6,0.2,3.1,1.4,4.5c0,0-0.1,0.1-0.2,0.2
		c-0.3,0.2-0.6,0.4-0.8,0.6c-1.3,1.2-3.2,3.4-1,5.4l0,0c0.3,0.3,0.5,0.5,1,0.5c0.7,0.1,1.4-0.1,1.7-0.8c0.6-1.2,1.7-1.8,2.7-2.5
		c0.1,0,0.1,0.1,0.2,0.1c-0.4,1.3-0.9,3.6-0.5,3.3c0.4-0.3,0.9-1.7,1.4-2.9c0.3,0,0.5,0.2,0.6,0.5c0.2,0.4,0.3,0.8,0.3,1.2
		c0.1,0.7,0,1.4,0.1,2c0,0.3,0.1,0.7,0.3,0.9c0.3,0.3,0.8,0.8,1.3,0.7c0.6-0.2,1.3-0.1,1.7-0.9c0.6-1.2,0.6-1.1,0.9-2.4
		c0.2-1.1,0-2-0.3-3.1c1.5-0.3,2.4-1.3,3.3-2.5c0.5-0.7,1.1-1.3,1.7-1.9c0.4-0.5,0.8-0.9,1.1-1.4C732.3,42,732,41.2,730.8,40.7z"/>
	<path class="st3" d="M342.3,59.4c-0.5-1.4-1.1-2.3-1.9-3.1c-0.3-0.3-0.7-0.6-1.1-0.8c0,0-0.1-0.1-0.1-0.1c-0.8-0.5-1.7-0.5-2-0.5
		c-0.1,0-0.1-0.3-0.1-0.5c0.1-0.3,0.2-0.6,0.3-0.8c0.1-0.2,0.2-0.5,0.3-0.7c0,0,0,0,0,0c0,0,0,0,0,0c0-0.2,0-0.4-0.3-0.3
		c-0.2,0-0.6,0.3-0.9,0.6c-0.2,0.1-0.3,0.2-0.4,0.4c-0.1,0.1-0.2,0.2-0.3,0.4c-0.3,0.3-0.5,0.5-0.6,0.7c-0.1,0.1-0.2,0.1-0.3,0.2
		c0-0.5,0-0.8-0.1-1.2c0,0,0-0.1,0-0.1c-0.1-0.5-0.3-1.3-0.9-1.7c-0.9-0.6-0.6,0.2-0.5,0.3c0,0,0.5,1.3-0.9,2.2
		c-1.4,0.9-3.6,1.8-5.8-0.5c0,0-0.1-0.1-0.1,0.1c0,0.2,0.6,2,4.1,2.1c0,0,0,0,0,0c0.1,0,0.2,0,0.3,0c1.1,0,2.2-0.1,3.3-0.2
		c0.4,0,0.8-0.1,1.2-0.1l0.1,0c0,0,2.4,0,3.1,0.5c0.6,0.5-0.7-0.1-2.3,0.2c-1.3,0.1-2.5,0.2-3.8,0.2c-0.5,0-1,0-1.4,0
		c-0.1,0-0.1,0-0.1,0l0,0c-0.2,0-0.6-0.1-0.8-0.1c-0.6,0-1.5-0.3-1.9-0.7c-0.2,0-1.3-1.7-1.5-1.7c-0.2,0.6,1.8,2.7,2.2,3
		c0.8,0.7,1.7,1.4,2.6,2.1c0.9,0.7,1.8,1.4,2.3,2.4c0,0.1,0.2,0.1,0.3,0.2c0.1-0.2,0.2-0.3,0.2-0.5c0.3-0.8,0-1.6-0.3-2.4
		c-0.1-0.2-0.1-0.6,0-0.7c0.2-0.1,0.6-0.2,0.8-0.1c0.3,0.2,0.6,0.5,0.8,0.8c0.3,0.4,0.4,0.9,0.7,1.4c0.3,0.5,0.6,0.9,1,1.3
		c0.4,0.4,0.8,0.2,0.8-0.4c0.1-1-0.1-1.9-0.5-2.9c-0.1-0.3-0.1-0.5-0.2-0.9C339.4,57.1,340.7,58.3,342.3,59.4z"/>
	<g>
		<path class="st3" d="M209.5,39.3c-0.4,3.9-0.7,8-0.7,12.4c0,1.4,0,2.9,0,4.4c0,0.2-0.1,0.5-0.4,0.9c-0.3,0.4-0.4,0.7-0.4,0.9
			c0,0.1,0.2,0.2,0.5,0.2c0.3,0,0.5,0.1,0.5,0.2c0.1,2.1,0.2,5,0.4,8.7l0.2,2.8H204v-2.1c-0.5,0.2-1.2,0.5-2.1,1
			c-1.7,0.8-3.5,1.3-5.3,1.3c-1.3,0-2.5-0.2-3.6-0.7c-0.5-0.2-1.5-0.7-3.3-1.7c-2.1,1.6-4.7,2.3-7.7,2.3c-4.8,0-8.3-1.2-10.5-3.7
			c-2.2-2.5-3.3-5.7-3.3-9.6c0-2.4,0.5-4.8,1.5-7.4c1-2.3,2-4.6,3.1-6.9l-0.9,0.7l-0.5-0.7c-0.5-0.8-1.1-1.9-1.8-3.3h8.5v2
			c-1.1,1.4-2.2,3.2-3.1,5.5c-0.1,0.1-0.2,0.2-0.3,0.2c-0.1,0-0.3,0-0.5-0.1c-0.2,0-0.3-0.1-0.4-0.1c-0.2,0-0.3,0.1-0.3,0.2
			c-0.1,0.1,0,0.5,0.3,1.3c0.2,0.7,0.3,1.1,0.3,1.3c-0.5,2-0.8,3.8-0.8,5.4c0,2.9,0.7,5.6,2.2,8.1c1.4,2.4,3.6,3.5,6.8,3.5h0.5
			c3,0,4.7-0.4,5-1.1c-1.4-1.3-2.3-3.7-2.6-7c-0.1-1.1-0.2-2.3-0.2-3.6c0-2.3,0.2-4.5,0.7-6.4c0.1-0.2,0.5-1.9,1.5-5.2
			c-0.5-0.6-1.5-1.9-2.9-4h9.5c-1,2.1-1.8,4.4-2.5,6.7c-0.1,0.2-0.4,0.5-1.1,1c-0.7,0.5-1,0.8-1,1c0,0.1,0.1,0.1,0.2,0.1
			c0,0,0.2,0,0.8-0.1c0.4,0,0.6,0,0.7,0.1c0.1,0.1,0.1,0.3-0.2,0.6c-0.4,2.1-0.6,4.1-0.6,6c0,2.8,0.7,5.7,2.1,8.6
			c1.3,2.7,3.2,4.1,5.6,4.1c0.9,0,2.3-0.5,4.1-1.5c1.6-0.9,2.5-1.9,2.5-3.1v-15c0-2.1-0.4-3.7-1.1-4.8c-1.1-1-2.2-2.2-3.1-3.5h4.2
			l0.7,0.9l3.2-0.9H209.5z"/>
		<path class="st3" d="M222.4,70.5h-4.7c0-0.5,0.1-1.4,0.2-2.5c0.1-1.1,0.2,0.6,0.4-0.5v-4.2l0.7-0.8l-0.7-0.8V49.9
			c0-1-0.2-1.7-0.6-2.2c-0.5-0.6-2-1.6-4.7-3h9.5v9l-0.8,1.4l0.8,0.4V70.5z"/>
		<path class="st3" d="M274.5,55.7c0,1.2-0.1,2.3-0.3,3.4c-0.4,2-1,3.6-1.8,4.9c-0.8,1.3-1.9,2.6-3.4,3.8c-1.8,1.6-4.4,2.3-7.9,2.3
			c-0.7,0-1.6-0.2-2.5-0.6c-0.9-0.4-1.6-0.8-2.1-1.3c-0.5-0.4-1-0.9-1.5-1.3c-0.5-0.6-1.1-1.6-1.8-3.1c1.2,0.9,2.6,1.9,4.3,2.9
			c0.4,0.2,1.1,0.4,2,0.6c1,0.2,1.7,0.3,2.1,0.3c1.2,0,2.2-0.1,2.9-0.4c1-0.4,2-1.2,3-2.5c1-1.3,1.7-2.6,2-3.9
			c0.3-1.1,0.4-2.7,0.4-4.9c0-1.5-0.4-3.1-1.2-5c-0.8-1.7-1.7-3.2-2.8-4.4c-2.6-2.9-5.2-4.4-7.7-4.5c-1.7-0.1-3.1,0.2-4.4,0.8
			c-0.6,0.3-1.4,0.9-2.6,1.9c1.1,2.1,1.7,4,2,5.8c0.1,1.1,0.2,2.3,0.2,3.6c0,2.4-0.2,4.5-0.7,6.4c-0.1,0.2-0.5,1.9-1.5,5.2
			c0.5,0.6,1.5,1.9,2.9,4h-9.5c1.1-2.4,2-5,2.7-7.6c0.1-0.2,0.3-0.7,0.7-1.5c0.4-0.7,0.7-1.2,0.7-1.5c0-0.2-0.1-0.3-0.4-0.4
			c-0.3-0.1-0.4-0.2-0.4-0.4c0.2-1.4,0.3-2.7,0.3-4c0-2.8-0.7-5.7-2.1-8.6c-1.3-2.7-3.2-4.1-5.6-4.1c-0.9,0-2.2,0.5-4,1.5
			c-1.6,0.9-2.5,1.9-2.5,3v15.1c0,2.1,0.4,3.7,1.1,4.8c0.3,0.2,0.7,0.8,1.2,1.6c0.5,0.8,1.1,1.5,1.8,2.1h-9.5
			c0.6-4.5,0.8-8.7,0.8-12.6c0-1.8,0-3.6,0-5.4c0-0.2,0.2-0.4,0.5-0.7c0.3-0.3,0.5-0.5,0.5-0.7s-0.2-0.4-0.6-0.5
			c-0.4-0.1-0.6-0.3-0.6-0.5c-0.1-2.5-0.2-5-0.3-7.5l-4.2-3l9.5,0.2v2.1c0.6-0.2,1.3-0.6,2.1-1c1.7-0.9,3.5-1.3,5.3-1.3
			c2.6,0,5.1,1.1,7.5,3.2c0.3-0.1,0.9-0.4,2-1c0.5-0.3,1.1-0.6,1.8-1c0.4-0.3,1.1-0.6,2.1-1c0.7-0.2,2-0.4,3.8-0.6c0.3,0,0.7,0,1,0
			c2.1,0,4.3,0.6,6.5,1.8c2.1,1.1,3.7,2.4,4.7,3.9c0.5,0.6,1.1,1.5,1.8,2.8c0.1,0.1-0.1,0.3-0.5,0.4s-0.5,0.3-0.5,0.4
			c0,0.1,0.3,0.3,0.8,0.6c0.5,0.3,0.8,0.5,0.8,0.6C274.3,50.4,274.5,52.7,274.5,55.7z"/>
		<path class="st3" d="M380.1,69.5c-0.5,0.1-1,0.1-1.5,0.1c-0.8-0.1-1.1-0.1-0.9-0.1c-1.3,0-2.2-0.2-2.8-0.7
			c-0.1-0.1-0.2-0.2-0.3-0.2c-0.2,0-0.5,0.1-0.8,0.4c-0.4,0.3-0.7,0.5-0.9,0.5c-0.5-0.1-1.3-0.5-2.2-1.1c-1.1-0.8-2.2-1.8-3.2-2.9
			c-2.4-2.8-4-4.6-4.8-5.4c-1.4-1.5-2.5-2.5-3.4-3v12.5l-1.3-1.1l-1.7,1.1h-2V52.1l1-2.8l-1-0.7v-3.2c0-1.8-0.2-2.9-0.5-3.3
			c-0.2-0.4-0.5-0.7-0.7-1.1c-0.6-0.7-1.7-1.3-3.1-2h2.6c-0.1,0,0.7,0,2.4-0.1c0.8-0.1,1.4,0,1.8,0.2c0.4,0.4,1,0.9,1.7,1.6
			c2.4-1.6,4.8-2.3,7.2-2.3h0.3c2,0,3.6,0.5,4.9,1.5c1.5,1.1,2.2,2.7,2.2,4.6c0,0.5,0,0.9-0.1,1.3c0,0.1-0.2,0.2-0.5,0.3
			c-0.3,0.1-0.4,0.1-0.5,0.3c-0.1,0.1,0,0.4,0.2,0.9c0.2,0.5,0.2,0.8,0.2,1c0,0.1,0,0.2,0,0.2c-1,2.5-4,4.7-8.7,6.7
			c1.6,0.9,3.3,2.4,5.2,4.4c1.5,1.7,3,3.4,4.5,5c1,1,1.6,1.7,1.9,1.9c0.6,0.5,1.5,1.1,2.6,1.6L380.1,69.5z M367.5,45.8
			c0-1.3-0.3-2.3-1-2.9c-0.7-0.7-1.3-1-1.9-1c-1.3,0-2.9,0.7-5,2l-0.2,0.1v8.7c2.4-0.9,4.4-1.8,5.9-2.9
			C366.8,48.9,367.5,47.5,367.5,45.8z"/>
		<path class="st3" d="M411.8,38.8l-1.2,4.3c-0.1,0.2,0,0.4,0.2,0.4c0.2,0.1,0.3,0.2,0.3,0.4v27.8l-4.9-5.6c0-0.1-0.1-0.1-0.1-0.2
			c0-0.1,0-0.2,0.1-0.4c0.1-0.2,0.1-0.3,0.1-0.4c0-0.2-0.3-0.3-0.8-0.5c-0.6-0.2-0.9-0.3-1-0.4L389,46.1v9.2c0,3.1,0.2,5.6,0.6,7.6
			c0.4,1.9,1.6,4.4,3.7,7.4h-8.2c0.3-1.4,0.5-2.8,0.7-4.3l0.1-0.6c0.2-1.8,0.3-3.1,0.3-3.9v-9.2l0.7-1.5l-0.7-0.2v-7.1
			c-0.4-0.4-0.9-1-1.6-1.7c-0.8-0.8-1.9-1.5-3.3-2.3h8.8l8.5,10.6c0.1,0.1,0.3,0.6,0.5,1.4c0.2,0.8,0.4,1.3,0.5,1.5l1-0.6l7.9,9.8
			v-15c-1-2.3-2.3-4.4-3.9-6l-1.8-2.1l1.8,0c1,0.3,2.2,0.4,3.5,0.4c0.2,0,0.4,0,0.7,0c0.4,0,0.6,0,0.8,0
			C410.2,39.4,410.9,39.2,411.8,38.8z"/>
		<path class="st3" d="M445.6,59l-0.9,5.2c-0.3,0.6-0.6,1.1-0.9,1.5c-0.8,1.1-1.7,1.9-2.8,2.5c-2.7,1.3-5.6,2-8.6,2
			c-2.5,0-4.8-0.4-6.8-1.2c0.1-0.6,0.2-1,0.3-1c-0.1,0-0.1,0-0.2,0c-0.6,0.1-1.3,0.2-2,0.2c-0.9-0.5-1.8-1-2.6-1.7
			c-3.5-2.6-5.3-6.5-5.3-11.5c0-4.6,1.4-8.4,4.3-11.4c0.7-0.8,1.5-1.4,2.4-2c0.1-0.1,0.2,0.2,0.2,0.8c0.1,0.6,0.2,0.8,0.2,0.8
			c0.2-0.8,0.5-1.6,1-2.5c2.6-1.3,5-2,7.4-2c3.1,0,5.5,0.2,7.4,0.5c0.9,0.3,2.2,0.7,3.9,1.1c0.2-0.3,0.9-1,2.2-2v6.7l0.1,8.4h-1.7
			c-1.6-1.2-3.4-1.8-5.3-1.8h-16.2c-0.2,0.7-0.9,1.7-2.2,3c0,0,0.2,0.2,0.6,0.4c0.3,0.2,0.5,0.4,0.5,0.5c0,1.5,0.4,2.9,1.1,4.3
			c0.6,1.1,1.6,2.3,2.9,3.7c2.4,2.5,5.3,3.7,8.8,3.7c1.4,0,3.2-0.5,5.6-1.6c1.1-0.5,1.9-0.9,2.3-1.3c0.3-0.3,1.1-1.1,2.3-2.4
			c0.6-0.5,1.1-1.2,1.6-1.9C445.3,59.6,445.4,59.3,445.6,59z M441.9,46.2c-1-1-1.5-1.6-1.5-1.6c-0.7-0.7-1.3-1.1-1.8-1.3
			c-1.9-0.8-3.7-1.2-5.6-1.2c-1.9,0-4,0.7-6.3,2.1c-2.1,1.4-3.8,2.9-5,4.7l16,0.2c0.6,0,1.3-0.3,2.1-1.1
			C441.1,46.9,441.8,46.3,441.9,46.2z"/>
	</g>
	<path class="st3" d="M348.9,50.4c-0.4-1.3-1.3-2.8-2.7-4.4c-1.2-1.4-2.8-2.6-4.7-3.4c-2.1-0.9-4.4-1.4-6.7-1.4
		c-0.8-0.1-2.3,0.3-4.6,1l-0.1,0l-1.4,0.8c-0.1,0.1-0.2,0.1-0.3,0.2c0,0,0,0-0.1,0c0,0-0.1,0.1-0.1,0.1c-0.8,0.6-2,1.9-2.7,4.8
		c-1.1,4.5,2.1,6,3.4,6.2c1.4,0.2,3-0.3,3.6-1.3c0.6-1-0.2-2.2-0.9-1.9c-0.7,0.3-0.3,0.4-0.3,0.4s0.6,0.2,0.3,0.4
		c-0.3,0.2-1.7,1.3-2.6-0.3c-0.6-1,0.2-2.9,1.3-4.3c0.8-0.7,1.4-1.3,1.8-1.4c0.5-0.2,1.1-0.4,1.7-0.4c0.2,0,0.6,0,1.2,0.1
		c0.6,0,1,0.1,1.3,0.1c0.1,0,0.2,0,0.3,0c0.2,0,0.5-0.1,0.8-0.4c0.2-0.2,0.5-0.1,0.8,0.1c2.3,2,3.8,3.9,4.5,5.7
		c0.4,1.2,0.6,2.5,0.6,3.7c0,1.8-0.3,3.4-0.8,4.6c-0.4,1-1.2,2.2-2.3,3.6c-2.1,2.4-4.7,3.7-7.8,3.7c-3.5,0-6.3-1.2-8.4-3.6
		c-0.9-1-1.6-2.2-2.1-3.4c-0.1-0.2-0.3-0.3-0.6-0.4c-0.3-0.1-0.5-0.3-0.5-0.5c0.1-0.5,0.2-1.1,0.3-1.9c-0.2-1-0.3-2.2-0.3-3.4
		c0-4.4,1.1-7.6,3.4-9.7c2.7-2.4,5.1-3.6,7.2-3.6c0,0,0.2-0.1,0.8-0.2c0.5-0.1,1.6-0.2,3.2-0.3c1.4,0,4.9,0.9,10.7,2.6l-6.3-3.9
		c-3.6-1-6.4-1.5-8.4-1.4c-2,0.1-3.9,0.5-5.5,1c-0.2,0.3-0.4,0.7-0.7,1c-0.2,0.1-0.3,0.1-0.3,0.1c-0.2-0.1-0.5-0.3-0.7-0.4
		c-1.7,0.8-3.2,1.9-4.7,3.4c-3.4,3.3-5.1,7.2-5.1,11.6c0,2.2,0.6,4.4,1.9,6.8c1.4,2.6,3.4,4.8,6,6.6c2.8,2,6.4,2.9,10.8,2.9
		c4.7,0,8.6-1.8,11.7-5.3c1.3-1.6,2.3-2.8,2.9-3.8c0.1-0.1,0-0.4-0.1-0.8c-0.2-0.4-0.2-0.7-0.2-0.8c0.1-0.1,0.3-0.3,0.7-0.4
		c0.4-0.1,0.6-0.2,0.7-0.4c0.3-1.1,0.5-2.3,0.5-3.6C349.4,53.1,349.2,51.5,348.9,50.4z"/>
	<path class="st3" d="M310.9,50.6c-0.6-1.6-0.9-2.4-0.9-2.4c-0.1-0.3,0.1-0.4,0.4-0.5c0.3-0.1,0.5-0.2,0.5-0.3
		c0-0.4-0.9-1.6-2.6-3.8c-2.3-2.9-5.3-4.4-8.9-4.4c-2.9,0-5,0.4-6.3,1.3c-1.3,0.9-2.2,1.7-2.8,2.7c-0.6,0.9-0.8,2-0.8,3.3
		c0,0.6,0.1,1.2,0.2,1.9c0.1,0.7,0.7,1.5,1.7,2.4c0.4,0.4,1,0.8,1.6,1.2l-1-2.9l0.2-3.6c1-1.3,1.7-2.2,2.1-2.5c0.8-0.7,1.7-1,2.9-1
		c2.6,0,4.8,1.4,6.5,4.3c1.4,2.4,2.1,5,2.1,7.8c0,3.5-0.8,6.6-2.4,9.3c-1.9,3.2-4.5,4.7-7.8,4.7c-2.1,0-4.3-1.2-6.7-3.6
		c-0.6-0.5-1.2-1.1-1.9-1.6c-0.8-0.7-1.1-1.2-1.1-1.6c0-0.1,0.2-0.3,0.5-0.5c0.3-0.2,0.5-0.4,0.4-0.6c-0.3-0.7-0.6-1.3-0.9-2
		c-0.4-0.9-0.5-1.6-0.5-2.1c-0.1-2.2,0.3-4.5,1.2-6.8c0.6-1.6,1.4-3.1,2.5-4.8c0.8-1.2,1.1-1.8,1.1-1.8c0,0-0.1,0-0.2,0.1
		c0.7-1.8,1.8-3.6,3.2-5.4c1.5-2,2.5-3.4,2.9-4.3c0.8-1.6,1.2-3.3,1.3-5.1c0,0,0-0.1,0.1-0.1c0.1-0.5-0.1-4.1-0.4-4.6
		c-0.4-0.6-0.4,0.9-0.8,1.9c-0.2,0.3-0.4,0.6-0.7,0.8c-0.3,0.1-0.5,0.3-0.8,0.4c-0.1,0-0.2,0.1-0.3,0.1c-0.2,0.1-0.3,0.2-0.3,0.3
		c0,0.1,0,0.1,0.1,0.2c0.1,0.1,0.1,0.1,0.1,0.2c0,0.1-0.1,0.1-0.2,0.2c-0.5,0.2-1.1,0.3-1.8,0.4c-1,0-2.2-0.2-3.5-0.9
		c-2.6-1.4-11.9-6.1-12.8-10.6c-0.8-3.7-0.4-4.3-0.3-4.4c-0.2,0.1-2.4,1.4-2.3,3.6c0.2,2.3,1.2,6.3,5.6,8.2c4.4,1.8,2.7,2.2,2,3.1
		c-0.7,0.9-3.3,1-1.7,4.1c1.6,3.1,5.9,2,5.6,1.6c-0.3-0.4-1.7-1.4-1.1-2.4c0.2-0.3,0.8-0.3,1.3-0.2c3.2,1.3,4.9,3.2,4.9,5.6
		c0,1.1-1.1,2.9-3.4,5.2c-2.4,2.4-4.2,4.6-5.4,6.4c-0.8,1.3-1.5,2.6-1.8,4.1c-0.1,0.2,0,0.5,0.2,0.8c0.2,0.3,0.3,0.6,0.3,0.8
		c0,0.2-0.1,0.5-0.2,0.8c-0.2,0.2-0.8,1.2-0.7,6.4c0.1,6.5,1.2,6.2,0.3,8.3c-1,2.1-0.2,2.6,0,2.4c0.2-0.1,0.7-3.4,4.1-2.3
		c3.3,1.1,10.7,3.6,16.7,1.6c0.4-0.1,0.7-0.2,1-0.4c2.2-0.8,4.3-2.1,6-4c3.2-3.3,4.7-7.4,4.7-12.2C311.5,52.6,311.3,51.7,310.9,50.6
		z"/>
	<g>
		<path class="st3" d="M303.4,96.1c0,1.1-0.1,2.1-0.3,3.1c-0.4,1.8-0.9,3.2-1.6,4.4c-0.7,1.1-1.7,2.3-3,3.4c-1.6,1.4-4,2.1-7,2.1
			c-0.7,0-1.4-0.2-2.2-0.5c-0.8-0.3-1.5-0.7-1.9-1.2c-0.4-0.4-0.9-0.8-1.3-1.2c-0.5-0.5-1-1.4-1.6-2.7c1.1,0.8,2.3,1.7,3.8,2.6
			c0.4,0.2,1,0.3,1.8,0.5c0.9,0.2,1.5,0.3,1.9,0.3c1.1,0,1.9-0.1,2.6-0.4c0.9-0.4,1.8-1.1,2.7-2.2c0.9-1.1,1.5-2.3,1.8-3.5
			c0.2-1,0.3-2.4,0.3-4.4c0-1.3-0.4-2.8-1.1-4.4c-0.7-1.5-1.5-2.8-2.5-3.9c-2.3-2.6-4.6-3.9-6.9-4c-1.5-0.1-2.8,0.1-3.9,0.7
			c-0.5,0.3-1.3,0.8-2.3,1.7c1,1.9,1.6,3.6,1.7,5.2c0.1,1,0.2,2,0.2,3.2c0,2.1-0.2,4-0.6,5.7c0,0.2-0.5,1.7-1.3,4.6
			c0.5,0.5,1.3,1.7,2.6,3.6h-8.5c1-2.2,1.8-4.4,2.4-6.8c0-0.2,0.3-0.6,0.6-1.3c0.4-0.7,0.6-1.1,0.6-1.3c0-0.2-0.1-0.3-0.3-0.4
			c-0.2-0.1-0.3-0.2-0.3-0.4c0.2-1.2,0.2-2.4,0.2-3.5c0-2.5-0.6-5.1-1.9-7.7c-1.2-2.4-2.8-3.6-5-3.6c-0.8,0-2,0.4-3.6,1.3
			c-1.5,0.8-2.2,1.7-2.2,2.7v13.4c0,1.9,0.3,3.3,1,4.3c0.2,0.2,0.6,0.7,1.1,1.4c0.5,0.7,1,1.3,1.6,1.8h-8.5c0.5-4,0.8-7.8,0.8-11.2
			c0-1.6,0-3.2,0-4.8c0-0.2,0.1-0.4,0.4-0.6c0.3-0.2,0.4-0.4,0.4-0.6c0-0.2-0.2-0.3-0.5-0.4c-0.3-0.1-0.5-0.2-0.5-0.4
			c-0.1-2.2-0.2-4.4-0.3-6.7l-3.8-2.7l8.5,0.1v1.9c0.5-0.2,1.1-0.5,1.9-0.9c1.5-0.8,3.1-1.1,4.7-1.1c2.3,0,4.6,0.9,6.7,2.8
			c0.2-0.1,0.8-0.4,1.7-0.9c0.4-0.2,1-0.5,1.6-0.9c0.3-0.2,1-0.5,1.9-0.9c0.6-0.2,1.8-0.4,3.3-0.5c0.3,0,0.6,0,0.9,0
			c1.9,0,3.8,0.5,5.8,1.6c1.9,1,3.3,2.1,4.2,3.5c0.4,0.5,0.9,1.4,1.6,2.5c0,0.1-0.1,0.2-0.4,0.4c-0.3,0.1-0.5,0.3-0.4,0.4
			c0,0.1,0.3,0.3,0.8,0.5c0.5,0.3,0.7,0.4,0.8,0.5C303.1,91.5,303.4,93.5,303.4,96.1z"/>
		<path class="st3" d="M314,108.6h-4.5c0-0.5,0.1-1.3,0.2-2.4c0.1-1.1,0.2-2.1,0.4-3.2v-4l0.6-0.8l-0.6-0.8V86.2
			c0-0.9-0.2-1.6-0.6-2.1c-0.5-0.5-2-1.5-4.5-2.9h9.1v8.6l-0.8,1.3l0.8,0.3V108.6z"/>
		<path class="st3" d="M342.4,80.9l-1.1,3.9c-0.1,0.2,0,0.3,0.2,0.4c0.2,0,0.3,0.2,0.3,0.4v24.8l-4.4-5c0,0-0.1-0.1-0.1-0.2
			c0-0.1,0-0.2,0.1-0.4c0-0.2,0.1-0.3,0.1-0.4c0-0.2-0.2-0.3-0.7-0.4c-0.5-0.2-0.8-0.3-0.9-0.4l-13.9-16.1v8.2c0,2.8,0.2,5,0.5,6.7
			c0.3,1.7,1.4,3.9,3.3,6.6h-7.3c0.3-1.2,0.5-2.5,0.6-3.9l0.1-0.5c0.2-1.6,0.3-2.8,0.3-3.5v-8.2l0.6-1.3l-0.6-0.1v-6.3
			c-0.4-0.4-0.8-0.9-1.4-1.5c-0.7-0.7-1.7-1.4-2.9-2.1h7.8l7.6,9.4c0.1,0.1,0.2,0.5,0.4,1.3c0.2,0.8,0.3,1.2,0.4,1.3l0.9-0.5
			l7.1,8.7V88.2c-0.9-2.1-2-3.9-3.5-5.4l-1.6-1.8l1.6,0c0.9,0.2,1.9,0.3,3.1,0.3c0.1,0,0.4,0,0.6,0c0.3,0,0.5,0,0.7,0
			C340.9,81.3,341.5,81.2,342.4,80.9z"/>
		<path class="st3" d="M367.9,101c0,2-1,3.9-2.9,5.6c-0.7,0.6-1.5,1.1-2.5,1.5c-0.1,0.1-0.3,0-0.6-0.3c-0.3-0.3-0.5-0.4-0.6-0.4
			c-0.1,0-0.3,0.3-0.5,0.7s-0.4,0.7-0.6,0.7c-1.2,0.2-2.5,0.3-4,0.3c-3,0-5.7-0.6-8-1.7c-2.9-1.4-4.4-3.4-4.4-6.2
			c0-0.6,1-1.5,3.1-2.7c1.7-0.9,3.1-1.5,4.2-1.7c-0.3,0.5-0.6,1.1-1.1,2.1c-0.5,0.9-0.7,1.7-0.7,2.3c0,1.8,0.7,3.3,2,4.3
			c1.4,1,3.2,1.5,5.5,1.5c1.3,0,2.6-0.5,4-1.5c1.4-1.1,2.1-2.3,2.1-3.6c0-2.5-1.5-4.3-4.5-5.3c-1.8-0.5-4.5-1.4-8.2-2.5
			c-0.9-0.4-1.7-0.9-2.4-1.5c0,0,0-0.1,0-0.1c0-0.1,0.1-0.2,0.4-0.5c0.3-0.2,0.4-0.4,0.3-0.5c-0.1-0.2-0.4-0.3-1-0.4
			c-0.5-0.1-0.8-0.2-0.9-0.4c-0.5-0.6-0.8-1.7-0.8-3.3c0-2.3,1.4-4.1,4.1-5.5c2.2-1.1,4.6-1.6,7.2-1.6c2.2,0,4,0.4,5.4,1.1
			c0,0,0.1,0.1,0.1,0.1c0,0.1-0.1,0.2-0.2,0.4s-0.2,0.3-0.2,0.4c0,0,0,0.1,0.1,0.1c0.4-0.1,0.8-0.2,1.3-0.3c1.7,1.2,2.8,3,3.3,5.5
			c-1.5,0.3-2.8,0.9-3.8,1.9c-0.9,0.9-1.8,1.5-2.8,1.7c0.3-0.7,0.5-1.3,0.8-1.9c0.4-0.8,0.5-1.6,0.5-2.1c0-1.2-0.6-2.3-1.9-3.3
			c-1.3-1-2.5-1.5-3.8-1.5c-1.3,0-2.5,0.5-3.7,1.5c-1.1,1-1.7,2.1-1.7,3.3c0,2.9,1.5,4.8,4.4,5.9c2.8,0.7,5.5,1.4,8.2,2.1
			C366.5,96.5,367.9,98.3,367.9,101z"/>
		<path class="st3" d="M395.1,81.6l-0.9,2.9c-0.5,0-1.7-0.1-3.5-0.2c-2-0.1-4.3-0.1-6.7-0.1c-0.6,0-1.4,0.6-2.3,1.7
			c-0.9,1.2-1.5,1.9-1.7,2.1c-0.5,0.7-0.8,1.7-1.1,2.8c-0.5,2-0.8,4.1-0.8,6.3c0,3.2,0.9,5.6,2.7,7.4c0.9,0.9,1.7,1.5,2.6,1.8
			c0.9,0.3,2.1,0.4,3.7,0.4c0.5,0,1.6-0.4,3.2-1.1c2.1-0.9,3.7-1.9,4.6-3l-0.8,2c-1.1,0.9-2.2,1.9-3.3,2.8c-1.7,1.2-3.8,1.8-6.2,1.9
			c-3.2,0.1-5.9-1-8.2-3.2c-0.9-0.9-1.7-1.8-2.3-2.8c-0.1-0.1,0.1-0.3,0.4-0.6c0.3-0.3,0.5-0.4,0.4-0.6c-0.1-0.2-0.3-0.3-0.8-0.4
			c-0.5-0.1-0.8-0.2-0.8-0.4c-0.2-0.6-0.2-1.7-0.2-3.3c0-2.8,0.7-5.4,2.1-7.9c0.4-0.8,1.1-1.7,2.1-2.6c2.2-2,3.3-3.1,3.5-3.3
			L367,84.2c1-0.7,2.6-2.1,4.9-4.2c1.6,1.5,4.3,2.5,8.3,2.9l8.5-0.4l0.4,0.5l2.4-1.3L395.1,81.6z"/>
		<path class="st3" d="M422.7,99l-0.8,4.6c-0.2,0.5-0.5,1-0.8,1.4c-0.7,1-1.5,1.7-2.5,2.2c-2.4,1.2-5,1.7-7.7,1.7
			c-2.3,0-4.3-0.4-6-1.1c0.1-0.6,0.2-0.9,0.3-0.9c-0.1,0-0.1,0-0.2,0c-0.5,0.1-1.1,0.1-1.8,0.1c-0.8-0.4-1.6-0.9-2.3-1.5
			c-3.1-2.3-4.7-5.8-4.7-10.2c0-4.1,1.3-7.4,3.8-10.1c0.7-0.7,1.4-1.3,2.1-1.8c0.1,0,0.1,0.2,0.2,0.7c0.1,0.5,0.1,0.8,0.2,0.7
			c0.2-0.7,0.5-1.4,0.9-2.2c2.3-1.2,4.5-1.7,6.6-1.7c2.7,0,4.9,0.2,6.6,0.5c0.8,0.3,1.9,0.6,3.5,1c0.1-0.3,0.8-0.9,1.9-1.8v6
			l0.1,7.5h-1.5c-1.5-1.1-3-1.6-4.7-1.6h-14.5c-0.2,0.6-0.8,1.5-1.9,2.7c0,0,0.2,0.1,0.5,0.3c0.3,0.2,0.5,0.3,0.5,0.4
			c0,1.3,0.3,2.6,1,3.8c0.5,1,1.4,2.1,2.6,3.3c2.1,2.2,4.7,3.3,7.8,3.3c1.2,0,2.9-0.5,5-1.4c1-0.4,1.7-0.8,2-1.1
			c0.2-0.2,0.9-0.9,2.1-2.2c0.5-0.5,1-1.1,1.4-1.7C422.4,99.5,422.6,99.2,422.7,99z M419.5,87.6c-0.9-0.9-1.3-1.4-1.4-1.5
			c-0.6-0.6-1.1-1-1.6-1.2c-1.7-0.7-3.3-1.1-4.9-1.1c-1.7,0-3.6,0.6-5.6,1.9c-1.9,1.2-3.4,2.6-4.4,4.2l14.3,0.2c0.5,0,1.1-0.3,1.9-1
			C418.7,88.2,419.3,87.6,419.5,87.6z"/>
		<path class="st3" d="M451.1,108.6c-0.5,0.1-0.9,0.1-1.4,0.1c-0.7,0-1-0.1-0.8-0.1c-1.1,0-2-0.2-2.5-0.6c-0.1-0.1-0.2-0.1-0.3-0.1
			c-0.2,0-0.4,0.1-0.7,0.4c-0.3,0.3-0.6,0.4-0.8,0.5c-0.5-0.1-1.1-0.4-2-1c-1-0.7-2-1.6-2.9-2.6c-2.2-2.5-3.6-4.1-4.3-4.8
			c-1.2-1.3-2.2-2.2-3-2.7v11.2l-1.2-1l-1.5,1h-1.8V93.1l0.9-2.5l-0.9-0.6v-2.9c0-1.6-0.1-2.6-0.4-3c-0.2-0.3-0.4-0.6-0.6-1
			c-0.6-0.6-1.5-1.2-2.8-1.8h2.4c-0.1,0,0.7,0,2.2-0.1c0.7,0,1.3,0,1.6,0.2c0.4,0.4,0.9,0.8,1.5,1.4c2.2-1.4,4.3-2.1,6.4-2h0.2
			c1.8,0,3.2,0.5,4.4,1.4c1.3,1,1.9,2.4,1.9,4.1c0,0.4,0,0.8-0.1,1.2c0,0.1-0.2,0.2-0.4,0.2c-0.3,0-0.4,0.1-0.4,0.2
			c0,0.1,0,0.4,0.1,0.8s0.2,0.7,0.2,0.9c0,0.1,0,0.2,0,0.2c-0.9,2.2-3.5,4.2-7.8,6c1.4,0.8,2.9,2.1,4.6,3.9c1.3,1.5,2.7,3,4,4.5
			c0.9,0.9,1.5,1.5,1.7,1.7c0.5,0.5,1.3,1,2.3,1.5L451.1,108.6z M439.9,87.5c0-1.2-0.3-2-0.9-2.6c-0.6-0.6-1.2-0.9-1.7-0.9
			c-1.1,0-2.6,0.6-4.4,1.8l-0.2,0.1v7.7c2.2-0.8,3.9-1.6,5.2-2.5C439.2,90.2,439.9,89,439.9,87.5z"/>
	</g>
	<path class="st3" d="M742.1,98.7c0,2.5-0.6,4.6-1.9,6.4c-1.4,2.1-4.4,2.6-5.9,1.9c-0.8-0.4-1.6-0.9-2.3-1.5
		c-0.8-0.6-1.4-1.3-2.2-1.9c-0.2-0.2-0.5-0.3-0.8-0.3c-0.6,0.1-0.8,0.7-0.5,1.3c0.3,0.5,0.6,0.9,0.9,1.4c2.1,3.4-0.4,7.1-4,7.5
		c-2.1,0.2-4-0.1-5.8-1.3c-1.3-0.8-2.3-1.9-2.8-3.3c-0.4-1-0.3-2,0.1-3c0.5-1.1,1.1-2.1,2-2.9c0.3-0.3,0.6-0.5,0.8-0.9
		c0.3-0.5,0.1-1-0.5-0.9c-0.4,0-0.8,0.1-1.3,0.1c-0.8,0.1-1.5,0.2-2.3,0.2c-2.1,0-3.8-1.4-4.3-3.5c-0.6-2.5-0.1-4.8,1.1-7
		c1-1.8,3.6-2.8,5.7-1.4c0.9,0.6,1.8,1.4,2.7,2.2c0.2,0.2,0.4,0.4,0.7,0.6c0.5,0.3,1,0.1,1-0.5c0-0.5-0.1-1-0.2-1.5
		c-0.2-0.8-0.4-1.6-0.7-2.3c-0.6-1.7,0.2-2.9,1.3-3.9c0.7-0.6,1.5-0.9,2.4-1.1c3.3-0.5,6,0.7,8.2,3c1,1.1,1.5,2.4,1.1,3.9
		c-0.2,0.6-0.4,1.1-0.9,1.5c-0.7,0.6-1.3,1.2-2,1.7c-0.3,0.2-0.6,0.4-0.4,0.8c0.2,0.4,0.6,0.6,1,0.5c0.7-0.2,1.4-0.5,2-0.7
		c1.1-0.4,2.1-0.8,3.3-0.8c1.8,0.1,2.9,1,3.6,2.5C742,96.6,742.2,97.8,742.1,98.7z M732.1,88.2c-0.3,0.3-0.6,0.6-0.8,0.9
		c-0.7,1-1.3,2.1-2,3.1c-0.1,0.2-0.4,0.4-0.7,0.7c-0.2-1-0.1-1.7,0.1-2.5c0.2-1.1,0.4-2.2,0.4-3.3c0-0.2-0.1-0.4-0.2-0.7
		c-0.3,0.5-0.4,0.8-0.5,1.1c-0.3,1-0.6,2-0.9,3c-0.2,0.5-0.3,1-0.9,1.3c-0.4-0.5-0.6-0.9-0.7-1.5c-0.2-1.2-0.3-2.3-0.5-3.5
		c0-0.2-0.1-0.3-0.4-0.7c-0.1,0.5-0.1,0.8-0.1,1c0,1.1,0.1,2.1,0.1,3.2c0,0.6,0,1.3-0.1,1.9c-0.1,1-0.8,1.9-2.2,1.8
		c-0.4-0.1-0.8-0.1-1.2-0.3c-0.9-0.4-1.7-1-2.5-1.5c-0.2-0.1-0.5-0.5-0.8-0.1c-0.1,0.2,0,0.6,0.1,0.8c0.1,0.3,0.4,0.5,0.6,0.8
		c0.2,0.2,0.4,0.4,0.6,0.7c0.2,0.4,0,0.7-0.4,0.7c-0.5-0.1-1.1-0.2-1.6-0.4c-0.7-0.2-1.4-0.5-2.1-0.8c-0.2-0.1-0.4,0-0.7,0
		c0.6,0.7,1.2,1,1.9,1.3c0.7,0.3,1.4,0.7,2,1c0.1,0.1,0.2,0.3,0.2,0.4c0,0.1-0.2,0.2-0.3,0.2c-0.5,0.1-1,0.1-1.5,0.1
		c-0.8,0.1-1.6,0-2.5,0.5c1.1,0.2,1.9,0.4,2.8,0.5c0.6,0.1,1.3,0.2,1.9,0.3c0.1,0,0.3,0.2,0.3,0.3c0,0.1-0.1,0.3-0.2,0.4
		c-0.5,0.2-1,0.4-1.5,0.5c-0.4,0.1-0.7,0.2-0.8,0.8c0.8-0.1,1.6-0.1,2.3-0.2c0.3,0,0.6-0.1,0.9-0.1c1.1,0,1.7,0.7,1.4,1.7
		c-0.1,0.4-0.3,0.9-0.5,1.3c-0.3,0.6-0.7,1.2-1.1,1.7c-0.3,0.4-0.5,0.9-0.8,1.3c-0.1,0.2-0.1,0.4-0.1,0.6c0.2-0.1,0.4,0,0.5-0.1
		c0.3-0.2,0.5-0.4,0.8-0.7c0.7-0.8,1.5-1.5,2.2-2.3c0.2-0.2,0.4-0.2,0.7-0.3c0,0.3,0.1,0.5,0.1,0.7c-0.1,1.1-0.2,2.3-0.4,3.4
		c-0.1,0.6-0.2,1.3,0,2.1c0.8-0.6,1-1.4,1.4-2.1c0.3-0.8,0.6-1.6,1-2.3c0.1-0.2,0.3-0.3,0.5-0.6c0.4,1.4,0.7,2.7,1.1,4.1
		c0.1-0.2,0.2-0.3,0.2-0.4c0.1-0.8,0.2-1.6,0.2-2.4c0-0.8,0-1.6,0.1-2.4c0.2-1.3,1.2-2,2.5-1.6c0.4,0.1,0.8,0.3,1.2,0.5
		c0.9,0.6,1.9,1.2,2.8,1.8c0.8,0.6,1,0.7,2,0.9c-0.3-0.3-0.5-0.5-0.7-0.7c-0.8-0.7-1.7-1.4-2.5-2.2c-0.6-0.5-1.2-1.1-1.5-1.9
		c1.8,0,3.3,1,5,1.2c-0.2-0.6-0.6-0.7-1-0.9c-0.9-0.5-1.7-0.9-2.6-1.3c-0.4-0.2-0.8-0.4-0.8-0.9c0.2-0.1,0.3-0.1,0.5-0.2
		c1.1-0.4,2.3-0.4,3.5-0.4c0.8,0,0.8,0,1.5-0.5c-1.1-0.2-2.1-0.3-3.1-0.5c-0.8-0.1-1.7-0.3-2.5-0.5c-1.3-0.4-1.7-1.5-1.4-2.7
		c0.1-0.4,0.3-0.8,0.4-1.2c0.4-0.8,0.8-1.7,1.2-2.5C731.9,89,732,88.6,732.1,88.2C732.1,88.1,732.2,88.1,732.1,88.2
		C732.2,88.1,732.1,88.1,732.1,88.2z"/>
	<path class="st3" d="M725.2,94.4c-1.8,0.2-3,0.9-3.1,3.3c-0.1,1.9,1.7,3.1,3.2,3c1.8,0,3.3-1.5,3.2-3.4
		C728.5,95.8,726.8,94.2,725.2,94.4z M725.4,98.4C725.4,98.4,725.4,98.4,725.4,98.4C725.3,98.4,725.3,98.4,725.4,98.4
		c-0.1,0-0.1,0-0.2,0c-0.5,0-0.8-0.4-0.8-0.8c0-0.5,0.4-0.8,0.8-0.8c0.5,0,0.8,0.4,0.8,0.8C726.1,98,725.8,98.3,725.4,98.4z"/>
	<path class="st3" d="M303.4,11.3c0,1.8-0.4,3.2-1.3,4.5c-1,1.5-3.1,1.8-4.1,1.3c-0.6-0.3-1.1-0.7-1.6-1.1c-0.5-0.4-1-0.9-1.5-1.3
		c-0.1-0.1-0.4-0.2-0.6-0.2c-0.4,0.1-0.6,0.5-0.4,0.9c0.2,0.3,0.4,0.7,0.6,1c1.5,2.4-0.3,5-2.8,5.2c-1.5,0.1-2.8-0.1-4.1-0.9
		c-0.9-0.6-1.6-1.3-2-2.3c-0.3-0.7-0.2-1.4,0.1-2.1c0.3-0.8,0.8-1.5,1.4-2.1c0.2-0.2,0.4-0.4,0.5-0.6c0.2-0.3,0-0.7-0.4-0.7
		c-0.3,0-0.6,0.1-0.9,0.1c-0.5,0.1-1.1,0.1-1.6,0.1c-1.5,0-2.7-1-3-2.4c-0.4-1.7-0.1-3.3,0.8-4.9c0.7-1.2,2.6-2,4-1
		c0.7,0.5,1.2,1,1.9,1.5c0.2,0.1,0.3,0.3,0.5,0.4c0.3,0.2,0.7,0,0.7-0.3c0-0.3,0-0.7-0.1-1c-0.1-0.5-0.3-1.1-0.5-1.6
		c-0.4-1.2,0.1-2,0.9-2.8c0.5-0.4,1-0.6,1.7-0.7c2.3-0.3,4.2,0.5,5.8,2.1c0.7,0.7,1,1.7,0.7,2.7c-0.1,0.4-0.3,0.8-0.6,1.1
		c-0.5,0.4-0.9,0.8-1.4,1.2c-0.2,0.2-0.4,0.3-0.3,0.6c0.1,0.3,0.4,0.5,0.7,0.4c0.5-0.2,0.9-0.3,1.4-0.5c0.8-0.3,1.5-0.6,2.3-0.5
		c1.2,0.1,2.1,0.7,2.6,1.8C303.3,9.8,303.4,10.6,303.4,11.3z M296.4,3.9c-0.2,0.2-0.4,0.4-0.6,0.6c-0.5,0.7-0.9,1.5-1.4,2.2
		c-0.1,0.2-0.3,0.3-0.5,0.5c-0.1-0.7-0.1-1.2,0.1-1.8c0.2-0.8,0.3-1.5,0.2-2.3c0-0.1-0.1-0.2-0.2-0.5c-0.2,0.3-0.3,0.5-0.4,0.8
		c-0.2,0.7-0.4,1.4-0.7,2.1c-0.1,0.4-0.2,0.7-0.6,0.9c-0.3-0.3-0.4-0.7-0.5-1.1c-0.1-0.8-0.2-1.6-0.4-2.5c0-0.1-0.1-0.2-0.2-0.5
		c-0.1,0.4-0.1,0.5-0.1,0.7c0,0.7,0,1.5,0,2.2c0,0.4,0,0.9,0,1.3c-0.1,0.7-0.6,1.4-1.5,1.2c-0.3,0-0.6-0.1-0.8-0.2
		c-0.6-0.3-1.2-0.7-1.8-1c-0.2-0.1-0.4-0.3-0.5-0.1c-0.1,0.1,0,0.4,0.1,0.6c0.1,0.2,0.3,0.4,0.4,0.6c0.1,0.2,0.3,0.3,0.4,0.5
		c0.2,0.3,0,0.5-0.3,0.5c-0.4-0.1-0.7-0.2-1.1-0.3c-0.5-0.2-1-0.4-1.5-0.5c-0.1,0-0.2,0-0.5,0c0.4,0.5,0.9,0.7,1.3,0.9
		c0.5,0.2,1,0.5,1.4,0.7c0.1,0,0.1,0.2,0.1,0.3c0,0.1-0.1,0.2-0.2,0.2c-0.4,0-0.7,0.1-1.1,0.1c-0.5,0-1.1,0-1.8,0.3
		c0.7,0.1,1.3,0.2,2,0.4c0.4,0.1,0.9,0.1,1.3,0.2c0.1,0,0.2,0.1,0.2,0.2c0,0.1-0.1,0.2-0.2,0.3c-0.4,0.1-0.7,0.3-1.1,0.4
		c-0.2,0.1-0.5,0.1-0.6,0.5c0.6,0,1.1-0.1,1.6-0.1c0.2,0,0.4-0.1,0.6-0.1c0.8,0,1.2,0.5,1,1.2c-0.1,0.3-0.2,0.6-0.4,0.9
		c-0.2,0.4-0.5,0.8-0.7,1.2c-0.2,0.3-0.4,0.6-0.5,0.9c-0.1,0.1,0,0.2-0.1,0.4c0.2,0,0.3,0,0.3-0.1c0.2-0.1,0.4-0.3,0.5-0.5
		c0.5-0.5,1-1.1,1.6-1.6c0.1-0.1,0.3-0.1,0.5-0.2c0,0.2,0.1,0.4,0.1,0.5c-0.1,0.8-0.2,1.6-0.3,2.4c-0.1,0.5-0.2,0.9,0,1.4
		c0.6-0.4,0.7-1,1-1.5c0.2-0.5,0.4-1.1,0.7-1.6c0.1-0.1,0.2-0.2,0.4-0.4c0.3,1,0.5,1.9,0.7,2.9c0.1-0.1,0.2-0.2,0.2-0.3
		c0.1-0.6,0.1-1.1,0.2-1.7c0-0.6,0-1.1,0-1.7c0.1-0.9,0.9-1.4,1.7-1.1c0.3,0.1,0.6,0.2,0.8,0.4c0.7,0.4,1.3,0.8,1.9,1.2
		c0.6,0.4,0.7,0.5,1.4,0.6c-0.2-0.2-0.3-0.4-0.5-0.5c-0.6-0.5-1.2-1-1.8-1.5c-0.4-0.4-0.8-0.8-1-1.4c1.3,0,2.3,0.7,3.5,0.8
		c-0.1-0.4-0.5-0.5-0.7-0.6c-0.6-0.3-1.2-0.6-1.8-0.9c-0.3-0.1-0.5-0.2-0.6-0.6c0.1-0.1,0.2-0.1,0.3-0.1c0.8-0.3,1.6-0.3,2.5-0.3
		c0.5,0,0.5,0,1.1-0.4c-0.8-0.1-1.5-0.2-2.2-0.3c-0.6-0.1-1.2-0.2-1.7-0.4c-0.9-0.3-1.2-1-1-1.9c0.1-0.3,0.2-0.6,0.3-0.8
		c0.3-0.6,0.6-1.2,0.8-1.8C296.3,4.5,296.3,4.2,296.4,3.9C296.4,3.9,296.4,3.9,296.4,3.9C296.4,3.9,296.4,3.9,296.4,3.9z"/>
	<path class="st3" d="M291.5,8.3c-1.2,0.1-2.1,0.6-2.1,2.3c-0.1,1.3,1.2,2.1,2.3,2.1c1.3,0,2.3-1.1,2.3-2.4
		C293.9,9.2,292.6,8.1,291.5,8.3z M291.7,11.1C291.6,11.1,291.6,11.1,291.7,11.1C291.6,11.1,291.6,11.1,291.7,11.1
		c-0.1,0-0.1,0-0.1,0c-0.3,0-0.6-0.3-0.6-0.6c0-0.3,0.3-0.6,0.6-0.6c0.3,0,0.6,0.3,0.6,0.6C292.1,10.8,291.9,11,291.7,11.1z"/>
	<path class="st3" d="M161.1,33.5c-0.4-0.1-0.8-0.1-1.1-0.3c-0.7-0.4-1.8,0.1-2.3-0.8c-2.4-4.6-6.4-5-10.7-4.5
		c-3.3,0.4-5.1,2.6-6.3,5.5c-0.5,1.3-0.9,2.5-3,2.3c-3.1-0.2-6.2,0.7-9.1,1.9c-3.4,1.4-6.9,2.9-9.3,5.8c-2.2,2.5-4.5,4.7-7.9,5.3
		c-0.5,0.1-1.4,0.3-1.4,0.9c0,0.6,1,0.2,1.4,0.6c0.1,0.1,0.2,0.1,0.4,0.3c-1.6-0.1-3,0.3-4.5,0.5c-4.3,0.6-8.5,1.1-12.8,1.9
		c-4.9,0.8-9.7,1.6-14.6,2.3c-2.5,0.4-5,0.8-7.5,1.5c-0.9,0.3-0.8,0.7-0.2,1.1c0.4,0.3,0.9,0.5,1.4,0.5c0.3,0,0.7,0.2,0.8,0.4
		c0.4,0.9,0.6,1.1,1.6,0.8c0.6-0.2,1.2-0.4,1.8-0.5c3.4-0.6,6.8-1.2,10.2-1.7c2-0.3,4-0.9,6-0.5c-0.3,0.3-0.6,0.5-0.9,0.7
		c0.3,0,0.7,0,1,0c0.4-0.1,0.8-0.2,1.2-0.2c0.1,0,0.3,0.1,0.4,0.1c-0.1,0.1-0.2,0.1-0.3,0.2c-0.2,0.1-0.5,0.2-0.7,0.4
		c-0.3,0.2-1,0.2-0.9,0.7c0.1,0.4,0.7,0.2,1,0.2c2.7,0,5.2-0.9,7.8-1.1c2.2-0.2,4.3-0.6,6.5-0.8c2.1-0.2,4.1-0.2,5.8,0.7
		c3.6,1.9,7.1,3.9,11.1,4.5c0.2,0,0.9-0.1,0.7,0.5c-0.3,1.1,0.6,1.5,1.1,2.2c1,0,0.6,1.3,0.9,1.3c0.5,0,0.9-0.9,1.6,0
		c0.4,0.5,1.5,0,1.7,1c0,0,0.1,0,0.1,0.1c0.4-1.6,1.4-0.9,2.4-0.7c0.1,0,0.3-0.4,0.6-0.3c0,0,0,0,0,0c0.8,0,1.7-0.4,2.1,0.7
		c1.5,2.2,3.4,4.1,5.5,5.6c2.3,1.7,4.9,2.6,7.8,2.2c0-0.3-0.2-0.6-0.4-0.8c-2.7-3.4-6.1-5.9-10.1-7.6c-0.4-0.1-0.9-0.2-1-0.5
		c-0.8-1.9-2.5-1.1-3.7-1c-1.4,0.1-2.4,0-3.4-1c-0.2-0.2-0.9-0.1-0.6-0.7c0.2-0.5,0.3-1.1,1.1-1.3c4.9-1.1,9.3-3,13.2-6.2
		c3.3-2.7,5.9-5.9,7.5-9.9c1.7-4.4,3.1-9,7.7-11.4C161.7,34.3,162.1,33.7,161.1,33.5z M130,64.6c-1.4-0.6-1.5-1.3-0.3-2.3
		c0,0.8,0,1.6,0.6,2.2C130.2,64.7,130.1,64.7,130,64.6z M154.9,33c-0.3,0.1-0.5-0.2-0.6-0.4c0,0,0.2-0.1,0.2-0.2
		c0.3,0,0.5,0,0.6,0.3C155.1,32.8,155,33,154.9,33z"/>
	<path class="st3" d="M241.7,97c-0.2-0.8-1-1.3-1.9-1.3c-0.6,0-0.7-0.4-1-0.9c-0.6-1.4-2-2.3-3.1-3.2c-1-0.8-2.9,0.2-3.5,1.4
		c-0.2,0.4-0.4,0.6-0.9,0.5c-0.6-0.1-1.3,0.1-1.5,0.5c-0.3,0.4-0.5,0.5-0.8,0.6c0,0,0-0.1,0-0.2c-0.2-1.3-1-1.1-1-1.1h-2.5
		c-0.1-0.4-0.1-0.9-0.1-1.6c-0.5,0.4-1.3,0.1-1.8,0.5c0.1,0.5,0.1,0.8-0.1,1.1h-4.9c0,0,0,0,0,0c-0.3-0.1-0.6-0.1-1,0h0.6
		c-2.7,0.6-7.2,1.4-10.4,2.1c0,0,0,0,0,0c0,0,0,0,0,0c0,0,0,0,0,0c-0.7,0.2-1.4,0.3-2.1,0.5c-0.5,0.1-1,0.2-1.5,0.3
		c-0.8,0.2-1.4,0.3-1.8,0.3c-0.2,0-0.3,0-0.5,0c-0.1,0-0.2-0.1-0.3-0.1c-0.1-0.1-0.3-0.2-0.4-0.3c-0.3-0.3-0.6-0.8-1-1.6
		c-0.6,0-1.1,0-1.7,0c-5.2-0.4-10.4-0.3-15.6-0.4c-1.5,1.7-2.6,1.7-4.2,0c-1.1,0-2.1-0.1-3.2-0.1c-0.6,1.7,0.2,3.1,1.3,4.3
		c0.7,0.7,0.4,1-0.3,1.3c-1.5,0.6-3.3-0.4-4.4-2.2c-0.4-0.7-0.4-1.7-1-2.3c-0.6,0.6-1.2,1.3-1.7,1.9c-2,2.3-4.5,3.8-7.5,3.8
		c-2.9,0-5.6-0.8-7.7-3.1c-0.2-0.2-0.5-0.5-0.4-0.6c0.2-0.3,0.5-0.1,0.8,0c3.6,0.4,7.1,0,10.3-2c0.5-0.3,1-0.6,1-1.3
		c-1.3-0.1-2.5-0.1-3.2-0.1c-1.9,0-2.6-0.1-4.5-0.2c-1.1,0.1-1.6-0.3-1.5-1.4c-1.5,1-3,2-4.8,0.8c-0.4-0.3-0.8-0.5-0.9-1
		c0-0.5,0.6-0.5,0.9-0.7c1.8-1.1,2.6-2.8,3.1-4.7c0.1-0.5,0.2-1.1,0.6-1.5c0,0,0,0,0,0c0-1.4-0.4-2.7-1.1-3.9
		c-2.1,0.8-4.4,1.2-6.5,2.1c-1.9,0.8-3.7,1.7-4.4,3.8c-0.2,0.6-0.5,0.4-0.9,0.2c-1.4-0.8-1.7-2-1.1-3.9c0.1-0.3,0.6-0.7,0.1-1
		c-0.4-0.2-0.8-0.4-1.3-0.2c-1.9,0.8-2.8,2.3-3.6,4c-0.2,0.5,0,1.3-0.8,1.2c-0.8-0.1-1.3-0.7-1.5-1.4c0-0.1-0.1-0.3,0-0.4
		c0.4-2-0.7-2.1-2.2-2c-2.4,0.1-4.7-0.1-7,0.9c-1.3,0.6-2,1.6-2.5,2.8c-0.4,1-0.7,0.7-1.1,0c-1.4-2.1-0.8-5.3,1.3-6.8
		c1.8-1.3,3.7-1.7,5.8-1.6c2-0.3,4,0.1,6-0.2c0.3-0.1,0.7-0.2,1-0.3c0.9-0.1,0.7-0.5,0.1-0.8c-1-0.6-1.4-1.6-1.9-2.5
		c-0.3-0.6-0.3-1.2,0-1.9c0.2-0.5,0.4-0.6,0.8-0.2c2.2,2.4,5.2,2.8,8.3,3c2.1,0.1,3.9,1.2,6,1.4c0.9,0.1,1.9,0,2.8,0.6
		c-4.6,0.8-9.2,1.6-13.9,2c-2.9,0.2-5.7,0.3-8.5,0c-2.7-0.3-5.8,1.6-6.8,3.9c-0.1,0.1-0.1,0.3-0.1,0.6c0,0,0,0,0,0c0,0,0.1,0,0.1,0
		c2.4-2.9,5.1-3.8,8.7-3.4c3.8,0.5,7.7,0.2,11.5-0.5c3.4-0.6,6.8-1.2,10.2-1.8c0.2,0,0.3-0.1,0.5-0.2c-0.3-0.7-0.5-1.4-1.2-1.9
		c-5,0-9.5-1.4-13.1-4.9c-0.9-0.9-1.7-1.9-2.3-3.1c-0.4-0.9-0.5-1.6,0.8-1.7c0-0.1,0.1-0.1,0.1-0.2c-0.4-1.1-1.2-1-2.1-0.8
		c-0.1,0.1-0.2,0.2-0.3,0.3c0,0,0.1,0,0.1,0c-0.1,2.1-1.6,3.5-3.7,3.6c-2.5,0.1-6.3-2.1-6.9-4.5h0l0,0c-3.7,0.3-7.4,1.2-11,2.2
		c-2.1,0.6-4.3,1.2-6.4-0.1c-0.4-0.3-0.9-0.6-1.3-0.8c-1.1-0.5-2.2,0.2-2,1.4c0.3,1.4,0.1,2.7,0.3,4.1c1.1-0.6,2.3-0.6,3.5-0.7
		c1-0.1,2.1-0.2,3-0.7c0.2-0.1,0.5-0.2,0.6-0.1c0.3,0.1,0.2,0.5,0.1,0.7c-0.2,0.6-0.6,1.1-1.2,1.4c-1.9,1-4,1.4-5.9,2.2
		c-0.8,0.3-1.5,0.7-2,1.3c-0.2,0.2-0.4,0.6-0.3,0.7c0.1,0.2,0.4,0.1,0.7,0c0.6-0.3,1.2-0.5,1.8-0.7c2.6-0.8,4.9,1.1,4.7,3.8
		c0,0.3,0,0.7-0.3,0.8c-0.2,0-0.4-0.2-0.6-0.4c-1.1-1.1-2.1-2.3-3.7-2.7c-1.2-0.3-2.3-0.1-3.2,0.8c-0.2,0.2-0.6,0.4-0.4,0.7
		c0.1,0.2,0.5,0.4,0.8,0.4c2.7-0.3,3.4,1.6,4.2,3.6c0.2,0.4,0.4,0.8,0.7,1.3c0.2,0.4,0.7,0.7,0.4,1.1c-0.2,0.2-0.9,0.2-1.2,0.1
		c-1.1-0.4-2.3-0.8-2.8-2.1c-0.3-0.8-0.9-1.4-1.6-1.9c-1-0.8-2.4-0.6-3,0.4c-2,3.4-5.1,5.7-8.1,8.1c-0.1,0.1-0.3,0.1-0.5,0.2
		c0-0.2-0.2-0.4-0.1-0.6c0.1-0.6,0.5-1,0.9-1.4c2.1-2,4.1-4,5.8-6.4c0.9-1.2,0.8-1.8-0.4-2.6c-1.4-1.1-2.9-2-3.9-3.5
		c-0.2-0.3-0.4-0.6-0.3-1.1c0,0,0,0,0,0c-0.1-0.1-0.3-0.2-0.4-0.2c-3.7-0.3-7.2-1-10.7-2.3c-4.8-1.8-6.4-3.9-6.7-9
		c-0.1-1.4-0.9-2.5-2-3.3c-0.5-0.4-0.9-0.2-1.3,0.2c-1.3,1.2-2.8,1.8-4.6,1.6c-3.3-0.5-6.4-1.5-9.4-2.9c-6.2-2.9-12.8-3.3-19.5-2.5
		c-5.4,0.6-9.9,3.4-14.2,6.4c-1.3,0.9-2.8,1.8-3.5,3.5c2.8-1.4,5.6-2.6,8.7-3c0.3,0,0.7-0.2,0.9,0.1c0,0.1-0.3,0.4-0.5,0.7
		c-0.2,0.2-0.5,0.4-0.5,0.6c-0.4,2-1.9,2.4-3.6,2.7c-2.9,0.4-5.3,1.9-7.9,3c-0.7,0.5-0.9,1.3-1.3,2.1c2.6-1.7,5.1-0.9,7.6,0.1
		c0.7,0.3,1,0.6,0.7,1.4c-0.6,1.5-1.2,3-2.2,4.4c-1,1.5-2.5,2.1-4.2,2.5c-0.4,0.1-0.9,0.1-0.8,0.6c0.1,0.4,0.6,0.2,0.9,0.2
		c1.5-0.1,2.8,0.3,4,1.2c2,1.6,1.5,4-0.1,5.6c-0.3,0.3-0.6,0.2-0.9-0.1c-2.6-2.4-5.7-2.5-8.9-1.6c-0.1,0.4-0.3,0.7-0.3,1.1
		c-0.1,2.3-0.4,4.5-0.3,6.8c0.1,1.3-0.7,2-2,2c-1.1,0-2.2,0.1-3.2,0c-0.9-0.1-1.7,0.2-2.3,0.8c0,0.6,0,1.2,0,1.8
		c0.3,0.1,0.5,0.4,0.8,0.2c0.3-0.6-0.6-1.6,0.5-2c1.8,0.2,3.6,0,5.4,0.1c0.5,0,0.9-0.1,1.4,0.1c1.4,0.5,1.7,1.9,2.4,2.9
		c0.2,0.2,0.2,0.8,0.7,0.6c0.4-0.1,0.3-0.6,0.3-0.9c-0.1-0.5-0.2-0.9-0.2-1.4c-0.3-2.6,1.3-4,3.2-5.1c1.4-0.8,3-1.1,4.6-1.3
		c1.7-0.2,1.9,1.2,2,2.3c0.3,2.1,0.1,4.2-1.7,5.9c-0.3,0.3-0.8,0.7-0.4,1.3c0.3,0.5,0.8,0.3,1.2,0.2c3.6-0.8,7.6,1.9,8.3,5.7
		c0.1,0.5-0.1,0.6-0.4,0.8c-1.8,1.2-3.8,2-5.9,2.3c-1.5,0.2-2.7-0.5-4-1.3c-0.3-0.2-0.9-0.8-1.2-0.4c-0.3,0.4,0.4,0.7,0.7,1
		c3.5,3.5,2.6,8,0,11.5c-0.3,0.4-0.7,0.5-1.2,0.3c-3.5-1-5.7-4-5.6-7.6c0-0.3,0-0.6,0-0.9c0-0.4,0-0.7-0.3-0.9
		c-0.4-0.2-0.6,0.2-0.9,0.4c-0.4,0.3-0.8,0.7-1.1,1.1c0.1,0.3,0.2,0.6,0.2,0.8c1,6,3.3,11.4,6.9,16.3c1,1.4,2,3,3.8,3.7
		c0.1-2,0.8-3.3,2.1-3.6c1.9-0.5,3.7,0,4.5,1.3c0.4,0.6,0.3,1.2,0.5,1.8c0.1,0.3,0.1,0.8,0.6,0.9c0.5,0.1,0.8-0.2,1.1-0.5
		c0.7-0.7,0.9-1.8,2.2-2c2-0.3,3.4,0.9,3.9,2.2c0.9,2.3,0.5,3-1.1,4c-0.7,0.4-1.5,0.7-1.6,1.7c0,0,0,0,0,0c2.7,0.6,5.3,0.5,8,0.3
		c4.1-0.4,8.2-1.2,12.1-2.5c3.4-1.2,6.6-2.8,10.2-3.4c1.3-0.2,2.8-0.6,4,0.4c1.3,1,2.7,1,4.1,0.5c1.1-0.3,1.5-0.9,1.1-2.1
		c-0.8-2.7,0.6-6.4,3-7.9c3.3-2.1,7.1-2.9,10.9-3.5c2.1-0.3,4.2-0.5,6.4-0.7c1.7-1.6,3.3-3.2,3.1-5.8c-0.1-1.9-1.2-3.4-2.3-4.8
		c-1.3-1.5-2.6-3-4.5-3.9c1.3-0.3,1.6-0.2,2.8,0.6c1.9,1.3,3.3,3.2,4.5,5.1c0.6,1,1.2,1.1,2,0.4c1.8-1.4,3.5-2.9,5.4-4.3
		c0.7-0.6,1.6-0.9,2.6-0.5c0.5,0.2,0.6,0.4,0.2,0.8c-1.1,1-1.8,2.3-2.6,3.5c-0.9,1.3-2.1,2-3.7,2c-0.5,0-1-0.1-1.5,0.2
		c-0.3,0.1-0.9,0.1-0.9,0.2c0,0.5,0.4,0.7,0.7,1c1.6,1.1,3.2,0.8,4.9,0.3c1.4-0.4,2.8-0.9,4.3-0.9c0.3,0,0.8,0,0.9,0.3
		c0.1,0.4-0.4,0.4-0.6,0.6c-0.7,0.5-1.4,1-2.1,1.6c-1.2,1.2-2.5,1.2-3.9,0.6c-0.3-0.1-0.6-0.2-0.8-0.3c-0.2-0.1-0.6-0.2-0.7,0
		c-0.2,0.3,0.1,0.5,0.3,0.6c1.1,1.2,2.6,1.9,3.8,2.9c1.5,1.2,2.7,2.7,3.1,4.6c0.1,0.8,0.1,1.2-1,1c-1.5-0.4-2.8-1.2-3.9-2.2
		c0.5,0.9,0,1.6-0.2,2.5c-0.2,0.7-0.2,1.5,0.5,1.8c0.5,0.2,1.3,0.4,1.7-0.2c0.6-1,1.6-1.1,2.6-1.2c3.4-0.3,6.4,1.3,9.5,2.2
		c2.9,0.8,5.8,1.5,8.9,1.6c-0.9-0.8-1.9-1.5-2.8-2.3c-1.2-1.1-1.5-2.5-0.8-4c1-2.6,5.9-5,8.6-4.1c3.3,1,4.4,3.2,3.5,7
		c-0.2,0.7-0.3,1.3,0.3,1.8c0.7,0.6,1.1-0.2,1.6-0.4c1.1-0.6,2-1.5,3.1-2c1.3-0.6,2.3-0.4,3.2,0.6c2.9-1.6,5.2-4,7-6.8
		c-2.3,0.2-4.2,1.3-6.3,2.1c-1.9,0.7-3.6,1.7-5.3,2.9c-0.6,0.4-0.9,0.4-1.4-0.1c-0.6-0.6,0-0.9,0.3-1.3c2.1-2,4.7-3.3,7.4-4.4
		c2.2-0.9,4.4-1.6,6.8-1.8c0.5-0.4,0.7-1,0.8-1.6c-1,0.5-2.1,0.1-3.2,0.3c-1.5,0.3-2.9,0.7-4.3,1.3c-0.2,0.1-0.5,0.3-0.7,0
		c-0.2-0.2,0-0.5,0-0.7c0.4-1.5,1.8-1.8,3.1-2.5c-2.4-0.4-4.5,0.3-6.5,1.1c-0.4,0.2-0.8,0.3-1.2,0.5c-0.4,0.1-0.8,0.5-1.1,0.1
		c-0.4-0.5-0.1-1,0.2-1.4c0.5-0.7,1.2-1.2,2-1.6c0.2-0.1,0.6,0,0.6-0.3c0-0.3-0.4-0.3-0.7-0.3c-1.7,0-3.5,0-5.2,0
		c-2.9-0.1-5.8-0.4-8.3-2.3c-0.3-0.2-0.6-0.4-0.8-0.7c-0.5-0.7-1.4-1.5-1.2-2.3c0.2-0.4,1.3,0.4,2,0.7c3.1,1.2,6.3,0.6,9.5,0.3
		c0.8-0.1,1.6-0.2,2.4,0c0.5,0.1,1.3,0.3,0.9-0.8c-0.2-0.7-0.2-1.5,0.3-2.1c0.8-1.2,1.7-1.3,2.3,0c1,1.9,2.9,2.3,4.8,2.5
		c0.7,0.1,0.6-0.4,0.4-0.7c-0.3-0.7-0.1-1.3,0.1-1.8c0.3-0.5,0.7-1,1.3-1c0.5,0,0.4,0.7,0.6,1c1,2.1,2.6,3.5,4.7,4.3
		c0.1-0.5,0.3-1,0.4-1.5c0.4-2.1,0.2-4.2,0.2-6.3c0-0.6,0.1-0.9,0.8-0.9c2.8,0.1,5.6,0,8.4-0.2c2.3-0.2,4.1-0.1,6.8-0.2
		c0.1-0.2,0.1-0.3,0.2-0.5c0.3-0.7,0.8-1.2,1.5-1.1c0.8,0,0.6,1,0.9,1.5c1,0,2.1,0,3.1,0c0.5-1.6,1.7-2.5,3.3-2.9
		c0.2,0,0.4-0.1,0.4-0.1c0.2,0.2,0,0.4-0.1,0.5c-0.3,0.8-0.8,1.5-0.8,2.4c4.8-0.1,7.8-0.3,12.7-0.3c0.1,0,1.9,0,2-0.1
		c-0.4-0.2-0.3-0.6-0.2-0.9c0.3,0.2,0.6,0.5,0.7,0.9c3.9-0.3,6.1-0.4,11.6-0.3c0.2,0,0.4,0.1,0.6,0.2c0,0,0.1,0.1,0.1,0.1
		c0.3,0.3,0.8,0.5,1.5,0.6h2.7c0,0.2,0.1,0.3,0.1,0.6c0,0.6,0,1.1,0,1.7c0.1,1.7,0.2,3.4-1.6,4.3c-0.3,0.1-0.4,0.4-0.5,0.7
		c-0.7,2.1,0.2,3.4,2.9,4.1c1.3,0.3,2.5,0,3.2-1.2c0.9-1.5,0.8-3.3-0.3-3.9c-1.4-0.7-1.3-1.7-1.2-2.9c0-0.9,0.1-1.8,0-2.6
		c0-0.3,0-0.6,0-0.8h6.1c-0.2,1.3-0.1,2.6,0,3.9c0,0.8-0.3,1.2-1,1.5c-0.9,0.3-1.4,1-1.4,2c0,1.5,0.5,2.6,1.8,3.3
		c1.4,0.7,4,0.3,4.8-0.6c1.4-1.5,0.7-4-1.3-4.7c-0.3-0.1-0.4-0.2-0.4-0.5c-0.3-1.6-0.2-3.2-0.3-4.8c0,0,0,0,0-0.1h4.4
		c0,0,0.8,0.2,1-1.1c0,0,0,0,0,0c0.7,0.1,1.1,0.5,1.6,1.1c0.7,0.9,1.6,1.6,2.7,2.1c1.7,0.7,3.6,0.3,3.9-1c0.3-1.4,1.1-2,2.3-2.4
		c0.6-0.2,1.1-0.5,1.6-0.8C241.7,99.1,242,98.1,241.7,97z M29.3,64.2c0.6-0.6,1.3-0.9,2.2-0.2c0.4,0.3,0.9,0.3,1.3,0
		c0.3-0.2,0.3-0.6,0.2-0.9c-0.3-0.6-1-0.6-1.6-0.7C31,62.2,30.2,63.1,30,62c-0.2-0.8,0.3-1.5,1.1-1.9c0.7-0.3,1.4-0.6,2.1-0.5
		c0.7,0,1.5,0.1,2,0.7c0.4,0.5,2.2,1,0,1.9c-2.2,0.9-2.2,5.1-0.1,6.2c0.6,0.3,0.7,0.6,0.5,1.1c-0.7,1.2-1.6,2.3-3,2.6
		c-1.1,0.2-2-0.2-2.5-1.2c-0.4-1,0.2-1.7,1.2-2.1c0.3-0.1,0.9-0.2,0.8-0.7c-0.2-0.5-0.6-0.3-1.1-0.2c-0.8,0.2-1.9,0.5-2.3-0.5
		C28,66.2,28.5,65.1,29.3,64.2z M34.1,106.6c-0.2,0.4-0.6,1.3-1,1.1c-0.6-0.4-0.8-1.3-0.4-2.1c0.8-1.4,1.4-2.8,1.7-4.3
		c1.3-5.5,0.2-10.4-3.6-14.5c-1.9-2.1-4.4-3.3-7.1-4.1c-0.4-0.1-1-0.1-0.8-0.8c0.1-0.7,0.7-0.3,1-0.4c5.5,0.8,9.5,3.8,11.4,8.9
		C37.5,96,37,101.4,34.1,106.6z M36.8,68.1c-1.5,0-2.7-1.4-2.7-3.1c0-1.3,1.2-2.5,2.4-2.5c1.6,0,2.8,1.2,2.8,2.9
		C39.4,67,38.2,68.2,36.8,68.1z M67.1,85.6c0.2-1.7,0.8-3.3,0.8-5c0-0.4,0.2-0.5,0.5-0.6c1.8-0.1,3.6,0,4.7,1.8
		c0.4,0.7,0.9,1.6,1.8,1.4c1.1-0.3,0.5-1.4,0.6-2.1c0.2-1.6,0.9-3,2.2-3.9c0.3-0.2,0.7-0.4,1.1-0.3c1.6,0.2,3.9,2.7,4.3,4.3
		c0.2,0.7-0.1,1.9,1.1,1.9c1.1,0,0.8-1.2,0.9-1.9c0.1-0.6,0.4-1.1,0.8-1.6c0.6-0.7,1.3-1.4,2.2-1.2c0.6,0.1,0.2,1.1,0.3,1.7
		c0.3,1.6,1,3.1,0.9,4.8c0,0,0,0,0,0c0.4,0.8,0.4,1.6,0,2.4c-0.1,0.4-0.1,0.8-0.3,1.1c-0.4,0.7-0.8,1-1.4,0
		c-0.7-1.2-1.2-2.2-0.7-3.6c0.2-0.4,0-0.9,0-1.4c0-0.1-0.2-0.2-0.3-0.4c-0.1,0.1-0.1,0.3-0.2,0.4c-0.1,0.7-0.1,1.4-0.3,2
		c-0.1,0.4-0.3,0.9-0.9,0.9c-0.6,0-0.8-0.3-0.9-0.9c0-0.3-0.2-0.5-0.3-0.8c-0.3,0.2-0.1,0.5-0.2,0.8c-0.2,0.4-0.4,0.7-1,0.6
		c-0.6-0.1-0.5-0.5-0.5-0.9c0,0,0-0.1,0-0.1c0-0.7,0-1.4-0.5-2c-0.6,0.5-0.2,1.2-0.3,1.8c-0.1,0.6-0.1,1.6-0.6,1.5
		c-0.7-0.1-1.3-0.9-1.5-1.7c-0.3-1.3-0.4-2.6-0.6-4c0-0.3,0.1-0.6-0.2-0.9c-0.2,1.4,0.1,2.9-0.3,4.3c-0.1,0.4-0.1,0.9-0.5,0.9
		c-0.4,0-0.4-0.5-0.6-0.9c-0.3-0.4-0.1-1.1-0.6-1.5c-0.1,0.5-0.3,0.9-0.4,1.3c-0.1,0.2,0,0.6-0.4,0.4c-0.6-0.3-1.1-0.8-1.3,0.4
		c-0.1,0.4-0.5-0.3-0.8-0.4c-0.2-0.1-0.4-0.2-0.5-0.3c0,0.2,0,0.4,0,0.6c0,0.3,0.1,0.7,0.2,1c0.1,0.5-0.3,0.8-0.7,0.9
		C72,87,72,86.5,71.9,86.2c-0.3-0.9-0.6-1.9-0.9-2.8c-0.1-0.4-0.2-0.9-0.8-1.2c0,1.4,0.6,2.7,0.9,4.1c0.1,0.5,0.4,1.4,0.1,1.5
		c-0.6,0.3-0.8-0.6-1.2-1c-0.1-0.2-0.3-0.3-0.6-0.6c0.4,1.5,1.1,2.6,1.4,3.9c0.2,1,0,0.9-0.8,0.6C68.4,90.2,66.8,87.5,67.1,85.6z
		 M86.9,102.6c0.7,0.9,1.1,1.9,0.6,3.1c-0.6,1.4-1.7,2-3.1,2.2c-2.4,0.3-3.4-0.3-4.5-2.6c-0.2-0.4-0.2-0.9-0.7-1
		c-0.6-0.1-0.6,0.5-0.8,0.9c-1,1.7-2.3,2.2-3.8,1.3c-2.3-1.3-2.8-2.9-1.6-4.8c0.2-0.3,0.6-0.7,0.3-1.1c-0.3-0.4-0.8-0.3-1.2-0.3
		c-3,0-4.6-2.7-3.3-5.4c0.7-1.5,2-2,4-1.6c0.5,0.1,1,0.4,1.3,0c0.4-0.5,0.1-1.1-0.2-1.6c-0.7-1.2-1.3-2.3-0.7-3.8
		c0.7-1.7,3.9-2.7,5.3-1.6c1,0.8,0.6,2,0.9,3c0.1,0.4-0.1,1.1,0.5,1.1c0.5,0,0.7-0.5,0.9-0.9c0.7-1.5,1.4-2.6,3.3-2.4
		c1.5,0.2,2.3,1,2.8,2.2c0.5,1.1,0.5,2.1-0.5,2.9c-0.2,0.1-0.3,0.3-0.4,0.5c-0.2,0.4-0.9,0.6-0.5,1.2c0.4,0.5,1,0.3,1.4,0.2
		c2.9-0.6,4.1,0.3,4.1,3.3c0,2.2-1.2,3.3-3.4,3.3c-0.5,0-1.2-0.3-1.5,0.3C85.8,101.8,86.6,102.2,86.9,102.6z M50.3,86.8
		c0.5-0.7,1.1-1.4,1.6-2.2c1.2-2.2,3-3.2,5.5-3c0.4,0,1.1,0.4,1.2-0.3c0.1-0.5-0.4-1-1-1.2c-1.8-0.8-3.5-0.3-5.3,0.2
		c-1.3,0.4-2.7,0.7-4.1,0.6c-0.3,0-0.6,0-0.6-0.3c0-0.1,0.3-0.3,0.5-0.4c0.9-0.4,1.6-1,2.3-1.6c1.3-1.3,2.8-1.3,4.4-0.5
		c0.4,0.2,0.9,0.5,1.1,0.2c0.2-0.3-0.4-0.6-0.6-0.9c-1.1-1.2-2.6-1.8-3.8-2.9c-1.5-1.2-2.5-2.7-2.8-4.7c-0.1-0.7,0-1.1,1-0.8
		c2.7,0.7,4.3,2.3,5,5c0.1,0.2,0.1,0.4,0.2,0.6c0.2,0.8,0.5,1.8,1.2,1.8c0.4,0,0.1-1.2,0.2-1.8c0.2-1.7,0.6-3.3,1.3-4.8
		c0.2-0.4,0.3-0.8,0.5-1.2c0.2-0.4-0.2-1.2,0.4-1.1c0.6,0.1,1.1,0.7,1.2,1.5c0.2,1.5-0.2,2.8-0.8,4.1c-0.7,1.4-0.7,2.8-0.1,4.5
		c0.9-3.2,3.5-4.5,5.8-6.2c0.2-0.1,0.5-0.2,0.7-0.3c0,0.2,0.1,0.5,0.1,0.7c0.1,1.1-0.2,2-1.3,2.6c-1.1,0.6-1.9,1.5-2.7,2.6
		c-1.9,2.6-1,4.9,0.5,7.2c1.3,1.9,2.8,3.5,4.7,4.7c0.2,0.1,0.6,0.1,0.5,0.5c-0.1,0.3-0.5,0.2-0.7,0.2c-1.7-0.2-2.8-1.4-3.8-2.5
		c-1.1-1.1-2-2.5-2.8-3.8c-0.5-0.7-0.8-0.7-1.4-0.3c-1.3,0.8-2.4,1.8-3.6,2.8c-1.1,1-2.3,1.8-3.7,2.3c-0.5,0.2-1.1,0.1-1.4-0.3
		C49.4,87.3,50.1,87.1,50.3,86.8z M69.4,109.7c-2.1,2.8-4.4,5.5-7.5,7.2c-0.8,0.5-0.8,1.3-0.5,2.1c0.4,1,1.1,1.9,2.1,2.3
		c1.5,0.6,2,1.8,2.3,3.2c0.1,0.4,0.1,1.1-0.7,0.7c-1.2-0.5-2.4-1.1-3.5-1.6c-1.3-0.7-2.1-1.7-2-3.2c0-0.4,0.1-1-0.4-1.1
		c-0.4-0.1-0.6,0.4-0.9,0.7c-1.1,1.5-0.8,3.6,0.6,5.3c0.4,0.4,0.8,0.8,1.2,1.2c0.3,0.3,0.9,0.5,0.6,1c-0.2,0.3-0.9,0.3-1.1,0.4
		c-2-0.1-3.9-2.5-3.5-4.3c0.1-0.5,0.3-0.9,0.4-1.4c0.1-0.6,0.8-1.3,0.3-1.7c-0.3-0.2-1,0.7-1.3,1.2c-0.9,1.6-1.4,3.3-1.9,5
		c-0.3,1-0.7,2-1.6,2.8c-0.4,0.4-0.9,0.5-1.3,0.3c-0.5-0.3,0-0.7,0.1-1c0.7-1.6,0.6-3.3,0.9-4.9c0.4-1.8,1.2-3.1,2.8-4
		c0.2-0.1,0.3-0.2,0.5-0.4c-0.2-0.1-0.4-0.3-0.6-0.3c-0.8-0.1-1.5,0-2.3-0.3c-1-0.4-1.5-1.2-1.6-2.2c-0.1-1.3,0-2.5,0.9-3.5
		c0.3-0.4,0.4-0.1,0.4,0.2c0,0.6,0.3,1.2,0.5,1.7c1,2.6,4.5,3.4,6.4,1.4c0.6-0.6-0.1-0.9-0.5-0.9c-0.9-0.2-1.8-0.2-2.5-1.1
		c-0.9-1.3-0.9-2.8-1.3-4.2c-0.1-0.4,0.7-0.3,1-0.1c0.8,0.5,1.5,1.1,2.2,1.9c0.6,0.8,1.3,1.5,1.8,2.4c0.6,1.2,1.4,1.2,2.4,0.5
		c2.4-1.7,4.6-3.7,6.6-5.8c0.6-0.6,1.1-1.5,2-1C70.7,108.3,69.8,109.2,69.4,109.7z M90.3,115.5c-1.9,0.3-3.4-0.5-4.3-2.1
		c-0.2-0.3-0.4-0.6-0.7-0.9c-0.2-0.2-0.4-0.4-0.7-0.2c-0.3,0.2-0.5,0.5-0.3,0.8c1.5,2.7-1,3.7-2.2,5.3c-1.2,1.6-2.3,1.2-3.7,0.1
		c-1.8-1.4-3.3-2.7-2.7-5.2c0.1-0.4-0.1-0.9-0.5-0.9c-0.4-0.1-0.8,0.3-0.8,0.7c-0.1,1.4-1.2,1.9-2.3,2.3c-1.7,0.6-2.3,0.3-2.5-1.5
		c-0.1-2-0.1-3.9,1.4-5.5c0.4-0.5,0.6-1,0.1-1.5c-0.6-0.6-1-0.1-1.3,0.3c-1.8,2-4,2-6.3,1.3c-0.8-0.2-1.6-0.6-2.4-0.6
		c-1.1,0-1-0.5-0.7-1.1c0.7-1.4,1.8-2.2,3.3-2.3c0.5,0,1.3,0.2,1.3-0.7c-0.1-0.7-0.8-0.6-1.4-0.7c-2,0-4.1,0.6-6.1-0.2
		c-2.4-0.9-4.8-1.7-7.2-2.6c-0.2-0.1-0.4-0.2-0.5-0.4c-0.1-0.2,0.1-0.2,0.2-0.2c2.9-0.2,5.3-1.7,7.9-2.8c1.6-0.6,3.1-0.8,4.6-0.1
		c0.4,0.2,0.8,0.3,1.1,0c0.2-0.2,0.4-0.5,0.3-0.8c-0.2-0.4-0.6-0.7-1.1-0.6c-1.8,0.3-2.6-1.3-3.9-2.1c-0.2-0.1-0.3-0.4,0-0.5
		c2.4-0.6,4.5-2.4,7.2-2.2c1.2,0.1,2.2,0.6,3,1.5c0.3,0.3,0.2,0.3-0.1,0.6c-1.8,1.5-3.9,0.8-5.8,0.7c-0.2,0-0.4,0-1,0
		c1.1,0.7,2.1,0.9,3,1.1c0.6,0.1,1.4,0,1.5,1c0.1,0.9-0.3,1.3-1.1,1.4c-0.1,0-0.2,0.2-0.3,0.3c0.2,0.1,0.4,0.1,0.5,0.2
		c0.4,0.3,1.3,0.1,1.3,0.7c-0.1,0.7-0.9,0.6-1.4,0.6c-1.9,0.3-3.8,0.5-5.7,0.6c-1.6,0.1-3.2,0.2-4.8,0.3c-0.2,0-0.5-0.1-0.5,0.2
		c0,0.3,0.3,0.3,0.5,0.3c2.3,0,4.5,0.1,6.8-0.1c1.7-0.2,3.4-0.3,5.1-0.1c1.2,0.1,2.1,1.1,3.4,1.4c0.5,0.1-0.1,0.3-0.2,0.3
		c-1,0.4-2,0.7-2.9,1.3c0.8,0,1.5,0,2.3,0c0.2,0,0.6-0.2,0.7,0.2c0,0.2-0.2,0.5-0.4,0.6c-1.3,0.7-2.6,1.3-3.9,1.9
		c-0.2,0.1-0.6,0.1-0.5,0.4c0.1,0.3,0.4,0.2,0.7,0.2c1.1-0.3,2.1-0.6,3.2-0.9c2.1-0.5,4,1.5,3.4,3.6c-0.4,1.1-0.8,2.3-1.3,3.4
		c-0.1,0.2-0.2,0.4,0.1,0.5c0.2,0.1,0.3-0.2,0.3-0.3c0.6-1.2,1.3-2.5,1.9-3.7c0.3-0.7,0.8-1,1.5-0.9c0.9,0.1,0.4,0.8,0.5,1.2
		c0.1,0.6,0,1.3,0,2.1c0.8-1.3,0.9-2.7,1.8-3.7c0.2-0.3,0.5-0.7,0.9-0.6c0.4,0.1,0.5,0.6,0.6,0.9c0.5,2,0.7,4,0.6,6
		c0,0.7,0,1.3,0.4,2c0.6-2.1,0.2-4.3,0.4-6.4c0.1-1.4,0.5-1.7,1.7-0.9c0.3,0.2,0.5,0.5,0.7,0.8c0.4,0.5,0.5,1.5,1.1,1.5
		c0.5,0,0.1-1,0.3-1.4c0.2-0.4,0.3-0.7,0.8-0.7c0.4,0,0.8,0,1.1,0.5c0.6,1.1,0.9,2.4,1.7,3.3c0.1,0.2,0.2,0.5,0.5,0.4
		c0.1,0,0-0.4-0.1-0.6c-0.5-0.6-0.7-1.4-1-2.1c-0.3-0.9-0.8-2,0.4-2.8c0.2-0.2,0.3-0.5,0.5-0.8c0.2-0.5,0.2-1.3,0.6-1.3
		c0.6,0.1,1.2,0.6,1.3,1.4c0,0,0,0,0,0c0.5,1.6,0.1,3.2,0.2,4.7c0,0.9,0.2,1.7,0.6,2.5C91.3,115.1,91,115.4,90.3,115.5z M108.3,98.8
		c-2.4,1.1-4.8,2.3-7.5,2.9c-0.8,0.2-1.7,0.1-2.4-0.3c-0.6-0.3-1.2-0.3-1.7,0.1c-0.1,0.1-0.2,0.5-0.1,0.7c0.2,0.7,1,0.8,1.5,0.8
		c1.2,0,2.1,0.4,2.9,1.2c0.9,0.9,0.8,1.7-0.4,2.2c-1.8,0.8-3.7,1-5.7,0.4c-1.5-0.5-2.9-1-4.4-1.5c-0.2-0.1-0.4-0.2-0.6-0.3
		c-0.9-0.4-1.3-1.3-1.2-2.1c0-0.4,1.2-0.5,1.9-0.4c2.1,0.3,4.2,0.8,6.6,1.6c-1.2-1.4-2.7-1.4-3.8-1.9c-0.3-0.1-0.7-0.1-1-0.3
		c-0.6-0.3-1.8-0.1-1.6-0.7c0.2-0.6,1.5-0.7,2.2-0.5c0.9,0.2,1.8,0,2.7,0.4c-0.5-0.7-1.4-0.7-2-1c-0.2-0.1-0.4-0.1-0.6-0.2
		c0.2-0.1,0.3-0.3,0.5-0.3c0.8-0.1,1.6-0.2,2.4-0.3c2.6-0.1,5.2-0.2,7.8-0.3c-0.6-0.5-1.4-0.1-2.1-0.3c-0.4-0.1-0.9,0.2-1.3-0.2
		c-2.5-0.1-4.9,0.2-7.4-0.3c-0.3,0-0.8,0.2-0.7-0.3c0.1-0.4-0.3-1,0.5-1.3c0.6-0.2,1.3,0,1.7-0.7c-0.6-0.3-1.2-0.4-1.9-0.3
		c-0.3,0-0.6,0-0.7-0.3c0-0.5,0.4-0.8,0.8-0.9c0.5-0.2,1-0.3,1.4-0.5c0.5-0.1,1-0.3,1.5-0.3c0.4-0.1,0.7-0.1,1.1-0.1
		c-0.4-0.4-0.9-0.1-1.3-0.3c-1.3,0.1-2.7-0.1-4,0.3c-1.3,0.3-2-0.9-3-1.3c-0.5-0.2,0.3-0.5,0.5-0.7c3.5-1.7,7.1-2.3,10.9-1
		c0.1,0,0.2,0.1,0.2,0.1c0.7,0.3,2.1,0.2,2,0.9c-0.1,1.2-0.9,2.4-2.2,2.7c-0.9,0.3-1.9,0.3-2.8,0.5c-0.4,0.1-1,0.2-0.8,0.8
		c0.1,0.5,0.5,0.8,1.1,0.8c0.1,0,0.2,0,0.3,0c4-2.2,7.1,1,10.7,1.8C109,98.4,108.7,98.6,108.3,98.8z"/>
	<g class="st4">
		<path class="st3" d="M28.2,64.5c0-0.2,0.3-0.4,0.5-0.6c0.2-0.2,0.5-0.6,0.5-0.7c-0.2-0.3-0.6-0.1-0.9-0.1c-3.1,0.5-6,1.6-8.7,3
			c-1.1,1.2-2.1,2.5-2.9,4c2.6-1.1,5.1-2.5,7.9-3C26.3,66.9,27.9,66.5,28.2,64.5z"/>
		<path class="st3" d="M132.2,83.4c1.6-0.1,2.7,0.1,2.2,2c0,0.1,0,0.3,0,0.4c0.2,0.8,0.7,1.4,1.5,1.4c0.8,0.1,0.6-0.8,0.8-1.2
			c0.8-1.7,1.7-3.3,3.6-4c0.6-0.2,0.9,0,1.3,0.2c0.5,0.3,0,0.7-0.1,1c-0.6,1.9-0.3,3.1,1.1,3.9c0.4,0.2,0.7,0.4,0.9-0.2
			c0.7-2.1,2.6-3,4.4-3.8c2.1-0.9,4.3-1.3,6.5-2.1c-0.3-0.9-0.7-1.7-1-2.6c-0.2,0.1-0.3,0.2-0.5,0.2c-3.4,0.6-6.8,1.3-10.2,1.8
			c-3.8,0.6-7.7,0.9-11.5,0.5c-3.7-0.5-6.5,0.6-8.9,3.5c0.1-0.4,0.1-0.6,0.2-0.8c1-2.3,4.1-4.2,6.8-3.9c2.9,0.3,5.7,0.2,8.5,0
			c4.7-0.3,9.3-1.1,13.9-2c-0.9-0.6-1.9-0.5-2.8-0.6c-2.1-0.2-3.9-1.3-6-1.4c-3.1-0.2-6-0.6-8.3-3c-0.4-0.4-0.6-0.3-0.8,0.2
			c-0.3,0.6-0.3,1.2,0,1.9c0.5,1,1,1.9,1.9,2.5c0.6,0.3,0.7,0.7-0.1,0.8c-0.3,0.1-0.7,0.2-1,0.3c-2,0.3-4-0.1-6,0.2
			c-2.1-0.1-4.1,0.3-5.8,1.6c-2,1.5-2.7,4.8-1.3,6.8c0.4,0.6,0.7,0.9,1.1,0c0.5-1.2,1.3-2.2,2.5-2.8
			C127.5,83.3,129.9,83.5,132.2,83.4z"/>
		<path class="st3" d="M20.4,88.1c0.3,0.3,0.6,0.4,0.9,0.1c1.6-1.7,2-4.1,0.1-5.6c-1.2-0.9-2.5-1.3-4-1.2c-0.3,0-0.8,0.2-0.9-0.2
			c-0.1-0.5,0.5-0.5,0.8-0.6c1.7-0.4,3.2-1,4.2-2.5c0.9-1.4,1.6-2.8,2.2-4.4c0.3-0.8,0-1.2-0.7-1.4c-2.5-1-5.1-1.7-7.6-0.1
			c-2,4.6-3.4,9.4-3.9,14.4C14.7,85.6,17.8,85.7,20.4,88.1z"/>
		<path class="st3" d="M175.7,93.8c-1.7,0-3.5-0.1-5.2-0.1c-3.1,3.2-6.6,5.6-11.4,5c3.8-0.8,7.5-2,10.2-5v0c-1.1,0-2.1,0-3.2,0
			c0,0.7-0.5,1-1,1.3c-3.2,2-6.6,2.4-10.3,2c-0.3,0-0.6-0.2-0.8,0c0,0.1,0.2,0.4,0.4,0.6c2.1,2.2,4.8,3,7.7,3.1c3,0,5.5-1.4,7.5-3.8
			c0.6-0.7,1.1-1.3,1.7-1.9c0.6,0.6,0.6,1.5,1,2.3c1.1,1.8,2.9,2.8,4.4,2.2c0.7-0.3,0.9-0.5,0.3-1.3
			C175.9,96.9,175.1,95.5,175.7,93.8z"/>
		<path class="st3" d="M139,125.2c-0.3,0.3-0.9,0.6-0.3,1.3c0.5,0.5,0.8,0.6,1.4,0.1c1.6-1.2,3.4-2.2,5.3-2.9c2.1-0.8,4-1.9,6.3-2.1
			c0.5-0.9,1-1.7,1.5-2.6c-2.4,0.3-4.6,1-6.8,1.8C143.7,121.9,141.1,123.2,139,125.2z"/>
		<path class="st3" d="M181.6,99c-1.6,0.4-2.8,1.3-3.3,2.9c1.3,0,1.9,0,2.8,0c0-0.9,0.5-1.6,0.8-2.4c0.1-0.2,0.4-0.3,0.1-0.5
			C182,98.9,181.8,99,181.6,99z"/>
		<path class="st3" d="M183,93.9c-1.4,0-2.8,0-4.2,0C180.4,95.7,181.5,95.7,183,93.9z"/>
		<path class="st3" d="M12.7,105.9c0-0.8-0.8-1.1-1.4-1.3c0.1,0.9-0.2,1.8,0.2,2.7C12.1,107,12.7,106.5,12.7,105.9z"/>
		<path class="st3" d="M174.3,100.5c-0.7,0-1.3,0.4-1.5,1.1c-0.1,0.2-0.1,0.3-0.2,0.5c0.9,0,1.7-0.1,2.6-0.1
			C174.9,101.4,175.1,100.5,174.3,100.5z"/>
		<path class="st3" d="M51.2,88.1c1.4-0.4,2.6-1.3,3.7-2.3c1.1-1,2.2-2,3.6-2.8c0.6-0.3,1-0.4,1.4,0.3c0.8,1.3,1.7,2.7,2.8,3.8
			c1,1.1,2.1,2.3,3.8,2.5c0.2,0,0.6,0.1,0.7-0.2c0.1-0.4-0.3-0.4-0.5-0.5c-1.9-1.2-3.5-2.8-4.7-4.7c-1.5-2.3-2.4-4.7-0.5-7.2
			c0.7-1,1.6-2,2.7-2.6c1.1-0.6,1.4-1.5,1.3-2.6c0-0.2-0.1-0.5-0.1-0.7c-0.2,0.1-0.5,0.1-0.7,0.3c-2.3,1.6-4.9,2.9-5.8,6.2
			c-0.6-1.7-0.6-3.1,0.1-4.5c0.6-1.3,1-2.7,0.8-4.1c-0.1-0.8-0.6-1.4-1.2-1.5c-0.6-0.1-0.2,0.7-0.4,1.1c-0.2,0.4-0.3,0.8-0.5,1.2
			c-0.7,1.5-1.1,3.2-1.3,4.8c-0.1,0.7,0.2,1.9-0.2,1.8c-0.7,0-1-1-1.2-1.8c-0.1-0.2-0.1-0.4-0.2-0.6c-0.7-2.6-2.3-4.3-5-5
			c-1-0.3-1,0.1-1,0.8c0.2,2,1.3,3.5,2.8,4.7c1.2,1,2.7,1.7,3.8,2.9c0.3,0.3,0.8,0.6,0.6,0.9c-0.2,0.3-0.8,0-1.1-0.2
			c-1.6-0.9-3.1-0.8-4.4,0.5c-0.7,0.7-1.5,1.2-2.3,1.6c-0.2,0.1-0.5,0.3-0.5,0.4c0,0.3,0.3,0.3,0.6,0.3c1.4,0.1,2.7-0.2,4.1-0.6
			c1.7-0.5,3.5-1,5.3-0.2c0.6,0.3,1,0.7,1,1.2c-0.1,0.7-0.8,0.3-1.2,0.3c-2.5-0.3-4.3,0.8-5.5,3c-0.4,0.8-1.1,1.5-1.6,2.2
			c-0.2,0.3-0.9,0.5-0.6,1C50,88.2,50.7,88.2,51.2,88.1z"/>
		<path class="st3" d="M70.4,108.1c-0.9-0.5-1.4,0.4-2,1c-2.1,2.1-4.2,4.1-6.6,5.8c-1,0.7-1.7,0.7-2.4-0.5c-0.5-0.9-1.1-1.6-1.8-2.4
			c-0.6-0.7-1.3-1.4-2.2-1.9c-0.3-0.2-1.1-0.3-1,0.1c0.4,1.4,0.4,2.9,1.3,4.2c0.6,0.9,1.6,0.9,2.5,1.1c0.4,0.1,1.1,0.3,0.5,0.9
			c-1.9,2-5.4,1.2-6.4-1.4c-0.2-0.6-0.5-1.1-0.5-1.7c0-0.3-0.1-0.6-0.4-0.2c-0.8,1-1,2.3-0.9,3.5c0.1,1,0.5,1.8,1.6,2.2
			c0.8,0.3,1.5,0.2,2.3,0.3c0.2,0,0.4,0.2,0.6,0.3c-0.2,0.1-0.3,0.3-0.5,0.4c-1.6,0.9-2.4,2.2-2.8,4c-0.4,1.6-0.2,3.3-0.9,4.9
			c-0.1,0.3-0.6,0.7-0.1,1c0.4,0.2,0.9,0.1,1.3-0.3c0.9-0.8,1.2-1.8,1.6-2.8c0.5-1.7,1-3.5,1.9-5c0.3-0.5,1.1-1.4,1.3-1.2
			c0.6,0.4-0.1,1.1-0.3,1.7c-0.1,0.5-0.3,0.9-0.4,1.4c-0.5,1.8,1.4,4.2,3.5,4.3c0.3-0.1,0.9-0.1,1.1-0.4c0.3-0.4-0.4-0.7-0.6-1
			c-0.4-0.4-0.8-0.8-1.2-1.2c-1.5-1.7-1.7-3.8-0.6-5.3c0.2-0.3,0.4-0.8,0.9-0.7c0.6,0.1,0.5,0.7,0.4,1.1c-0.1,1.5,0.7,2.5,2,3.2
			c1.2,0.6,2.3,1.1,3.5,1.6c0.8,0.4,0.8-0.3,0.7-0.7c-0.3-1.4-0.8-2.6-2.3-3.2c-1.1-0.4-1.7-1.3-2.1-2.3c-0.3-0.8-0.4-1.6,0.5-2.1
			c3.1-1.8,5.4-4.4,7.5-7.2C69.8,109.2,70.7,108.3,70.4,108.1z"/>
		<path class="st3" d="M31.5,63.9c-0.8-0.7-1.6-0.4-2.2,0.2c-0.8,0.9-1.3,2-0.8,3.2c0.5,1,1.5,0.7,2.3,0.5c0.5-0.1,0.9-0.3,1.1,0.2
			c0.2,0.5-0.4,0.5-0.8,0.7c-1,0.4-1.6,1.1-1.2,2.1c0.4,1,1.4,1.5,2.5,1.2c1.5-0.3,2.3-1.4,3-2.6c0.3-0.5,0.1-0.7-0.5-1.1
			c-2.1-1.2-2.2-5.4,0.1-6.2c2.2-0.9,0.4-1.3,0-1.9c-0.5-0.6-1.3-0.7-2-0.7c-0.8-0.1-1.4,0.2-2.1,0.5c-0.8,0.4-1.3,1-1.1,1.9
			c0.2,1.1,1,0.2,1.4,0.2c0.6,0.1,1.2,0.1,1.6,0.7c0.2,0.3,0.2,0.7-0.2,0.9C32.5,64.2,31.9,64.2,31.5,63.9z"/>
		<path class="st3" d="M32.8,105.6c-0.4,0.8-0.2,1.7,0.4,2.1c0.4,0.3,0.7-0.6,1-1.1c2.9-5.2,3.4-10.7,1.2-16.1
			c-2-5.1-5.9-8-11.4-8.9c-0.3,0.1-0.8-0.3-1,0.4c-0.1,0.7,0.5,0.7,0.8,0.8c2.7,0.7,5.2,2,7.1,4.1c3.8,4.2,4.9,9,3.6,14.5
			C34.1,102.9,33.5,104.3,32.8,105.6z"/>
		<path class="st3" d="M16.3,108.3c1.1,0,1.9-0.9,1.9-2.2c0-1.4-0.8-2.3-1.9-2.3c-1.1,0-1.9,1-1.9,2.2
			C14.4,107.4,15.1,108.3,16.3,108.3z M16,105.6c0.3,0,0.5,0.2,0.5,0.4c0,0.3-0.3,0.4-0.5,0.4c-0.2,0-0.4-0.2-0.3-0.5
			C15.7,105.7,15.9,105.6,16,105.6z"/>
		<path class="st3" d="M141.4,127.7c-1.1,0.5-2.1,1.4-3.1,2c-0.4,0.3-0.9,1-1.6,0.4c-0.6-0.5-0.4-1.1-0.3-1.8c0.9-3.8-0.2-6-3.5-7
			c-2.7-0.8-7.6,1.5-8.6,4.1c-0.6,1.5-0.4,2.9,0.8,4c0.9,0.8,1.8,1.5,2.8,2.3c0.7,0,1.4,0,2.1,0c-0.7-1.6-1.8-2.9-2.8-4.2
			c-0.2-0.3-0.8-0.6-0.4-0.9c0.3-0.3,0.7,0.2,1,0.5c0.7,0.7,1.4,1.4,2.1,2.1c0.3,0.3,0.5,0.8,0.9,0.6c0.4-0.2,0.2-0.8,0.1-1.2
			c-0.3-1-0.6-2-0.9-3c-0.1-0.3-0.3-0.8,0.1-0.9c0.3-0.1,0.4,0.4,0.6,0.6c0.5,1,0.9,2,1.4,2.9c0.2,0.4,0.2,1.2,0.9,1.1
			c0.6-0.1,0.4-0.9,0.4-1.4c0.1-1.1,0.1-2.2,0.6-3.5c0.8,2.4-0.3,5.3,2.3,6.8c0,0,0,0,0,0c0,0,0,0,0,0c1.4-0.2,2.8-0.4,4.1-1
			c0.2-0.6,0.7-0.8,1.3-0.6c1-0.5,1.9-1,2.9-1.6C143.7,127.4,142.7,127.2,141.4,127.7z"/>
		<path class="st3" d="M227.1,87.3c-1.8,0.5-3.5,1.3-5.4,0.8c2.1,0.3,1.8,2,1.8,3.4c0,0.3,0,0.5,0,0.8c0.5-0.5,1.2-0.1,1.8-0.5
			c0-0.1,0-0.3,0-0.4c0.1-1.3-0.5-2.8,1.6-3.2c0.5-0.1,0.7-0.8,0.8-1.4C227.6,87.1,227.4,87.3,227.1,87.3z"/>
		<path class="st3" d="M151.3,106.8c-0.2-0.4,0-1-0.6-1c-0.6,0-1,0.5-1.3,1c-0.3,0.6-0.5,1.2-0.1,1.8c0.2,0.3,0.3,0.8-0.4,0.7
			c-1.9-0.2-3.7-0.6-4.8-2.5c-0.7-1.3-1.5-1.2-2.3,0c-0.4,0.7-0.5,1.5-0.3,2.1c0.4,1.1-0.4,1-0.9,0.8c-0.8-0.2-1.6-0.1-2.4,0
			c-3.2,0.2-6.3,0.9-9.5-0.3c-0.7-0.3-1.8-1.1-2-0.7c-0.3,0.8,0.6,1.6,1.2,2.3c0.2,0.3,0.5,0.4,0.8,0.7c2.4,1.9,5.3,2.2,8.3,2.3
			c1.7,0.1,3.5,0,5.2,0c0.3,0,0.6,0,0.7,0.3c0,0.3-0.4,0.2-0.6,0.3c-0.8,0.4-1.5,0.8-2,1.6c-0.3,0.4-0.6,1-0.2,1.4
			c0.3,0.4,0.8,0,1.1-0.1c0.4-0.1,0.8-0.3,1.2-0.5c2-0.8,4.1-1.5,6.5-1.1c-1.3,0.6-2.7,1-3.1,2.5c-0.1,0.2-0.3,0.5,0,0.7
			c0.2,0.2,0.5,0.1,0.7,0c1.4-0.6,2.8-1,4.3-1.3c1.1-0.2,2.2,0.2,3.2-0.3c0.3-0.8,0.7-1.6,1-2.4c-1.8-0.5-3.5-1.3-5.3-1.6
			c-3.4-0.5-6.7-0.5-10.1-0.5c-2.2,0-4.3-0.2-6.5-0.5c-0.7-0.1-1.5-0.3-2.4-1c5.1,0.6,9.9,0.4,14.7,0.7c3,0.2,5.9,0.5,8.6,1.7
			c0.4,0.2,0.8,0.4,1.2,0.6c0,0,0,0,0,0c0.3-1,0.5-2.1,0.8-3.1C154,110.2,152.3,108.9,151.3,106.8z"/>
		<path class="st3" d="M109.9,115.5c-1.5-0.1-2.9,0.5-4.3,0.9c-1.7,0.5-3.4,0.8-4.9-0.3c-0.3-0.2-0.8-0.5-0.7-1c0-0.1,0.6,0,0.9-0.2
			c0.5-0.2,1-0.2,1.5-0.2c1.6,0,2.8-0.6,3.7-2c0.8-1.2,1.6-2.5,2.6-3.5c0.4-0.4,0.4-0.6-0.2-0.8c-1-0.4-1.9,0-2.6,0.5
			c-1.8,1.4-3.6,2.8-5.4,4.3c-0.8,0.6-1.4,0.5-2-0.4c-1.2-2-2.6-3.8-4.5-5.1c-1.1-0.8-1.5-0.9-2.8-0.6c1.9,0.9,3.2,2.4,4.5,3.9
			c1.1,1.4,2.2,2.9,2.3,4.8c0.2,2.6-1.4,4.2-3.1,5.8c1.2,0,2.4-0.1,3.6-0.1c-0.1-0.3,0.1-0.6,0.3-0.8c0.4-0.5,0.4-1.6,0.8-1.4
			c0.6,0.2,0.5,1.2,0.5,1.9c0,0.1,0,0.3,0,0.4c0.6,0.2,1.2,0.4,1.8,0.5c0-0.1,0-0.2,0-0.3c0.1-0.6-0.3-1.7,0.3-1.8
			c0.8-0.1,1,1,1.3,1.7c0.2,0.5,0.5,1.1,0.5,1.7c0.3,0.6,1,1,0.8,1.8c1.1,1,2.4,1.8,3.9,2.2c1.1,0.3,1.1-0.2,1-1
			c-0.4-2-1.5-3.4-3.1-4.6c-1.3-1-2.7-1.7-3.8-2.9c-0.2-0.2-0.5-0.4-0.3-0.6c0.1-0.2,0.5-0.1,0.7,0c0.3,0.1,0.6,0.2,0.8,0.3
			c1.4,0.6,2.7,0.6,3.9-0.6c0.6-0.6,1.4-1,2.1-1.6c0.2-0.2,0.7-0.2,0.6-0.6C110.7,115.5,110.2,115.6,109.9,115.5z"/>
		<path class="st3" d="M21.1,110.2c-0.3-0.3-0.9-0.6-0.7-1c0.4-0.4,0.9,0.1,1.2,0.4c1.2,0.8,2.4,1.5,4,1.3c2.2-0.3,4.1-1.1,5.9-2.3
			c0.3-0.2,0.5-0.3,0.4-0.8c-0.7-3.7-4.7-6.5-8.3-5.7c-0.5,0.1-0.9,0.3-1.2-0.2c-0.4-0.6,0.1-1,0.4-1.3c1.8-1.6,1.9-3.7,1.7-5.9
			c-0.1-1.1-0.4-2.5-2-2.3c-1.6,0.2-3.2,0.4-4.6,1.3c-2,1.1-3.6,2.5-3.2,5.1c0.1,0.5,0.2,0.9,0.2,1.4c0,0.3,0.1,0.8-0.3,0.9
			c-0.5,0.2-0.5-0.4-0.7-0.6c-0.7-1-1-2.4-2.4-2.9c-0.5-0.2-0.9-0.1-1.4-0.1c-1.8-0.1-3.6,0.1-5.4-0.1c-1.2,0.4-0.2,1.4-0.5,2
			c0.6,0,1.1,0,1.7,0.1c0.9,0.2,2,0.4,2.4,1.2c0.4,0.9-0.6,1.6-1.3,2.1c-0.5,0.3-0.9,0.8-1,1.3c-0.3,0.8-0.2,1.5,0.9,1.4
			c1,0,2,0,3,0c1,0,1.4-0.3,0.9-1.4c-0.5-0.2-1-0.3-1.5-0.5c-0.1,0.3,0.4,0.7-0.2,0.8c-0.4,0-0.9,0.2-1.2-0.2
			c-0.2-0.3,0.2-0.5,0.3-0.8c0.2-0.5,0.5-0.5,0.8-0.1c0.2-0.8,0.8-0.1,1.1-0.3c-0.2-0.7-0.7-1.4-0.1-2c0.1-0.1,0.9,0.3,1.1,0.8
			c0.2,0.1,0.4,0.2,0.6,0.2c0.3,0.1,0.7,0.4,0.8,0.3c0.3-0.3-0.1-0.6,0-1c0.1,0,0.1,0,0.2,0c0.8,0.6,1.5,1.5,2.6,1.1
			c1.1-0.5,1.1-1.7,1.3-2.7c0.1-0.8,0.2-1.6,0.4-2.6c0.5,0.6,0.3,1.2,0.4,1.7c0,0.2,0.1,0.4,0.2,0.6c0.2-0.1,0.4-0.2,0.5-0.3
			c0.7-0.7,1.4-1.4,2.2-2c-0.4,0.6-0.7,1.2-1.1,1.9c-0.2,0.3-0.4,0.8-0.4,0.9c0.3,0.3,0.6-0.1,0.9-0.3c0.7-0.3,1.3-0.7,2.3-1.2
			c-1.1,1.3-1.9,2.3-2.7,3.3c-0.4,0.5-0.8,1-0.5,1.7c0.3,0.6,1,0.6,1.6,0.6c1.6-0.1,3.2-0.1,4.8-0.1c-1.2,0.3-2.5,0.6-3.8,0.9
			c0.9,0.8,2.1,0.6,3.2,1.4c-1.2,0-2.2,0-3.4,0c0,0,0,0,0,0.1c0.8,0.7,1.8,0.7,2.7,1.3c-1.3,0-2.4,0.1-3.5,0c-1-0.1-1.1,0.4-0.8,1.2
			c0.6,1.9,1.2,3.8,1.6,5.8c-1-1.8-2-3.7-3-5.5c-0.1,0-0.2,0.1-0.3,0.1c0.3,1.5,0.6,2.9,0.9,4.4c0.1,0.2,0,0.3-0.1,0.3
			c0.2,0.8,0.5,1.6,0.6,2.4c-0.1-0.8-0.4-1.6-0.6-2.4c-0.1,0-0.1,0-0.2,0c-0.4-1.3-0.9-2.6-1.4-4.1c0,0,0,0-0.1,0
			c-0.5,1.5-0.3,2.8-0.5,4.1c-0.5-1.1-0.3-2.3-0.5-3.4c-0.1-0.5,0-1.1-0.7-1.3c-0.5-0.1-0.8,0.3-1.2,0.6c-0.8,0.6-1.1,1.6-2.2,1.9
			c0,0,0,0,0,0c0.1,0.7,0.2,1.4,0.3,2.1c0.4-0.4,0.7-0.7,1.1-1.1c0.2-0.2,0.4-0.6,0.9-0.4c0.4,0.2,0.3,0.6,0.3,0.9
			c0,0.3,0,0.6,0,0.9c0,3.7,2.1,6.6,5.6,7.6c0.5,0.1,0.9,0.1,1.2-0.3C23.6,118.2,24.6,113.7,21.1,110.2z"/>
		<path class="st3" d="M79.5,92.5c-2.8,0-4.9,2.1-4.9,5c0,3,1.9,4.9,4.9,4.9c3,0,4.9-1.9,4.9-5C84.4,94.5,82.4,92.6,79.5,92.5z
			 M79.7,100.4c-1.3,0-2.4-1.1-2.4-2.5c0-1.5,1-2.7,2.4-2.7c1.4,0,2.5,1.2,2.5,2.6C82.2,99.3,81.1,100.4,79.7,100.4z"/>
		<path class="st3" d="M152,91.1c-0.3,0.2-0.9,0.1-0.9,0.7c0,0.5,0.5,0.8,0.9,1c1.9,1.1,3.3,0.2,4.8-0.8c-0.2-1.2-0.3-2.4-0.5-3.6
			c-0.4,0.6-0.8,1.3-1.2,1.9c0.3-1,0.4-2,1.2-2.7c0,0,0,0,0,0c-0.2-0.9-0.5-1.8-0.7-2.7c-0.4,0.4-0.4,1-0.6,1.5
			C154.6,88.3,153.8,90.1,152,91.1z"/>
		<path class="st3" d="M111.6,70.7c-0.1-0.1-0.4,0-0.6,0.1c-0.9,0.5-2,0.6-3,0.7c-1.2,0.1-2.4,0.1-3.5,0.7c-0.5,1-1.4,1.4-2.4,1.8
			c-0.1,0.2-0.1,0.3-0.2,0.5c-0.2,0.3-0.2,0.9-0.7,0.9c-0.1,0-0.1-0.7-0.1-1.1c-0.5,0.1-1.1,0.2-1.6,0.3c0.2,1.3-0.2,2.6-0.8,3.7
			C98.5,78.6,98.3,79,98,79c-0.4,0-0.5-0.4-0.5-0.6c-0.1-2-1.4-2.9-3.2-3.4c0,0,0,0,0,0c-0.8,0-1.6-0.1-2.4-0.1
			c-0.1,0.4,0.1,0.7,0.3,1.1c1,1.5,2.5,2.5,3.9,3.5c1.2,0.9,1.3,1.4,0.4,2.6c-1.7,2.3-3.7,4.4-5.8,6.4c-0.4,0.4-0.8,0.8-0.9,1.4
			c0,0.2,0.1,0.4,0.1,0.6c0.2-0.1,0.3-0.1,0.5-0.2c3-2.4,6.1-4.6,8.1-8.1c0.6-1,2-1.2,3-0.4c0.7,0.5,1.3,1.1,1.6,1.9
			c0.5,1.3,1.6,1.7,2.8,2.1c0.4,0.1,1,0.2,1.2-0.1c0.3-0.3-0.2-0.7-0.4-1.1c-0.2-0.4-0.5-0.8-0.7-1.3c-0.8-2-1.5-3.8-4.2-3.6
			c-0.2,0-0.6-0.2-0.8-0.4c-0.2-0.3,0.2-0.5,0.4-0.7c0.9-1,2-1.1,3.2-0.8c1.6,0.4,2.6,1.6,3.7,2.7c0.2,0.2,0.4,0.4,0.6,0.4
			c0.3-0.1,0.3-0.4,0.3-0.8c0.3-2.7-2-4.6-4.7-3.8c-0.6,0.2-1.2,0.4-1.8,0.7c-0.3,0.1-0.6,0.2-0.7,0c-0.1-0.1,0.1-0.5,0.3-0.7
			c0.6-0.6,1.3-1,2-1.3c1.9-0.8,4-1.2,5.9-2.2c0.6-0.3,1-0.8,1.2-1.4C111.8,71.2,111.8,70.9,111.6,70.7z"/>
		<path class="st3" d="M131.7,69.8c2.1-0.1,3.6-1.5,3.7-3.6c-0.3-0.1-0.5,0.3-0.6,0.3c-0.9-0.2-2-0.9-2.4,0.7c0,0-0.1,0-0.1-0.1
			c-0.2-1-1.3-0.5-1.7-1c-0.6-0.8-1.1,0.1-1.6,0c-0.3,0,0.1-1.3-0.9-1.3c-1.1,0.2-2.3,0.3-3.4,0.5C125.4,67.7,129.2,69.9,131.7,69.8
			z"/>
		<path class="st3" d="M139.1,71.7c3.7,3.5,8.2,4.8,13.1,4.9c-0.4-0.6-0.7-1.3-1.3-1.8c-0.3-0.1-0.6-0.2-0.9-0.2
			c-3.5-0.2-6.4-1.6-8.9-4.1c-1.2-1.2-2.1-2.6-3.6-3.6c-1.3,0-1.3,0.8-0.8,1.7C137.4,69.8,138.1,70.8,139.1,71.7z"/>
		<path class="st3" d="M195.6,100.6c-0.1,0.3-0.1,0.7,0.2,0.9c0.2,0,0.3,0,0.5,0C196.2,101.1,196,100.8,195.6,100.6z"/>
		<path class="st3" d="M216.7,89.2L216.7,89.2c0,1.4,0,2.8-0.1,4.2h-6.5c-0.9,0.1-1.4,0.5-1.8,0.9c-1.1,0.2-2.2,0.4-3.4,0.3
			c-1.6-0.1-3.2-0.1-4.8-0.2c1.3,2.3,1.3,2.3,4,1.8c0.5-0.1,1-0.2,1.5-0.3c0.7-0.2,1.4-0.3,2.1-0.5c0,0,0,0,0,0
			c3.2-0.7,7.7-1.5,10.4-2.1h-0.6c0.3-0.1,0.6-0.1,1,0c0.1-1.5,0.2-3,0.2-4.5C218.1,89.4,217.5,89.6,216.7,89.2z"/>
		<path class="st3" d="M97.2,94.9c0.9-0.2,1.9-0.3,2.8-0.5c1.3-0.4,2.1-1.6,2.2-2.7c0.1-0.7-1.3-0.6-2-0.9c-0.1,0-0.2-0.1-0.2-0.1
			c-3.8-1.3-7.4-0.6-10.9,1c-0.3,0.1-1,0.5-0.5,0.7c1,0.4,1.7,1.6,3,1.3c1.3-0.3,2.7-0.2,4-0.3c0.4,0.2,1-0.2,1.3,0.3
			c-1.4,0.1-2.7,0.4-4,0.9c-0.4,0.1-0.8,0.4-0.8,0.9c0,0.2,0.4,0.3,0.7,0.3c0.7-0.1,1.3,0.1,1.9,0.3c-0.4,0.7-1.1,0.5-1.7,0.7
			c-0.8,0.3-0.5,0.9-0.5,1.3c-0.1,0.6,0.5,0.3,0.7,0.3c2.4,0.5,4.9,0.2,7.4,0.3c0.4,0.4,0.9,0.2,1.3,0.2c0.7,0.1,1.4-0.3,2.1,0.3
			c-2.6,0.1-5.2,0.2-7.8,0.3c-0.8,0-1.6,0.1-2.4,0.3c-0.2,0-0.4,0.2-0.5,0.3c0.2,0.1,0.4,0.1,0.6,0.2c0.7,0.3,1.5,0.3,2,1
			c-0.8-0.4-1.8-0.2-2.7-0.4c-0.7-0.2-2-0.1-2.2,0.5c-0.2,0.6,1.1,0.4,1.6,0.7c0.3,0.2,0.7,0.1,1,0.3c1.2,0.6,2.6,0.5,3.8,1.9
			c-2.4-0.8-4.5-1.3-6.6-1.6c-0.7-0.1-1.9,0-1.9,0.4c-0.1,0.8,0.3,1.7,1.2,2.1c0.2,0.1,0.4,0.2,0.6,0.3c1.5,0.5,2.9,1.1,4.4,1.5
			c1.9,0.6,3.8,0.4,5.7-0.4c1.2-0.5,1.3-1.3,0.4-2.2c-0.8-0.8-1.7-1.2-2.9-1.2c-0.6,0-1.3-0.1-1.5-0.8c-0.1-0.2,0-0.6,0.1-0.7
			c0.5-0.4,1.1-0.4,1.7-0.1c0.8,0.4,1.6,0.4,2.4,0.3c2.6-0.5,5-1.8,7.5-2.9c0.4-0.2,0.7-0.4,0-0.6c-3.5-0.8-6.7-3.9-10.7-1.8
			c-0.1,0-0.2,0-0.3,0c-0.6,0-0.9-0.3-1.1-0.8C96.2,95.1,96.8,95,97.2,94.9z"/>
		<path class="st3" d="M70,90.8c0.7,0.3,1,0.4,0.8-0.6c-0.3-1.3-1-2.4-1.4-3.9c0.3,0.3,0.5,0.4,0.6,0.6c0.3,0.4,0.5,1.2,1.2,1
			c0.3-0.1,0-1-0.1-1.5c-0.3-1.3-0.8-2.6-0.9-4.1c0.6,0.2,0.7,0.7,0.8,1.2c0.3,0.9,0.5,1.9,0.9,2.8c0.1,0.3,0.1,0.9,0.7,0.7
			c0.5-0.1,0.8-0.4,0.7-0.9c0-0.3-0.1-0.7-0.2-1c0-0.2,0-0.4,0-0.6c0.2,0.1,0.4,0.2,0.5,0.3c0.3,0.2,0.8,0.8,0.8,0.4
			c0.2-1.2,0.7-0.7,1.3-0.4c0.4,0.2,0.4-0.2,0.4-0.4c0.1-0.4,0.2-0.9,0.4-1.3c0.5,0.4,0.3,1,0.6,1.5c0.2,0.3,0.2,0.9,0.6,0.9
			c0.4,0,0.4-0.6,0.5-0.9c0.4-1.4,0.1-2.8,0.3-4.3c0.3,0.3,0.2,0.6,0.2,0.9c0.2,1.3,0.3,2.7,0.6,4c0.2,0.8,0.8,1.6,1.5,1.7
			c0.5,0.1,0.5-0.9,0.6-1.5c0.1-0.6-0.3-1.3,0.3-1.8c0.4,0.6,0.5,1.3,0.5,2c0,0,0,0.1,0,0.1c0,0.4-0.1,0.8,0.5,0.9
			c0.5,0.1,0.8-0.2,1-0.6c0.1-0.2-0.1-0.6,0.2-0.8c0.1,0.3,0.3,0.5,0.3,0.8c0.1,0.6,0.3,0.9,0.9,0.9c0.6,0,0.8-0.5,0.9-0.9
			c0.2-0.6,0.2-1.4,0.3-2c0-0.1,0.1-0.3,0.2-0.4c0.1,0.1,0.3,0.2,0.3,0.4c0,0.5,0.2,1,0,1.4c-0.5,1.4,0,2.5,0.7,3.6
			c0.6,1,1,0.7,1.4,0c0.2-0.3,0.2-0.7,0.3-1.1c0.4-0.8,0.4-1.6,0-2.4c0,0,0,0,0,0c0-1.7-0.6-3.2-0.9-4.8c-0.1-0.6,0.2-1.6-0.3-1.7
			c-0.9-0.2-1.6,0.6-2.2,1.2c-0.4,0.5-0.6,1-0.8,1.6c-0.2,0.7,0.1,1.8-0.9,1.9c-1.2,0-0.9-1.2-1.1-1.9c-0.4-1.6-2.7-4.1-4.3-4.3
			c-0.4-0.1-0.8,0.1-1.1,0.3c-1.3,1-2.1,2.3-2.2,3.9c-0.1,0.7,0.5,1.9-0.6,2.1c-0.9,0.2-1.4-0.8-1.8-1.4C72,80,70.2,79.9,68.4,80
			c-0.4,0-0.6,0.2-0.5,0.6c0.1,1.7-0.5,3.3-0.8,5C66.8,87.5,68.4,90.2,70,90.8z"/>
		<path class="st3" d="M90.3,111.9c0-1.6,0.3-3.2-0.2-4.7c0,0,0,0,0,0c-0.1-0.8-0.7-1.3-1.3-1.4c-0.4,0-0.4,0.8-0.6,1.3
			c-0.1,0.3-0.2,0.6-0.5,0.8c-1.2,0.8-0.7,1.8-0.4,2.8c0.2,0.7,0.4,1.5,1,2.1c0.1,0.1,0.1,0.5,0.1,0.6c-0.3,0.2-0.4-0.2-0.5-0.4
			c-0.8-1-1-2.3-1.7-3.3c-0.3-0.5-0.6-0.5-1.1-0.5c-0.5,0-0.6,0.3-0.8,0.7c-0.2,0.5,0.2,1.4-0.3,1.4c-0.6,0-0.7-1-1.1-1.5
			c-0.2-0.3-0.4-0.6-0.7-0.8c-1.2-0.7-1.6-0.4-1.7,0.9c-0.1,2.1,0.2,4.3-0.4,6.4c-0.4-0.6-0.4-1.3-0.4-2c0.1-2-0.1-4.1-0.6-6
			c-0.1-0.4-0.2-0.8-0.6-0.9c-0.4-0.1-0.7,0.4-0.9,0.6c-0.9,1-1,2.4-1.8,3.7c0-0.9,0.1-1.5,0-2.1c0-0.4,0.4-1.1-0.5-1.2
			c-0.7-0.1-1.2,0.2-1.5,0.9c-0.6,1.3-1.2,2.5-1.9,3.7c-0.1,0.2-0.1,0.4-0.3,0.3c-0.3-0.1-0.2-0.3-0.1-0.5c0.4-1.1,0.9-2.2,1.3-3.4
			c0.7-2.1-1.2-4.1-3.4-3.6c-1.1,0.3-2.2,0.6-3.2,0.9c-0.3,0.1-0.6,0.1-0.7-0.2c-0.1-0.4,0.3-0.4,0.5-0.4c1.3-0.7,2.6-1.3,3.9-1.9
			c0.2-0.1,0.5-0.4,0.4-0.6c-0.1-0.3-0.4-0.2-0.7-0.2c-0.8,0-1.5,0-2.3,0c0.9-0.6,1.9-0.9,2.9-1.3c0.2-0.1,0.7-0.2,0.2-0.3
			c-1.2-0.3-2.2-1.3-3.4-1.4c-1.7-0.2-3.4-0.1-5.1,0.1c-2.2,0.2-4.5,0.1-6.8,0.1c-0.2,0-0.5-0.1-0.5-0.3c0-0.3,0.3-0.2,0.5-0.2
			c1.6-0.1,3.2-0.2,4.8-0.3c1.9-0.2,3.8-0.3,5.7-0.6c0.5-0.1,1.4,0,1.4-0.6c0.1-0.7-0.9-0.4-1.3-0.7c-0.1-0.1-0.3-0.1-0.5-0.2
			c0.1-0.1,0.2-0.3,0.3-0.3c0.8-0.1,1.2-0.5,1.1-1.4c-0.1-1-0.9-0.8-1.5-1c-1-0.2-1.9-0.4-3-1.1c0.6,0,0.8,0,1,0
			c2,0.1,4,0.8,5.8-0.7c0.4-0.3,0.4-0.3,0.1-0.6c-0.8-0.9-1.8-1.4-3-1.5c-2.7-0.2-4.8,1.5-7.2,2.2c-0.3,0.1-0.2,0.4,0,0.5
			c1.3,0.7,2,2.3,3.9,2.1c0.5-0.1,0.8,0.2,1.1,0.6c0.2,0.3-0.1,0.6-0.3,0.8c-0.3,0.3-0.7,0.2-1.1,0c-1.5-0.8-3-0.6-4.6,0.1
			c-2.6,1-5,2.5-7.9,2.8c-0.1,0-0.3,0-0.2,0.2c0.1,0.2,0.3,0.3,0.5,0.4c2.4,0.9,4.8,1.6,7.2,2.6c2,0.8,4.1,0.2,6.1,0.2
			c0.6,0,1.3,0,1.4,0.7c0.1,0.9-0.7,0.6-1.3,0.7c-1.6,0.1-2.7,0.9-3.3,2.3c-0.3,0.7-0.3,1.1,0.7,1.1c0.8,0,1.6,0.3,2.4,0.6
			c2.3,0.7,4.5,0.7,6.3-1.3c0.3-0.3,0.7-0.9,1.3-0.3c0.5,0.5,0.3,1-0.1,1.5c-1.5,1.6-1.5,3.5-1.4,5.5c0.1,1.8,0.7,2.2,2.5,1.5
			c1.1-0.4,2.2-0.9,2.3-2.3c0-0.4,0.4-0.8,0.8-0.7c0.4,0.1,0.6,0.5,0.5,0.9c-0.6,2.5,0.9,3.9,2.7,5.2c1.4,1,2.4,1.5,3.7-0.1
			c1.2-1.6,3.7-2.6,2.2-5.3c-0.2-0.3,0-0.6,0.3-0.8c0.3-0.2,0.5,0,0.7,0.2c0.2,0.3,0.5,0.6,0.7,0.9c0.9,1.6,2.4,2.4,4.3,2.1
			c0.7-0.1,1-0.4,0.6-1.1C90.5,113.6,90.3,112.8,90.3,111.9z"/>
		<path class="st3" d="M34,132.7c-1.3,0.2-1.5,1.3-2.2,2c-0.3,0.3-0.6,0.6-1.1,0.5c-0.5-0.1-0.5-0.5-0.6-0.9
			c-0.2-0.6-0.1-1.3-0.5-1.8c-0.8-1.2-2.6-1.8-4.5-1.3c-1.3,0.3-2.1,1.6-2.1,3.6c1.4,1.3,3.1,2.2,4.8,3.1c0-0.9,0-1.9,0-2.8
			c0.7,1.1,0.8,2.7,1.8,3.7c0,0,0,0,0,0c0,0,0,0,0,0c0.1,0.3,0.3,0.2,0.5,0.2c1.5-0.4,2.7-1.2,4.2-2.1c-0.6,1.1-1.5,1.8-1.9,2.9
			c0.9,0.5,1.9,0.5,2.8,0.8c0.1-1,1-1.3,1.6-1.7c1.7-1,2-1.7,1.1-4C37.4,133.6,36,132.4,34,132.7z"/>
		<path class="st3" d="M36.6,62.5c-1.2,0-2.4,1.2-2.4,2.5c0,1.7,1.1,3,2.7,3.1c1.4,0,2.5-1.2,2.5-2.7C39.4,63.7,38.3,62.5,36.6,62.5
			z M36.9,65.5c-0.2,0-0.4-0.1-0.4-0.4c0-0.2,0.2-0.4,0.4-0.4c0.2,0.1,0.4,0.2,0.4,0.4C37.3,65.4,37.1,65.5,36.9,65.5z"/>
		<path class="st3" d="M87.7,100.9c2.2,0,3.4-1.2,3.4-3.3c0-3-1.2-3.9-4.1-3.3c-0.5,0.1-1,0.3-1.4-0.2c-0.4-0.6,0.3-0.8,0.5-1.2
			c0.1-0.2,0.2-0.4,0.4-0.5c1-0.8,1-1.9,0.5-2.9c-0.5-1.2-1.3-2-2.8-2.2c-1.9-0.2-2.7,1-3.3,2.4c-0.2,0.4-0.4,1-0.9,0.9
			c-0.7-0.1-0.4-0.7-0.5-1.1c-0.3-1,0.1-2.2-0.9-3c-1.4-1.1-4.6-0.1-5.3,1.6c-0.6,1.4,0,2.6,0.7,3.8c0.3,0.5,0.6,1.1,0.2,1.6
			c-0.3,0.4-0.9,0.1-1.3,0c-2-0.5-3.2,0-4,1.6c-1.3,2.7,0.3,5.3,3.3,5.4c0.4,0,0.9-0.2,1.2,0.3c0.3,0.5-0.1,0.8-0.3,1.1
			c-1.2,1.9-0.6,3.5,1.6,4.8c1.5,0.9,2.8,0.4,3.8-1.3c0.2-0.3,0.2-0.9,0.8-0.9c0.5,0.1,0.6,0.6,0.7,1c1.1,2.2,2.1,2.9,4.5,2.6
			c1.4-0.2,2.5-0.8,3.1-2.2c0.5-1.2,0.1-2.2-0.6-3.1c-0.3-0.4-1-0.8-0.7-1.4C86.5,100.6,87.2,100.9,87.7,100.9z M88.5,97.6
			c0.2-0.1,0.3,0,0.5,0.4c0,0-0.1,0.1-0.3,0.1c-0.2,0.1-0.3,0-0.4-0.2C88.3,97.8,88.4,97.6,88.5,97.6z M70.4,97
			c-0.1,0.2-0.3,0.2-0.4,0.1c-0.1-0.1-0.2-0.3-0.1-0.4c0.1-0.1,0.2-0.1,0.3-0.1C70.4,96.7,70.5,96.8,70.4,97z M84,89.9
			c0.2-0.1,0.3,0,0.5,0.4c0,0-0.1,0.1-0.3,0.1c-0.2,0.1-0.3,0-0.4-0.2C83.8,90.1,83.9,90,84,89.9z M75.9,89c0.2-0.1,0.3,0.1,0.3,0.3
			c0,0.2,0,0.4-0.3,0.3c-0.1,0-0.2-0.2-0.4-0.3C75.7,89.2,75.7,89,75.9,89z M75.2,104.8c-0.2,0.1-0.3,0-0.4-0.2
			c0.1-0.1,0.1-0.2,0.2-0.2c0.2-0.1,0.3,0,0.4,0.2C75.4,104.6,75.3,104.7,75.2,104.8z M84.5,105.2c0,0.1-0.2,0.3-0.3,0.3
			c-0.1,0-0.3-0.2-0.3-0.3c0-0.1,0.1-0.3,0.1-0.3C84.4,104.9,84.5,105,84.5,105.2z M79.5,103.6c-3.5-0.1-5.7-2.4-5.7-5.9
			c0-3.5,2.6-6.1,6-6.2c3.1,0,5.5,2.6,5.5,6C85.3,101,82.8,103.7,79.5,103.6z"/>
	</g>
	<g class="st5">
		<path class="st3" d="M32.3,139.8c0.4-1,1.2-1.7,1.9-2.9c-1.5,0.9-2.8,1.7-4.2,2.1C30.7,139.5,31.5,139.8,32.3,139.8z"/>
		<path class="st3" d="M27.7,138c0.5,0.4,1.2,0.7,1.8,0.9c-1-1-1.1-2.6-1.8-3.7C27.7,136.1,27.7,137,27.7,138z"/>
		<path class="st3" d="M101,74.3c0,0.4,0.1,1.1,0.1,1.1c0.6,0,0.5-0.6,0.7-0.9c0.1-0.1,0.1-0.3,0.2-0.5
			C101.7,74,101.4,74.2,101,74.3z"/>
		<path class="st3" d="M99.4,74.6c-1.7,0.1-3.4,0.2-5.1,0.3c1.7,0.5,3,1.4,3.2,3.4c0,0.3,0.1,0.6,0.5,0.6c0.4,0,0.5-0.4,0.6-0.6
			C99.2,77.2,99.6,76,99.4,74.6z"/>
		<path class="st6" d="M16,105.6c-0.1,0-0.3,0.1-0.4,0.3c0,0.3,0.1,0.4,0.3,0.5c0.3,0,0.6,0,0.5-0.4C16.6,105.8,16.4,105.7,16,105.6
			z"/>
		<path class="st3" d="M20.2,104.1c-0.6,0-1.3,0-1.6-0.6c-0.3-0.6,0.1-1.2,0.5-1.7c0.8-1,1.6-2,2.7-3.3c-1,0.5-1.6,0.9-2.3,1.2
			c-0.3,0.1-0.5,0.5-0.9,0.3c-0.1,0,0.2-0.6,0.4-0.9c0.3-0.6,0.7-1.2,1.1-1.9c-0.9,0.6-1.5,1.3-2.2,2c-0.1,0.1-0.3,0.2-0.5,0.3
			c-0.1-0.2-0.1-0.4-0.2-0.6c-0.1-0.5,0.1-1.2-0.4-1.7c-0.1,0.9-0.2,1.8-0.4,2.6c-0.2,1-0.2,2.2-1.3,2.7c-1.1,0.5-1.8-0.5-2.6-1.1
			c0,0-0.1,0-0.2,0c-0.1,0.3,0.4,0.7,0,1c-0.1,0.1-0.5-0.2-0.8-0.3c-0.2-0.1-0.4-0.2-0.6-0.2c0.4,0.9,0.2,1.8,0.3,2.8
			c0.7,0.3,1.4,0.6,1.4,1.3c0,0.7-0.5,1.1-1.2,1.4v0l0,0c-0.5,1,0.2,1.9,0,2.9c0,0.2,0.2,0.2,0.4,0.2c0.9-0.3,0.4,0.2,0.3,0.5
			c-0.1,0.4-0.3,0.7-0.4,1.1c1.1-0.3,1.4-1.3,2.2-1.9c0.4-0.3,0.7-0.8,1.2-0.6c0.6,0.2,0.6,0.8,0.7,1.3c0.2,1.1,0,2.2,0.5,3.4
			c0.2-1.4-0.1-2.7,0.5-4.3c0.5,1.6,1,2.9,1.4,4.2c0.2,0.1,0.4,0,0.3-0.3c-0.3-1.5-0.6-2.9-0.9-4.4c0.1,0,0.2-0.1,0.3-0.1
			c1,1.8,2,3.7,3,5.5c-0.4-2-1-3.9-1.6-5.8c-0.3-0.8-0.2-1.3,0.8-1.2c1.1,0.1,2.2,0,3.5,0c-0.9-0.7-1.9-0.5-2.8-1.4
			c1.3,0,2.3,0,3.5,0c-1.1-0.8-2.3-0.6-3.2-1.4c1.3-0.3,2.6-0.6,3.8-0.9C23.4,103.9,21.8,104,20.2,104.1z M16.3,108.3
			c-1.2,0-1.9-0.9-1.9-2.3c0-1.3,0.8-2.2,1.9-2.2c1.1,0,1.9,0.9,1.9,2.3C18.2,107.4,17.4,108.3,16.3,108.3z"/>
		<path class="st3" d="M159,98.7c4.8,0.6,8.3-1.8,11.4-5c-0.4,0-0.8,0-1.2,0C166.5,96.7,162.8,97.9,159,98.7z"/>
		<path class="st3" d="M83.9,104.8c0,0-0.1,0.2-0.1,0.3c0,0.1,0.2,0.3,0.3,0.3c0.1,0,0.3-0.1,0.3-0.3
			C84.5,105,84.4,104.9,83.9,104.8z"/>
		<path class="st3" d="M76.2,89.3c0-0.2-0.2-0.3-0.3-0.3c-0.1,0-0.2,0.2-0.3,0.3c0.1,0.1,0.2,0.2,0.4,0.3
			C76.1,89.6,76.2,89.4,76.2,89.3z"/>
		<path class="st3" d="M70.2,96.7c-0.1,0-0.3,0-0.3,0.1c-0.1,0.2,0,0.3,0.1,0.4c0.2,0.1,0.3,0.1,0.4-0.1
			C70.5,96.8,70.4,96.7,70.2,96.7z"/>
		<path class="st3" d="M74.9,104.3c-0.1,0-0.1,0.2-0.2,0.2c0.1,0.2,0.3,0.3,0.4,0.2c0.1-0.1,0.2-0.2,0.2-0.3
			C75.3,104.3,75.1,104.3,74.9,104.3z"/>
		<path class="st3" d="M88.5,97.6c-0.1,0-0.2,0.2-0.2,0.3c0,0.2,0.2,0.3,0.4,0.2c0.1,0,0.2-0.1,0.3-0.1
			C88.8,97.6,88.7,97.5,88.5,97.6z"/>
		<path class="st3" d="M84.1,90.4c0.1,0,0.2-0.1,0.3-0.1c-0.1-0.4-0.3-0.4-0.5-0.4c-0.1,0-0.2,0.2-0.2,0.3
			C83.8,90.4,84,90.4,84.1,90.4z"/>
		<path class="st3" d="M36.9,64.7c-0.2,0-0.4,0.2-0.4,0.4c0,0.3,0.2,0.4,0.4,0.4c0.2,0,0.4-0.1,0.4-0.4
			C37.3,64.9,37.1,64.8,36.9,64.7z"/>
		<path class="st6" d="M140.5,130.5c0.4-0.2,0.8-0.4,1.3-0.6C141.1,129.7,140.7,129.8,140.5,130.5z"/>
		<path class="st3" d="M134.1,124.7c-0.5,1.3-0.6,2.4-0.6,3.5c0,0.5,0.2,1.2-0.4,1.4c-0.7,0.2-0.7-0.6-0.9-1.1c-0.5-1-0.9-2-1.4-2.9
			c-0.1-0.3-0.2-0.7-0.6-0.6c-0.4,0.1-0.2,0.6-0.1,0.9c0.3,1,0.6,2,0.9,3c0.1,0.4,0.3,0.9-0.1,1.2c-0.4,0.2-0.7-0.3-0.9-0.6
			c-0.7-0.7-1.4-1.4-2.1-2.1c-0.3-0.3-0.7-0.7-1-0.5c-0.4,0.3,0.1,0.7,0.4,0.9c1,1.4,2.1,2.6,2.8,4.2c2.1,0.1,4.2,0,6.3-0.5
			C133.8,129.9,134.9,127.1,134.1,124.7z"/>
		<path class="st3" d="M216.6,82.1c-1,0.1-1.9,0.6-2.1,1.6c-0.2,1.1-0.6,2.7,0.8,3.3c1.1,0.5,1.3,1.2,1.4,2.2
			c0.8,0.4,1.4,0.2,2.1-0.3c0.5-0.4-0.1-1.3,0.9-1.5c1.2-0.3,1.3-1.3,1.2-2.3C220.4,82.7,219.2,81.8,216.6,82.1z"/>
		<path class="st3" d="M225.6,83.4c-1.2-0.4-2.5-0.5-3.5,0.6c-0.9,1-1.1,3.1-0.5,4.1c1.9,0.5,3.7-0.3,5.4-0.8
			c0.3-0.1,0.4-0.3,0.5-0.5C227.7,84.9,227.1,83.8,225.6,83.4z"/>
		<path class="st3" d="M145.5,112c-4.8-0.3-9.7-0.1-14.7-0.7c0.8,0.7,1.6,0.9,2.4,1c2.1,0.3,4.3,0.5,6.5,0.5c3.4,0,6.8,0,10.1,0.5
			c1.9,0.3,3.5,1.1,5.3,1.6c0.1-0.2,0.2-0.5,0.2-0.7c-0.4-0.2-0.8-0.4-1.2-0.6C151.3,112.6,148.4,112.2,145.5,112z"/>
		<path class="st3" d="M102.4,120c-0.6,0.1-0.1,1.2-0.3,1.8c0,0.1,0,0.2,0,0.3c0.7,0.4,1.4,0.9,2.1,1.3c0.1-0.6-0.2-1.2-0.5-1.7
			C103.4,121,103.1,119.9,102.4,120z"/>
		<path class="st3" d="M99.8,119.3c-0.4-0.2-0.4,1-0.8,1.4c-0.2,0.2-0.4,0.5-0.3,0.8c0.5-0.1,1,0.3,1.5,0c0-0.1,0-0.3,0-0.4
			C100.3,120.5,100.4,119.5,99.8,119.3z"/>
		<path class="st3" d="M8.8,103.3c0,0.1,0.1,0.2,0.3,0.3c0.5,0.2,1,0.3,1.5,0.5c-0.2-0.4-0.5-0.7-0.7-1.1
			C9.6,103.2,9,102.5,8.8,103.3z"/>
		<path class="st3" d="M79.7,95.2c-1.3,0-2.4,1.2-2.4,2.7c0,1.4,1.1,2.5,2.4,2.5c1.4,0,2.5-1.2,2.5-2.6C82.2,96.3,81,95.2,79.7,95.2
			z"/>
		<path class="st3" d="M79.9,91.5c-3.5,0-6,2.6-6,6.2c0,3.5,2.3,5.8,5.7,5.9c3.2,0.1,5.8-2.6,5.8-6.1C85.4,94.1,83,91.5,79.9,91.5z
			 M79.5,102.5c-3,0-4.9-1.9-4.9-4.9c0-2.9,2.1-5,4.9-5c2.9,0,4.9,2,4.9,4.9C84.4,100.5,82.5,102.5,79.5,102.5z"/>
		<path class="st3" d="M156.4,88.4c0-0.3,0-0.5,0-0.8c-0.8,0.7-0.9,1.7-1.2,2.7C155.5,89.7,155.9,89,156.4,88.4z"/>
	</g>
	<path class="st3" d="M219.4,39.2c0.8-0.1,1.4,0.1,2,0.6c0.9,0.7,0.9,1.8-0.1,2.4c-1,0.7-2.8,0.7-3.8,0.1c-1-0.7-1.1-1.9,0-2.5
		C218.1,39.4,218.7,39.2,219.4,39.2z"/>
</g>
<g>
	<path class="st3" d="M48,30.7c-0.2,0-0.4,0.1-0.5,0.2c-0.6,0.4-1.3,0.8-1.8,1.4c-1.1,1.1-1.8,2.5-2.1,4.1c0,0.1,0,0.2-0.1,0.3
		c-0.2,1-0.2,1.8-0.2,1.8l-0.3-1.2c0,0,0,0,0,0c0-0.1,0-0.3,0-0.4l0-0.1c0,0,0,0,0,0C43,35.7,43,34.9,43.3,34
		c0.2-0.6,0.4-1.1,1.2-1.1c0.1,0,0.2-0.1,0.3-0.2c0.2-0.2,0.2-0.5,0.1-0.8c-0.2-0.2-0.4-0.3-0.6-0.2c-0.6,0.3-1.1,0.7-1.3,1.3
		c-0.2,0.7-0.3,1.5-0.5,2.2c-0.1,0.3-0.1,0.5-0.2,1.1c-0.3-0.5-0.5-0.7-0.6-0.9c-0.4-0.5-0.8-1.1-1.3-1.5c-0.3-0.4-0.7-0.6-1.2-0.6
		c-0.3,0-0.6,0.1-0.8,0.4c0,0.1,0,0.3,0.1,0.4c0.2,0.2,0.5,0.2,0.8,0.1c0.4-0.2,0.6-0.1,0.9,0.2c0.7,0.6,1.1,1.4,1.6,2.2
		c0.2,0.4,0.3,0.8,0.3,1.5c-0.3-0.3-0.4-0.5-0.5-0.6c-1.2-1.6-2.8-2.7-4.7-3.4c-1-0.3-2-0.4-2.9,0.3c-0.4,0.3-0.6,0.6-0.5,1
		c0.1,0.6,0.2,1.1,0.7,1.6c0.6,0.6,1.2,1.3,1.7,2c0.8,1.2,1.6,2.4,3.2,2.9c0,0,0,0.1-0.1,0.2c-0.1,0.3-0.2,0.6-0.3,0.9
		c-0.5,1.5-0.9,4.2,1.8,4.8l0,0c0.3,0.1,0.7,0.1,1-0.1c0.6-0.3,1.1-0.7,1-1.5c-0.1-1.2,0.5-2.3,0.9-3.3c0.1,0,0.1,0,0.2,0
		c0.4,1.2,1,3.3,1.2,2.8c0.2-0.4-0.1-1.8-0.3-3c0.2-0.2,0.5-0.1,0.7,0.1c0.3,0.2,0.6,0.5,0.8,0.8c0.4,0.5,0.7,1.1,1,1.6
		c0.2,0.2,0.4,0.5,0.7,0.6c0.4,0.1,1,0.3,1.4-0.1c0.4-0.4,1-0.7,0.9-1.5c-0.1-1.2,0-1.2-0.4-2.3c-0.3-1-0.9-1.6-1.7-2.3
		c1-1,1.3-2.2,1.4-3.5c0.1-0.8,0.3-1.6,0.4-2.3c0.1-0.5,0.2-1.1,0.2-1.6C49.9,31,49.2,30.4,48,30.7z"/>
</g>
</svg>
