<?xml version="1.0" encoding="utf-8"?>
<!-- Generator: Adobe Illustrator 23.0.2, SVG Export Plug-In . SVG Version: 6.00 Build 0)  -->
<svg version="1.1" id="Layer_1" xmlns="http://www.w3.org/2000/svg" xmlns:xlink="http://www.w3.org/1999/xlink" x="0px" y="0px"
	 viewBox="0 0 742.3 141.6" style="enable-background:new 0 0 742.3 141.6;" xml:space="preserve">
<style type="text/css">
	.st0{fill:#6DBAC3;}
	.st1{fill:#7CAEBC;}
	.st2{fill:#3583A0;}
	.st3{fill:#055983;}
	.st4{fill:#EC178C;}
	.st5{fill:#FCBB74;}
	.st6{fill:#008C98;}
	.st7{opacity:0.5;}
	.st8{fill:#FFFFFF;}
	.st9{opacity:0.13;}
	.st10{fill:#01FF84;}
	.st11{fill:#88C6CE;}
</style>
<g>
	<g>
		<path class="st0" d="M11.6,97.8c-2.3-0.2-4.6,0.3-6.8-0.2C7,97.7,9.3,97.3,11.6,97.8z"/>
		<path class="st1" d="M130,65c0.1,0,0.2,0,0.3,0c0.1,0,0.3,0,0.4,0c0.4,0.3,1,0.2,1.3,0.7c0,0-0.1,0.2-0.2,0.2
			c-0.6,0.1-1.1-0.2-1.5-0.6C130.2,65.2,130.2,65.1,130,65z"/>
		<path class="st2" d="M18.3,114.3c0.1-0.1,0.2-0.2,0.3-0.3c0.5,0.9,0.4,1.9,0.5,2.9C18.8,116,18.6,115.1,18.3,114.3z"/>
	</g>
	<g>
		<path class="st3" d="M521.5,123.1c-0.3,0.2-0.7,0.7-1.4,1.5l-1.9,3.3c-2-1.5-4.2-2.3-6.6-2.3c-0.4,0-0.6,0.1-0.7,0.2
			c-0.2,0.3-0.3,0.9-0.3,1.8c0,0.2,0,1,0,2.4c0,1.4,0,2.5,0,3.2c0,1.2,0,2-0.1,2.4c-0.2,1.5-0.3,2.5-0.5,3.1c-0.8,0.4-2,1.3-3.7,2.7
			v-7.1l0.8-0.4l-0.8-1.5v-14.9l0.3-0.9l-0.3-5.4c0-0.5,0-1.2,0-2.1c0-1.1,0-1.8,0-2c0-1.3-0.1-2.2-0.4-2.6
			c-0.2-0.5-0.4-0.8-0.4-0.8c-0.4-0.5-0.9-0.7-1.5-0.8l0.1-0.8h8.6l2.1,0.7l2.6-0.7h3.9l-0.7,1.9c-0.2,0.3-0.3,0.9-0.4,1.8
			c-0.1,1.1-0.2,1.8-0.3,2.2c-0.9-1.5-1.9-2.4-3.1-3c-1-0.5-2.5-0.7-4.4-0.7c-0.8,0-1.4,0.1-1.6,0.3c0.1,0.5,0,1.8-0.2,3.9l-0.4,1.7
			l0.4,6.5v6.5l2.5,0.3l1.4-0.3l3.1,0.6l1.2-0.6H521.5z"/>
		<path class="st3" d="M547.5,118.4l-0.8,4.4c-0.2,0.5-0.5,0.9-0.8,1.3c-0.7,0.9-1.5,1.6-2.4,2c-2.3,1.1-4.8,1.6-7.3,1.6
			c-2.2,0-4.1-0.3-5.8-1c0.1-0.5,0.2-0.8,0.3-0.9c-0.1,0-0.1,0-0.2,0c-0.5,0.1-1.1,0.1-1.7,0.1c-0.8-0.4-1.5-0.9-2.2-1.4
			c-3-2.2-4.5-5.4-4.5-9.6c0-3.8,1.2-7,3.6-9.5c0.6-0.6,1.3-1.2,2-1.7c0.1,0,0.1,0.2,0.2,0.7c0.1,0.5,0.1,0.7,0.2,0.7
			c0.2-0.7,0.5-1.3,0.8-2c2.2-1.1,4.3-1.6,6.3-1.6c2.6,0,4.7,0.1,6.3,0.4c0.7,0.3,1.9,0.6,3.4,0.9c0.1-0.3,0.8-0.8,1.9-1.7v5.6
			l0.1,7h-1.5c-1.4-1-2.9-1.5-4.5-1.5H527c-0.2,0.6-0.8,1.4-1.9,2.5c0,0,0.2,0.1,0.5,0.3c0.3,0.2,0.4,0.3,0.4,0.4
			c0,1.3,0.3,2.4,0.9,3.6c0.5,0.9,1.4,1.9,2.5,3.1c2,2.1,4.5,3.1,7.5,3.1c1.2,0,2.8-0.4,4.8-1.4c0.9-0.4,1.6-0.8,2-1.1
			c0.2-0.2,0.9-0.9,2-2c0.5-0.4,0.9-1,1.4-1.6C547.2,118.9,547.3,118.7,547.5,118.4z M544.3,107.7c-0.8-0.9-1.3-1.3-1.3-1.4
			c-0.6-0.6-1.1-0.9-1.5-1.1c-1.6-0.7-3.2-1-4.7-1c-1.7,0-3.4,0.6-5.4,1.8c-1.8,1.1-3.2,2.4-4.2,3.9l13.6,0.2c0.5,0,1.1-0.3,1.8-0.9
			C543.6,108.3,544.2,107.8,544.3,107.7z"/>
		<path class="st3" d="M573,120.4c0,1.9-0.9,3.7-2.7,5.3c-0.7,0.6-1.5,1-2.4,1.4c-0.1,0.1-0.3,0-0.6-0.3c-0.2-0.3-0.4-0.4-0.6-0.4
			c-0.1,0-0.3,0.2-0.5,0.7c-0.3,0.4-0.4,0.6-0.5,0.7c-1.1,0.2-2.4,0.3-3.8,0.3c-2.9,0-5.5-0.5-7.6-1.6c-2.8-1.3-4.2-3.2-4.2-5.8
			c0-0.6,1-1.4,2.9-2.5c1.6-0.9,2.9-1.4,4-1.6c-0.2,0.4-0.6,1.1-1,1.9c-0.4,0.9-0.7,1.6-0.7,2.2c0,1.7,0.6,3.1,1.9,4
			s3.1,1.4,5.3,1.4c1.3,0,2.5-0.5,3.8-1.4c1.3-1,2-2.1,2-3.4c0-2.4-1.4-4-4.3-4.9c-1.7-0.5-4.4-1.3-7.8-2.3
			c-0.9-0.4-1.6-0.9-2.3-1.4c0,0,0-0.1,0-0.1c0-0.1,0.1-0.2,0.4-0.4c0.2-0.2,0.3-0.4,0.3-0.5c-0.1-0.2-0.4-0.3-0.9-0.3
			c-0.5-0.1-0.8-0.2-0.8-0.4c-0.5-0.5-0.8-1.6-0.8-3.1c0-2.2,1.3-3.9,3.9-5.1c2.1-1,4.4-1.5,6.9-1.5c2.1,0,3.8,0.3,5.2,1
			c0,0,0.1,0.1,0.1,0.1c0,0.1-0.1,0.2-0.2,0.4c-0.1,0.2-0.2,0.3-0.2,0.4c0,0,0,0.1,0.1,0.1c0.4-0.1,0.8-0.2,1.2-0.3
			c1.6,1.1,2.6,2.8,3.2,5.2c-1.5,0.3-2.7,0.9-3.6,1.8c-0.8,0.8-1.7,1.4-2.6,1.6c0.3-0.6,0.5-1.2,0.8-1.8c0.3-0.8,0.5-1.5,0.5-2
			c0-1.1-0.6-2.1-1.8-3.1c-1.2-0.9-2.4-1.4-3.7-1.4c-1.3,0-2.4,0.5-3.5,1.4c-1.1,0.9-1.6,2-1.6,3.1c0,2.7,1.4,4.5,4.2,5.6
			c2.7,0.7,5.3,1.3,7.9,2C571.6,116.1,573,117.8,573,120.4z"/>
		<path class="st3" d="M600.1,102.1l-0.9,2.7c-0.5,0-1.6-0.1-3.4-0.2c-1.9-0.1-4.1-0.1-6.4-0.1c-0.6,0-1.3,0.5-2.2,1.6
			c-0.9,1.1-1.4,1.8-1.6,2c-0.4,0.7-0.8,1.6-1.1,2.6c-0.5,1.9-0.8,3.9-0.8,5.9c0,3,0.8,5.3,2.5,6.9c0.8,0.9,1.7,1.4,2.5,1.7
			c0.8,0.3,2,0.4,3.5,0.4c0.5,0,1.5-0.3,3.1-1c2-0.9,3.5-1.8,4.4-2.8l-0.7,1.9c-1.1,0.9-2.1,1.7-3.2,2.6c-1.6,1.1-3.6,1.7-5.9,1.8
			c-3,0.1-5.6-0.9-7.8-3c-0.9-0.8-1.6-1.7-2.2-2.7c-0.1-0.1,0.1-0.3,0.4-0.5c0.3-0.2,0.4-0.4,0.4-0.5c-0.1-0.1-0.3-0.3-0.8-0.4
			c-0.5-0.1-0.7-0.2-0.8-0.4c-0.2-0.6-0.2-1.6-0.2-3.1c0-2.6,0.7-5.1,2-7.5c0.4-0.7,1.1-1.6,2.1-2.4c2.1-1.9,3.2-2.9,3.4-3.1
			l-13.3-0.1c0.9-0.7,2.5-2,4.7-3.9c1.5,1.4,4.1,2.3,7.9,2.7l8.1-0.4l0.4,0.5l2.3-1.2L600.1,102.1z"/>
		<path class="st3" d="M611.4,127.5H607c0-0.5,0-1.2,0.1-2.3c0.1-1,0.2-2,0.3-3v-3.8l0.6-0.7l-0.6-0.7v-10.6c0-0.9-0.2-1.5-0.6-2
			c-0.4-0.5-1.9-1.4-4.3-2.7h8.7v8.1l-0.7,1.2l0.7,0.3V127.5z"/>
		<path class="st3" d="M638.9,101.8l-0.9,1.4l-10.1,25.1c-1-1-2.1-3-3.3-6c-1.2-2.9-2.4-5.8-3.9-8.8c-0.6-1.2-1.3-2.5-2.1-3.9
			c-0.1-0.1,0.1-0.2,0.4-0.4c0.3-0.2,0.5-0.3,0.4-0.4c-0.1-0.1-0.4-0.4-1.1-0.7c-0.6-0.4-1-0.6-1.1-0.7c-1-1.6-2.2-3.4-3.5-5.4h9.6
			c-0.4,0.5-0.8,1-1.1,1.5l-1,0.1c-0.1,0-0.1,0-0.1,0.1c0,0.1,0.1,0.2,0.2,0.5c0.1,0.3,0.1,0.5,0.1,0.5l3.9,8.4
			c0,0.1-0.1,0.2-0.4,0.4c-0.3,0.1-0.4,0.3-0.4,0.4c0,0.1,0.3,0.2,0.7,0.4c0.4,0.2,0.7,0.3,0.7,0.4l2.4,5.2c1.1-1.6,2.5-4.8,4.1-9.4
			c0.8-2.2,1.2-3.6,1.2-4.1c0-0.5-0.2-1-0.6-1.6c-0.5-0.6-1.1-1.6-1.9-2.8L638.9,101.8z"/>
		<path class="st3" d="M667.7,127.6H661l-0.6-3.8l-1,0.1l-1.7-4.2l-9.4,4.3l1,0.6l-5.8,3.2h-1.8V121c0.1-0.1,0.4-1.1,0.9-2.9
			c0.2-0.6,0.7-1.6,1.4-3.1c0-0.1,0.2-0.1,0.4-0.1c0.2,0,0.4,0,0.4-0.1l0.2-1.4c0.2-1.5,2.2-3.7,6.2-6.6c-0.1-0.1-0.4-0.5-0.9-1.2
			c-0.5-0.7-0.9-1.2-1.3-1.4c-0.8-0.3-2.7-1-5.7-2.2h9.5c0.9,0.4,1.9,1.6,3.2,3.7c0.2,0.4,0.6,1.1,1.1,2.1c0.2,0.5,0.6,1.4,1,2.6
			c0,0.1,0,0.2,0,0.3c0,0.2-0.1,0.4-0.3,0.5s-0.3,0.2-0.3,0.3c0,0,0,0.1,0.1,0.2c0,0,0.1-0.1,0.2-0.1c0.2,0,0.6,0.2,1.1,0.6
			c0.5,0.4,0.8,0.7,0.9,1.1c0.5,1.2,1.2,3,2.1,5.2c1.4,3,2.8,5.5,4.2,7.4C666.5,126.2,667,126.8,667.7,127.6z M656.4,117.5
			c-0.6-1.1-1.2-2.3-1.9-3.4c-0.9-1.7-1.3-2.6-1.2-2.8l0.7-1.8l-1.1,0.7l-0.5-0.7l-0.1-0.1c-0.5,0.2-1.1,0.7-1.7,1.5
			c-0.6,0.9-1.2,1.8-1.8,2.7c-1.6,2.3-2.4,4.3-2.4,6.2c-0.2,0.8-0.2,1.3-0.2,1.3l5.8-2C654.1,118.5,655.6,117.9,656.4,117.5z"/>
		<path class="st3" d="M688.2,122.2c-0.9,1.7-1.5,2.9-1.6,3.6c-0.2,0.8-0.4,1.8-0.7,2.9c-1.2-0.3-2.9-0.6-5-0.9l-0.2,0h-9.1V107
			l0.8-1l-0.8-1.5v-6.1c0-0.5-0.2-1-0.7-1.3c-0.4-0.3-1.6-1.2-3.6-2.7c1.8,0,3.3,0,4.2,0.1c0.3,0,0.7,0.4,1.2,1.1c0,0,0,0,0,0
			l0.5-0.9c0.5,0,1.4-0.2,2.9-0.6v22.9l-0.8,0.8l0.8,3c0.1,0.4,0.1,1.1,0.1,2v2c0.1,0.1,0.4,0.2,0.9,0.2c2.5,0,4.4-0.2,5.8-0.7
			C684.2,123.7,686,123,688.2,122.2z"/>
	</g>
	<g>
		<path class="st3" d="M540,71.6c0.1,0.3,0.3,0.6,0.5,1.1c0.3-0.2,0.6-0.3,0.7-0.5c1.1-2.2,3-3.7,4.9-5.1c1.9-1.4,3.8-2.9,5.6-4.4
			c0.6-0.5,4.1-4.1,4.6-5.8c0.3-0.5,0.5-1,0.5-1.1c0.1-0.5-0.2-0.3-0.2-0.3c-4.7,4.8-9.4,3-12.4,1c-3-2-2-4.7-2-4.7
			c0.2-0.3,0.8-2.1-1.1-0.7c-1.2,0.9-1.8,2.6-2,3.7c0,0.1,0,0.1-0.1,0.2c-0.2,0.8-0.2,1.6-0.2,2.6c-0.3-0.1-0.5-0.2-0.7-0.4
			c-0.3-0.4-0.8-0.9-1.4-1.5c-0.2-0.3-0.4-0.6-0.7-0.8c-0.3-0.3-0.6-0.5-1-0.8c-0.8-0.7-1.5-1.2-2-1.3c-0.6-0.1-0.7,0.2-0.6,0.7
			c0,0,0,0,0,0c0,0,0,0,0,0.1c0.1,0.5,0.4,1.1,0.6,1.6c0.2,0.6,0.4,1.2,0.7,1.8c0.1,0.5,0.1,1-0.2,1.1c-0.7,0.2-2.8,0.1-4.4,1.2
			c-0.1,0.1-0.2,0.2-0.3,0.2c-0.8,0.5-1.6,1-2.3,1.7c-1.8,1.7-3.1,3.7-4.1,6.7c3.6-2.2,6.4-4.8,10.7-4.3c-0.2,0.7-0.2,1.3-0.4,1.9
			c-0.7,2-1.1,4.1-1,6.2c0.1,1.3,0.9,1.7,1.8,0.8c0.8-0.8,1.6-1.8,2.2-2.8c0.6-0.9,0.9-2,1.5-2.9c0.4-0.7,1-1.3,1.7-1.7
			c0.4-0.2,1.3,0,1.7,0.2c0.2,0.1,0.2,1,0,1.4C540,68.2,539.5,69.8,540,71.6z M535.9,61.1c-3.5-0.6-6.3,0.7-5-0.3
			c1.4-1,6.6-1.1,6.6-1.1l0.2,0c0.8,0,1.7,0.1,2.6,0.1c2.4,0.2,4.7,0.3,7.1,0.4c0.2,0,0.4-0.1,0.6-0.1c0,0,0.1,0,0.1,0
			c2.8,0,4.7-0.6,6-1.3c-0.5,0.6-0.8,1-1,1c-0.8,0.9-2.8,1.6-4,1.6c-0.5,0-1.2,0.1-1.7,0.1l0.1,0c0,0-0.1,0-0.3,0c-1,0-2.1,0-3.1,0
			C541.3,61.4,538.6,61.3,535.9,61.1z"/>
		<path class="st4" d="M561.3,23.8c-0.5,0.3-0.9,0.6-1.5,0.9c-0.1,0-0.3-0.1-0.7-0.2c-0.7-0.8-1.2-1.6-1.6-2.2
			c-3.4-1.2-7.4-2-11.7-2.2c-4.4-0.3-10.5,0.7-18.1,2.9l-13.4,8.4c12.4-3.8,20-5.7,22.9-5.7c3.4,0.1,5.7,0.4,6.8,0.7
			c1.1,0.3,1.7,0.5,1.6,0.5c4.6,0,9.8,2.6,15.5,7.7c4.8,4.4,7.2,11.3,7.2,20.7c0,2.6-0.2,5-0.6,7.2c0.2,1.7,0.4,3,0.6,4.1
			c-0.1,0.4-0.5,0.7-1.1,1c-0.6,0.3-1,0.6-1.2,0.9c-1.1,2.8-2.6,5.2-4.5,7.4c-4.5,5.1-10.5,7.7-18,7.7c-6.7,0-12.3-2.6-16.7-7.8
			c-2.4-2.9-4.1-5.4-4.9-7.7c-1.1-2.6-1.6-5.9-1.6-9.9c0-2.7,0.5-5.4,1.4-8c1.4-3.8,4.6-7.9,9.6-12.2c0.7-0.6,1.3-0.7,1.7-0.3
			c0.7,0.6,1.3,0.9,1.7,0.9c0.2,0,0.4,0,0.6-0.1c0.7,0,1.6,0,2.9-0.1c1.2-0.1,2.1-0.1,2.6-0.1c1.4,0,2.7,0.3,3.7,0.8
			c0.7,0.3,2.2,1.5,3.8,3.1c2.4,2.9,4,7,2.8,9.2c-1.9,3.4-5,1-5.6,0.7c-0.6-0.3,0.7-0.8,0.7-0.8s0.7-0.4-0.7-0.9s-3.2,2-1.9,4.1
			c1.3,2.2,4.7,3.1,7.7,2.8c3-0.3,9.7-3.7,7.4-13.3c-1.5-6.2-4.1-9-5.7-10.3c-0.1-0.1-0.2-0.1-0.2-0.2c0,0-0.1-0.1-0.1-0.1
			c-0.2-0.2-0.4-0.3-0.7-0.5l-2.9-1.7l-0.3-0.1c-4.9-1.6-8.2-2.3-9.9-2.2c-5.1-0.1-9.9,0.9-14.5,2.9c-4.1,1.8-7.5,4.3-10.2,7.3
			c-3,3.6-5,6.7-5.9,9.5c-0.7,2.2-1,5.7-1,10.3c0,2.8,0.4,5.3,1.1,7.7c0.1,0.3,0.6,0.5,1.5,0.8c0.9,0.2,1.4,0.5,1.5,0.8
			c0.1,0.2,0,0.8-0.3,1.6c-0.3,0.9-0.4,1.4-0.3,1.6c1.3,2.1,3.4,4.9,6.3,8.2c6.6,7.6,15,11.4,25.1,11.4c9.4,0,17.1-2.1,23.1-6.3
			c5.5-3.8,9.7-8.5,12.8-14.1c2.8-5.1,4.1-9.9,4.1-14.6c0-9.4-3.6-17.7-10.9-24.8C568.2,27.9,564.9,25.5,561.3,23.8z"/>
		<path class="st4" d="M601.4,80.6c-1.3,0-2-0.2-2.2-0.5v-4.8c0.2-2.2,0.1-3.9-0.1-4.8l-1.8-7.1l2-1.8V6.8c-3.5,0.9-5.8,1.3-7,1.4
			l-1.1,2.2c0,0.1,0,0.1-0.1,0.1C589.9,8.9,589,8,588.3,8c-2.3-0.1-5.7-0.2-10.1-0.2c4.6,3.5,7.5,5.6,8.5,6.4c1,0.8,1.6,1.9,1.6,3.1
			v14.5l2,3.6l-2,2.4v49.7h21.8l0.5,0.1c5,0.8,9,1.5,11.9,2.1c0.6-2.7,1.2-5,1.6-7c0.4-1.8,1.7-4.7,3.9-8.7
			c-5.3,2.1-9.5,3.7-12.8,4.8C612.1,80.1,607.4,80.6,601.4,80.6z"/>
		<path class="st4" d="M731.9,60.2c-0.9-0.6-0.5,0.3-0.6,1.9c-0.2,1.6-1.5,4.1-4.6,4.4s-6.3,1.2-7.1,1.3c-0.8,0.1-1.2,0.6-1-1.3
			c0.2-1.8-1.5-2.6-2.3-2.8c-0.8-0.3-0.7,0.1-1,2.7c-0.3,2.7-2.2,4-3.1,4.5c-1,0.5-1.7,0-1.4-1.7c0.3-1.7-0.6-3.3-1.4-4.1
			c-0.8-0.8-2.1-0.7-1.8-0.2c0.3,0.4,0.7,2.1-1.9,5.1c-2.6,3-9,4.9-10.8,5.7c-1.8,0.7-1.2-1.1-0.9-1.8c0.2-0.7,1.2-2.5,1.2-4.2
			c0-1.7-0.5-2.4,0.6-5c1-2.7,3-2.1,3-2.1s0.2-2.8-4.5-1.6s-4.8,6-5.5,8.7c-0.7,2.7-0.5,3.5-1.8,5.3c-1,1.4-3.8-0.7-4.9-1.7
			c-0.6-0.6-1.2-1.3-1.9-2.2c-1.8-2.7-3.3-4.8-4.3-6.4c-0.1-0.2-0.5-0.1-1.2,0.1c-0.9,0.2-1.4,0.3-1.6,0.3c-0.2,0-0.3,0-0.3-0.1
			c-0.2-0.3-0.1-0.8,0.2-1.4c0.4-0.6,0.5-1.1,0.5-1.3c0-0.2-0.1-0.3-0.2-0.5c-1.2-1.7-2.4-3.2-3.4-4.4c-3.9-5.1-8.5-9.1-13.8-12.1
			c4.1-1.7,6.5-2.8,7.2-3.1c2.8-1.3,4.9-2.8,6.5-4.4c1.6-1.6,4.5-5.6,8.8-12.1c-1.3,0-2.7,0-4.3,0.1c-1.6,0.1-2.6,0.1-3.1,0.1
			c-1,0-3.1-0.5-6.3-1.5c0,3.4-0.3,6-1,7.7c-1.6,4.2-6.5,7.5-14.6,9.9l-3.7,0.4l-3-1.3l3-4.5V8.2L633,7.8h-9.7l8.2,4.5l0.4,0.2
			c2.1,1.1,3.2,2.5,3.2,4.3v10L636,29l-0.9,11.3v28.1l2.4,2.8l-2.4,4.1v11.6h12.3c-1.6-4.9-2.4-11-2.4-18.1l0.2-7.9
			c0.1-4.6,0.2-8.4,0.2-11.3c0-1.5,0.3-2.2,1-2.2c4,0,8.4,3.4,13.2,10.3c1.3,1.8,4.1,6.2,8.3,13.2c4.1,6.6,6.7,10.8,8,12.5
			c2.2,2.9,4.4,4.4,6.7,4.4h0.1c0.1,0,0.2,0,0.4-0.1c0.7,0,2.4,0.2,4.7,2c3.1,2.4,0.6,7.3-0.3,7.9c-0.9,0.6-1.6-0.2-1.6-0.2
			s1,3.1,3.6,3.5c2.6,0.4,3.4-1.1,3.6-1.2c1.3-0.2,0.8,3.1,1.2,4c0.5,0.9-0.6,1.8-0.6,1.8c0.9,0.3,1.5,0.1,2.5-0.4
			c1-0.5,1.3-5.3,1.3-5.3c0.5,0.1,0.7,0.6,1.4,2.8c0.8,2.2,1.9,6.9,7.5,9.3c5.5,2.4,9.1,0.1,7.5,0c0,0-0.1,0-0.1,0
			c-1.5-0.1-3.3-2-4.2-3.3c-1-1.4-2.3-5-2.8-7.9c-0.5-2.9-3.1-4.8-3.1-4.8c1.2,0.2,3.5,0,4.5-0.7c1-0.6,2.5-2.8,0.6-2.6
			c-1.9,0.2-3.6-0.7-5.7-3.1c-2.1-2.4-5.9-3-5.9-3c0.6-1.5,4.7-3,8.6-3.9c4-0.9,8.2,1.3,10.8,2.9c2.6,1.6,3.4,3.7,3.3,1
			c-0.1-2.7-5.5-5.8-10-6.9c-4.5-1.1-13.5,0.4-13.5,0.4c3.2-4.2,9.9-5.6,13.7-7c3.8-1.4,8.7-2.9,14.8-3.4c6.1-0.5,7.7-6.3,7.7-6.3
			s0.5,1.3-1.4,4.4c-1.8,3.1-5,2.9-13.8,4.5c-7.5,1.4-13.9,3.7-17.3,6.1c-0.4,0.3,3.4-0.5,6.5-0.4c3.1,0.1,3.4,0.6,5.7,0.1
			s3,0.4,4.1,0.6c1.1,0.2,2-0.3,3.4,0.3c1.5,0.6,1,1.6,1.3,1.7c0.3,0.1,0.9-0.5,0.9-1.9c0.1-1.4-1.9-3.2-3-3.5
			c-1.1-0.3-1.5-0.6,0-1.5c1.5-0.9,2.1-0.6,7.6-1.6c5.5-1.1,6.3-2.5,7.5-5.7C735.2,63.1,732.8,60.7,731.9,60.2z M689.4,76.1
			c0.9-0.8,2-6.1,2.7-9.6c0.7-3.4,2.3-4.1,2.3-4.1c-2,3.1-1.6,7.5-1.8,9.2c-0.2,1.7-1.8,5.1-2,5.1C690.6,76.8,688.5,76.9,689.4,76.1
			z M701.5,91.7c1.2,1.6,3.6,2,3.6,2c-3.7,1.4-5.3-1.9-6.8-2.4c-1.5-0.5-0.9,0.2-0.9,0.2c1.6,1,4.1,6.7,5.1,10.5
			c1.1,3.8,4.6,7.4,4.6,7.4c-1.1-0.3-3.6-2.9-5.6-7.5c-2-4.6-5.3-9.1-5.3-9.1s-0.9-1.6-2,2c-1.1,3.5-3.3,2.1-3.3,2.1
			c2.4-0.1,2.6-3.1,2.9-5.3c0.3-2.2-3.2-3.6-3.2-3.6c1.8-0.4,3.1,0,5.7,0.8C698.8,89.3,700.8,90.8,701.5,91.7z"/>
		<path class="st4" d="M504,16.7c2.8,1.3,5.3,3.7,7.4,7.2c0.3-1,0.5-2.8,0.6-5.3c0.2-2.2,0.5-3.6,0.9-4.4l1.6-4.5h-21.3l-3.6,1.5
			l-5.5-1.8h-20.8l-0.2,1.9c1.5,0.2,2.8,0.8,3.7,1.9c0.1,0.2,0.4,0.8,1,2c0.6,1.2,0.9,3.3,0.9,6.4c0,0.7,0,2.3,0,5
			c-0.1,2.1-0.1,3.7,0,5l0.7,13l-0.7,2.1v36.1l1.1,3.3l-1.1,1.2l-0.1,53.9c4-3.4,11.3-6,13.2-6.9c0.3-1.4-2.4-6-1.9-9.6
			c0.1-1-0.2-29.1-0.2-31.9c0-1.9-0.8-12.7-0.8-16c0-3.3,0-5.3,0-5.8c0-2.1,0.2-3.6,0.7-4.3c0.2-0.3,0.8-0.4,1.7-0.4
			c5.7,0,9.3,0.9,14.2,4.6l4.7-7.9c1.5-1.9,2.6-3.1,3.3-3.6h-5.8l-3,1.4l-5.9-0.4l-3.4,0.7l-6.1-0.7V44.7l0-15.5l0-4.5
			c0.6-5.1,0.8-8.3,0.6-9.4c0.5-0.4,1.8-0.6,3.8-0.6C488.3,14.6,501.5,15.5,504,16.7z"/>
	</g>
	<path class="st5" d="M730.6,41.1c-0.2-0.1-0.4-0.1-0.6-0.1c-0.8,0.1-1.6,0.1-2.4,0.3c-1.6,0.5-3,1.3-4.2,2.6
		c-0.1,0.1-0.1,0.1-0.2,0.2c-0.7,0.8-1.1,1.5-1.1,1.5l0.5-1.3c0,0,0,0,0,0c0.1-0.1,0.1-0.3,0.2-0.4l0-0.1c0,0,0,0,0,0
		c0.4-0.9,0.9-1.7,1.7-2.3c0.5-0.4,1-0.8,1.7-0.3c0.1,0.1,0.3,0.1,0.4,0c0.3-0.1,0.5-0.3,0.5-0.7c0-0.3-0.2-0.5-0.5-0.5
		c-0.7,0-1.4,0-1.9,0.5c-0.6,0.6-1.1,1.2-1.7,1.8c-0.2,0.2-0.4,0.4-0.7,0.9c0-0.6,0-0.9-0.1-1.2c-0.1-0.7-0.2-1.4-0.3-2.1
		c-0.1-0.5-0.3-1-0.8-1.3c-0.3-0.2-0.6-0.3-1,0c-0.1,0.1-0.2,0.3-0.1,0.4c0.1,0.3,0.3,0.5,0.7,0.5c0.5,0,0.6,0.3,0.8,0.7
		c0.3,1,0.3,1.9,0.3,2.9c0,0.5-0.2,0.9-0.6,1.5c-0.1-0.4-0.1-0.6-0.1-0.8c-0.2-2.2-1.1-4.1-2.5-5.8c-0.7-0.9-1.6-1.5-2.9-1.4
		c-0.5,0-0.9,0.3-1,0.7c-0.2,0.6-0.4,1.2-0.2,1.9c0.2,0.9,0.4,1.8,0.4,2.8c0,1.6,0.2,3.1,1.4,4.5c0,0-0.1,0.1-0.2,0.2
		c-0.3,0.2-0.6,0.4-0.8,0.6c-1.3,1.2-3.2,3.4-1,5.4l0,0c0.3,0.3,0.5,0.5,1,0.5c0.7,0.1,1.4-0.1,1.7-0.8c0.6-1.2,1.7-1.8,2.7-2.5
		c0.1,0,0.1,0.1,0.2,0.1c-0.4,1.3-0.9,3.6-0.5,3.3c0.4-0.3,0.9-1.7,1.4-2.9c0.3,0,0.5,0.2,0.6,0.5c0.2,0.4,0.3,0.8,0.3,1.2
		c0.1,0.7,0,1.4,0.1,2c0,0.3,0.1,0.7,0.3,0.9c0.3,0.3,0.8,0.8,1.3,0.7c0.6-0.2,1.3-0.1,1.7-0.9c0.6-1.2,0.6-1.1,0.9-2.4
		c0.2-1.1,0-2-0.3-3.1c1.5-0.3,2.4-1.3,3.3-2.5c0.5-0.7,1.1-1.3,1.7-1.9c0.4-0.5,0.8-0.9,1.1-1.4C732.2,42.3,731.9,41.5,730.6,41.1z
		"/>
	<path class="st5" d="M48.1,31c-0.2,0-0.4,0.1-0.5,0.2c-0.6,0.4-1.3,0.8-1.8,1.4c-1.1,1.1-1.8,2.5-2.1,4.1c0,0.1,0,0.2-0.1,0.3
		c-0.2,1-0.2,1.8-0.2,1.8l-0.3-1.2c0,0,0,0,0,0c0-0.1,0-0.3,0-0.4l0-0.1c0,0,0,0,0,0C43,36,43,35.2,43.3,34.3
		c0.2-0.6,0.4-1.1,1.2-1.1c0.1,0,0.2-0.1,0.3-0.2c0.2-0.2,0.2-0.5,0.1-0.8c-0.2-0.2-0.4-0.3-0.6-0.2c-0.6,0.3-1.1,0.7-1.3,1.3
		c-0.2,0.7-0.3,1.5-0.5,2.2c-0.1,0.3-0.1,0.5-0.2,1.1c-0.3-0.5-0.5-0.7-0.6-0.9c-0.4-0.5-0.8-1.1-1.3-1.5c-0.3-0.4-0.7-0.6-1.2-0.6
		c-0.3,0-0.6,0.1-0.8,0.4c0,0.1,0,0.3,0.1,0.4c0.2,0.2,0.5,0.2,0.8,0.1c0.4-0.2,0.6-0.1,0.9,0.2c0.7,0.6,1.1,1.4,1.6,2.2
		c0.2,0.4,0.3,0.8,0.3,1.5c-0.3-0.3-0.4-0.5-0.5-0.6c-1.2-1.6-2.8-2.7-4.7-3.4c-1-0.3-2-0.4-2.9,0.3c-0.4,0.3-0.6,0.6-0.5,1
		c0.1,0.6,0.2,1.1,0.7,1.6c0.6,0.6,1.2,1.3,1.7,2c0.8,1.2,1.6,2.4,3.2,2.9c0,0,0,0.1-0.1,0.2c-0.1,0.3-0.2,0.6-0.3,0.9
		c-0.5,1.5-0.9,4.2,1.8,4.8l0,0c0.3,0.1,0.7,0.1,1-0.1c0.6-0.3,1.1-0.7,1-1.5c-0.1-1.2,0.5-2.3,0.9-3.3c0.1,0,0.1,0,0.2,0
		c0.4,1.2,1,3.3,1.2,2.8c0.2-0.4-0.1-1.8-0.3-3c0.2-0.2,0.5-0.1,0.7,0.1c0.3,0.2,0.6,0.5,0.8,0.8c0.4,0.5,0.7,1.1,1,1.6
		c0.2,0.2,0.4,0.5,0.7,0.6c0.4,0.1,1,0.3,1.4-0.1c0.4-0.4,1-0.7,0.9-1.5c-0.1-1.2,0-1.2-0.4-2.3c-0.3-1-0.9-1.6-1.7-2.3
		c1-1,1.3-2.2,1.4-3.5c0.1-0.8,0.3-1.6,0.4-2.3c0.1-0.5,0.2-1.1,0.2-1.6C50,31.3,49.3,30.8,48.1,31z"/>
	<path class="st3" d="M342.3,59.7c-0.5-1.4-1.1-2.3-1.9-3.1c-0.3-0.3-0.7-0.6-1.1-0.8c0,0-0.1-0.1-0.1-0.1c-0.8-0.5-1.7-0.5-2-0.5
		c-0.1,0-0.1-0.3-0.1-0.5c0.1-0.3,0.2-0.6,0.3-0.8c0.1-0.2,0.2-0.5,0.3-0.7c0,0,0,0,0,0c0,0,0,0,0,0c0-0.2,0-0.4-0.3-0.3
		c-0.2,0-0.6,0.3-0.9,0.6c-0.2,0.1-0.3,0.2-0.4,0.4c-0.1,0.1-0.2,0.2-0.3,0.4c-0.3,0.3-0.5,0.5-0.6,0.7c-0.1,0.1-0.2,0.1-0.3,0.2
		c0-0.5,0-0.8-0.1-1.2c0,0,0-0.1,0-0.1c-0.1-0.5-0.3-1.3-0.9-1.7c-0.9-0.6-0.6,0.2-0.5,0.3c0,0,0.5,1.3-0.9,2.2
		c-1.4,0.9-3.6,1.8-5.8-0.5c0,0-0.1-0.1-0.1,0.1s0.6,2,4.1,2.1c0,0,0,0,0,0c0.1,0,0.2,0,0.3,0c1.1,0,2.2-0.1,3.3-0.2
		c0.4,0,0.8-0.1,1.2-0.1l0.1,0c0,0,2.4,0,3.1,0.5c0.6,0.5-0.7-0.1-2.3,0.2c-1.3,0.1-2.5,0.2-3.8,0.2c-0.5,0-1,0-1.4,0
		c-0.1,0-0.1,0-0.1,0l0,0c-0.2,0-0.6-0.1-0.8-0.1c-0.6,0-1.5-0.3-1.9-0.7c-0.2,0-1.3-1.7-1.5-1.7c-0.2,0.6,1.8,2.7,2.2,3
		c0.8,0.7,1.7,1.4,2.6,2.1c0.9,0.7,1.8,1.4,2.3,2.4c0,0.1,0.2,0.1,0.3,0.2c0.1-0.2,0.2-0.3,0.2-0.5c0.3-0.8,0-1.6-0.3-2.4
		c-0.1-0.2-0.1-0.6,0-0.7c0.2-0.1,0.6-0.2,0.8-0.1c0.3,0.2,0.6,0.5,0.8,0.8c0.3,0.4,0.4,0.9,0.7,1.4c0.3,0.5,0.6,0.9,1,1.3
		c0.4,0.4,0.8,0.2,0.8-0.4c0.1-1-0.1-1.9-0.5-2.9c-0.1-0.3-0.1-0.5-0.2-0.9C339.4,57.4,340.7,58.7,342.3,59.7z"/>
	<g>
		<path class="st3" d="M209.6,39.6c-0.4,3.9-0.7,8-0.7,12.4c0,1.4,0,2.9,0,4.4c0,0.2-0.1,0.5-0.4,0.9c-0.3,0.4-0.4,0.7-0.4,0.9
			c0,0.1,0.2,0.2,0.5,0.2c0.3,0,0.5,0.1,0.5,0.2c0.1,2.1,0.2,5,0.4,8.6l0.2,2.8H204v-2.1c-0.5,0.2-1.2,0.5-2.1,1
			c-1.7,0.8-3.5,1.3-5.3,1.3c-1.3,0-2.5-0.2-3.6-0.7c-0.5-0.2-1.5-0.7-3.3-1.7c-2.1,1.6-4.7,2.3-7.7,2.3c-4.8,0-8.3-1.2-10.5-3.7
			c-2.2-2.5-3.3-5.7-3.3-9.6c0-2.4,0.5-4.8,1.5-7.4c1-2.3,2-4.6,3.1-6.9l-0.9,0.7l-0.5-0.7c-0.5-0.8-1.1-1.9-1.8-3.3h8.5v2
			c-1.1,1.4-2.2,3.2-3.1,5.5c-0.1,0.1-0.2,0.2-0.3,0.2c-0.1,0-0.3,0-0.5-0.1c-0.2,0-0.3-0.1-0.4-0.1c-0.2,0-0.3,0.1-0.3,0.2
			c-0.1,0.1,0,0.5,0.3,1.3c0.2,0.7,0.3,1.1,0.3,1.3c-0.5,2-0.8,3.8-0.8,5.4c0,2.9,0.7,5.6,2.2,8.1c1.4,2.4,3.6,3.5,6.8,3.5h0.5
			c3,0,4.7-0.4,5-1.1c-1.4-1.3-2.3-3.7-2.6-7c-0.1-1.1-0.2-2.3-0.2-3.6c0-2.3,0.2-4.5,0.7-6.4c0.1-0.2,0.5-1.9,1.5-5.2
			c-0.5-0.6-1.5-1.9-2.9-4h9.5c-1,2.1-1.8,4.4-2.4,6.7c-0.1,0.2-0.4,0.5-1.1,1c-0.7,0.5-1,0.8-1,1c0,0.1,0.1,0.1,0.2,0.1
			c0,0,0.2,0,0.8-0.1c0.4,0,0.6,0,0.7,0.1c0.1,0.1,0.1,0.3-0.2,0.6c-0.4,2.1-0.6,4.1-0.6,6c0,2.8,0.7,5.7,2.1,8.6
			c1.3,2.7,3.2,4.1,5.6,4.1c0.9,0,2.3-0.5,4.1-1.5c1.6-0.9,2.4-1.9,2.4-3.1v-15c0-2.1-0.4-3.7-1.1-4.8c-1.1-1-2.2-2.2-3.1-3.5h4.2
			l0.7,0.9l3.2-0.9H209.6z"/>
		<path class="st3" d="M222.5,70.8h-4.7c0-0.5,0.1-1.4,0.2-2.5c0.1-1.1,0.2,0.6,0.4-0.5v-4.2l0.7-0.8l-0.7-0.8V50.2
			c0-1-0.2-1.7-0.6-2.2c-0.5-0.6-2-1.6-4.7-3h9.5v9l-0.8,1.4l0.8,0.4V70.8z"/>
		<path class="st3" d="M274.5,56c0,1.2-0.1,2.3-0.3,3.4c-0.4,2-1,3.6-1.8,4.9c-0.8,1.3-1.9,2.6-3.4,3.8c-1.8,1.6-4.4,2.3-7.9,2.3
			c-0.7,0-1.6-0.2-2.5-0.6c-0.9-0.4-1.6-0.8-2.1-1.3c-0.5-0.4-1-0.9-1.5-1.3c-0.5-0.6-1.1-1.6-1.8-3.1c1.2,0.9,2.6,1.9,4.3,2.9
			c0.4,0.2,1.1,0.4,2,0.6c1,0.2,1.7,0.3,2.1,0.3c1.2,0,2.2-0.1,2.9-0.4c1-0.4,2-1.2,3-2.5c1-1.3,1.7-2.6,2-3.9
			c0.3-1.1,0.4-2.7,0.4-4.9c0-1.5-0.4-3.1-1.2-5c-0.8-1.7-1.7-3.2-2.8-4.4c-2.6-2.9-5.2-4.4-7.7-4.5c-1.7-0.1-3.1,0.2-4.4,0.8
			c-0.6,0.3-1.4,0.9-2.6,1.9c1.1,2.1,1.7,4,2,5.8c0.1,1.1,0.2,2.3,0.2,3.6c0,2.4-0.2,4.5-0.7,6.4c-0.1,0.2-0.5,1.9-1.5,5.2
			c0.5,0.6,1.5,1.9,2.9,4h-9.5c1.1-2.4,2-5,2.7-7.6c0.1-0.2,0.3-0.7,0.7-1.5c0.4-0.7,0.7-1.2,0.7-1.5c0-0.2-0.1-0.3-0.4-0.4
			s-0.4-0.2-0.4-0.4c0.2-1.4,0.3-2.7,0.3-4c0-2.8-0.7-5.7-2.1-8.6c-1.3-2.7-3.2-4.1-5.6-4.1c-0.9,0-2.2,0.5-4,1.5
			c-1.6,0.9-2.4,1.9-2.4,3v15.1c0,2.1,0.4,3.7,1.1,4.8c0.3,0.2,0.7,0.8,1.2,1.6c0.5,0.8,1.1,1.5,1.8,2.1h-9.5
			c0.6-4.5,0.8-8.7,0.8-12.6c0-1.8,0-3.6,0-5.4c0-0.2,0.2-0.4,0.5-0.7c0.3-0.3,0.5-0.5,0.5-0.7s-0.2-0.4-0.6-0.5
			c-0.4-0.1-0.6-0.3-0.6-0.5c-0.1-2.4-0.2-5-0.3-7.5l-4.2-3l9.5,0.2v2.1c0.6-0.2,1.3-0.6,2.1-1c1.7-0.9,3.5-1.3,5.3-1.3
			c2.6,0,5.1,1.1,7.5,3.2c0.3-0.1,0.9-0.4,2-1c0.5-0.3,1.1-0.6,1.8-1c0.4-0.3,1.1-0.6,2.1-1c0.7-0.2,2-0.4,3.8-0.6c0.3,0,0.7,0,1,0
			c2.1,0,4.3,0.6,6.5,1.8c2.1,1.1,3.7,2.4,4.7,3.9c0.5,0.6,1.1,1.5,1.8,2.8c0.1,0.1-0.1,0.3-0.5,0.4c-0.4,0.2-0.5,0.3-0.5,0.4
			c0,0.1,0.3,0.3,0.8,0.6c0.5,0.3,0.8,0.5,0.8,0.6C274.3,50.7,274.5,53,274.5,56z"/>
		<path class="st3" d="M380,69.8c-0.5,0.1-1,0.1-1.5,0.1c-0.8-0.1-1.1-0.1-0.9-0.1c-1.3,0-2.2-0.2-2.8-0.7c-0.1-0.1-0.2-0.2-0.3-0.2
			c-0.2,0-0.5,0.1-0.8,0.4s-0.7,0.5-0.9,0.5c-0.5-0.1-1.3-0.5-2.2-1.1c-1.1-0.8-2.2-1.8-3.2-2.9c-2.4-2.8-4-4.6-4.8-5.4
			c-1.4-1.5-2.5-2.5-3.4-3v12.5l-1.3-1.1l-1.7,1.1h-2V52.4l1-2.8l-1-0.7v-3.2c0-1.8-0.2-2.9-0.5-3.3c-0.2-0.4-0.5-0.7-0.7-1.1
			c-0.6-0.7-1.7-1.3-3.1-2h2.6c-0.1,0,0.7,0,2.4-0.1c0.8-0.1,1.4,0,1.8,0.2c0.4,0.4,1,0.9,1.7,1.6c2.4-1.6,4.8-2.3,7.2-2.3h0.3
			c2,0,3.6,0.5,4.9,1.5c1.5,1.1,2.2,2.7,2.2,4.6c0,0.5,0,0.9-0.1,1.3c0,0.1-0.2,0.2-0.5,0.3s-0.4,0.1-0.5,0.3
			c-0.1,0.1,0,0.4,0.2,0.9c0.2,0.5,0.2,0.8,0.2,1c0,0.1,0,0.2,0,0.2c-1,2.5-4,4.7-8.7,6.7c1.6,0.9,3.3,2.4,5.2,4.4
			c1.5,1.7,3,3.4,4.5,5c1,1,1.6,1.7,1.9,1.9c0.6,0.5,1.5,1.1,2.6,1.6L380,69.8z M367.5,46.1c0-1.3-0.3-2.3-1-2.9
			c-0.7-0.7-1.3-1-1.9-1c-1.3,0-2.9,0.7-5,2l-0.2,0.1V53c2.4-0.9,4.4-1.8,5.9-2.9C366.8,49.2,367.5,47.8,367.5,46.1z"/>
		<path class="st3" d="M411.8,39.1l-1.2,4.3c-0.1,0.2,0,0.4,0.2,0.4c0.2,0.1,0.3,0.2,0.3,0.4v27.8l-4.9-5.6c0-0.1-0.1-0.1-0.1-0.2
			c0-0.1,0-0.2,0.1-0.4c0.1-0.2,0.1-0.3,0.1-0.4c0-0.2-0.3-0.3-0.8-0.5c-0.6-0.2-0.9-0.3-1-0.4L389,46.4v9.2c0,3.1,0.2,5.6,0.6,7.6
			c0.4,1.9,1.6,4.4,3.7,7.4h-8.2c0.3-1.4,0.5-2.8,0.7-4.3l0.1-0.6c0.2-1.8,0.3-3.1,0.3-3.9v-9.2l0.7-1.5l-0.7-0.2v-7.1
			c-0.4-0.4-0.9-1-1.6-1.7c-0.8-0.8-1.9-1.5-3.3-2.3h8.8l8.5,10.6c0.1,0.1,0.3,0.6,0.5,1.4c0.2,0.8,0.4,1.3,0.5,1.5l1-0.6l7.9,9.8
			v-15c-1-2.3-2.3-4.4-3.9-6l-1.8-2.1l1.8,0c1,0.3,2.2,0.4,3.5,0.4c0.2,0,0.4,0,0.7,0c0.4,0,0.6,0,0.8,0
			C410.1,39.7,410.9,39.5,411.8,39.1z"/>
		<path class="st3" d="M445.6,59.3l-0.9,5.2c-0.3,0.6-0.6,1.1-0.9,1.5c-0.8,1.1-1.7,1.9-2.8,2.4c-2.7,1.3-5.6,2-8.6,2
			c-2.5,0-4.8-0.4-6.8-1.2c0.1-0.6,0.2-1,0.3-1c-0.1,0-0.1,0-0.2,0c-0.6,0.1-1.3,0.2-2,0.2c-0.9-0.5-1.8-1-2.6-1.7
			c-3.5-2.6-5.3-6.5-5.3-11.5c0-4.6,1.4-8.4,4.2-11.4c0.7-0.8,1.5-1.4,2.4-2c0.1-0.1,0.2,0.2,0.2,0.8c0.1,0.6,0.2,0.8,0.2,0.8
			c0.2-0.8,0.5-1.6,1-2.4c2.6-1.3,5-2,7.3-2c3.1,0,5.5,0.2,7.3,0.5c0.9,0.3,2.2,0.7,3.9,1.1c0.2-0.3,0.9-1,2.2-2v6.7l0.1,8.4H443
			c-1.6-1.2-3.4-1.8-5.3-1.8h-16.2c-0.2,0.7-0.9,1.7-2.2,3c0,0,0.2,0.2,0.6,0.4c0.3,0.2,0.5,0.4,0.5,0.5c0,1.5,0.4,2.9,1.1,4.3
			c0.6,1.1,1.6,2.3,2.9,3.7c2.4,2.5,5.3,3.7,8.8,3.7c1.4,0,3.2-0.5,5.6-1.6c1.1-0.5,1.9-0.9,2.3-1.3c0.3-0.3,1.1-1.1,2.3-2.4
			c0.6-0.5,1.1-1.2,1.6-1.9C445.2,59.9,445.4,59.6,445.6,59.3z M441.9,46.5c-1-1-1.5-1.6-1.5-1.6c-0.7-0.7-1.3-1.1-1.8-1.3
			c-1.9-0.8-3.7-1.2-5.6-1.2c-1.9,0-4,0.7-6.3,2.1c-2.1,1.4-3.8,2.9-5,4.7l16,0.2c0.6,0,1.3-0.3,2.1-1.1
			C441,47.2,441.7,46.6,441.9,46.5z"/>
	</g>
	<path class="st3" d="M348.9,50.7c-0.4-1.3-1.3-2.8-2.7-4.4c-1.2-1.4-2.8-2.6-4.7-3.4c-2.1-0.9-4.4-1.4-6.7-1.4
		c-0.8-0.1-2.3,0.3-4.6,1l-0.1,0l-1.4,0.8c-0.1,0.1-0.2,0.1-0.3,0.2c0,0,0,0-0.1,0c0,0-0.1,0.1-0.1,0.1c-0.8,0.6-2,1.9-2.7,4.8
		c-1.1,4.5,2.1,6,3.4,6.2c1.4,0.2,3-0.3,3.6-1.3c0.6-1-0.2-2.2-0.9-1.9c-0.7,0.3-0.3,0.4-0.3,0.4s0.6,0.2,0.3,0.4
		c-0.3,0.2-1.7,1.3-2.6-0.3c-0.6-1,0.2-2.9,1.3-4.3c0.8-0.7,1.4-1.3,1.8-1.4c0.5-0.2,1.1-0.4,1.7-0.4c0.2,0,0.6,0,1.2,0.1
		c0.6,0,1,0.1,1.3,0.1c0.1,0,0.2,0,0.3,0c0.2,0,0.5-0.1,0.8-0.4c0.2-0.2,0.5-0.1,0.8,0.1c2.3,2,3.8,3.9,4.5,5.7
		c0.4,1.2,0.6,2.5,0.6,3.7c0,1.8-0.3,3.4-0.8,4.6c-0.4,1-1.2,2.2-2.3,3.6c-2.1,2.4-4.7,3.7-7.8,3.7c-3.5,0-6.3-1.2-8.4-3.6
		c-0.9-1-1.6-2.2-2.1-3.4c-0.1-0.2-0.3-0.3-0.6-0.4c-0.3-0.1-0.5-0.3-0.5-0.5c0.1-0.5,0.2-1.1,0.3-1.9c-0.2-1-0.3-2.2-0.3-3.4
		c0-4.4,1.1-7.6,3.4-9.7c2.7-2.4,5.1-3.6,7.2-3.6c0,0,0.2-0.1,0.8-0.2c0.5-0.1,1.6-0.2,3.2-0.3c1.4,0,4.9,0.9,10.7,2.6l-6.3-3.9
		c-3.6-1-6.4-1.5-8.4-1.4c-2,0.1-3.9,0.5-5.5,1c-0.2,0.3-0.4,0.7-0.7,1c-0.2,0.1-0.3,0.1-0.3,0.1c-0.2-0.1-0.5-0.3-0.7-0.4
		c-1.7,0.8-3.2,1.9-4.7,3.4c-3.4,3.3-5.1,7.2-5.1,11.6c0,2.2,0.6,4.4,1.9,6.8c1.4,2.6,3.4,4.8,6,6.6c2.8,2,6.4,2.9,10.8,2.9
		c4.7,0,8.6-1.8,11.7-5.3c1.3-1.6,2.3-2.8,2.9-3.8c0.1-0.1,0-0.4-0.1-0.8c-0.2-0.4-0.2-0.7-0.2-0.8c0.1-0.1,0.3-0.3,0.7-0.4
		c0.4-0.1,0.6-0.2,0.7-0.4c0.3-1.1,0.5-2.3,0.5-3.6C349.3,53.4,349.2,51.8,348.9,50.7z"/>
	<path class="st3" d="M310.9,51c-0.6-1.6-0.9-2.4-0.9-2.4c-0.1-0.3,0.1-0.4,0.4-0.5c0.3-0.1,0.5-0.2,0.5-0.3c0-0.4-0.9-1.6-2.6-3.8
		c-2.3-2.9-5.3-4.4-8.9-4.4c-2.9,0-5,0.4-6.3,1.3c-1.3,0.9-2.2,1.7-2.8,2.7c-0.6,0.9-0.8,2-0.8,3.3c0,0.6,0.1,1.2,0.2,1.9
		c0.1,0.7,0.7,1.5,1.7,2.4c0.4,0.4,1,0.8,1.6,1.2l-1-2.9l0.2-3.6c1-1.3,1.7-2.2,2.1-2.5c0.8-0.7,1.7-1,2.9-1c2.6,0,4.8,1.4,6.5,4.3
		c1.4,2.4,2.1,5,2.1,7.8c0,3.5-0.8,6.6-2.4,9.3c-1.9,3.2-4.5,4.7-7.8,4.7c-2.1,0-4.3-1.2-6.7-3.6c-0.6-0.5-1.2-1.1-1.9-1.6
		c-0.8-0.7-1.1-1.2-1.1-1.6c0-0.1,0.2-0.3,0.5-0.5c0.3-0.2,0.5-0.4,0.4-0.6c-0.3-0.7-0.6-1.3-0.9-2c-0.4-0.9-0.5-1.6-0.5-2.1
		c-0.1-2.2,0.3-4.5,1.2-6.8c0.6-1.6,1.4-3.1,2.5-4.8c0.8-1.2,1.1-1.8,1.1-1.8c0,0-0.1,0-0.2,0.1c0.7-1.8,1.8-3.6,3.2-5.4
		c1.5-2,2.5-3.4,2.9-4.3c0.8-1.6,1.2-3.3,1.3-5.1c0,0,0-0.1,0.1-0.1c0.1-0.5-0.1-4.1-0.4-4.6c-0.4-0.6-0.4,0.9-0.8,1.9
		c-0.2,0.3-0.4,0.6-0.7,0.8c-0.3,0.1-0.5,0.3-0.8,0.4c-0.1,0-0.2,0.1-0.3,0.1c-0.2,0.1-0.3,0.2-0.3,0.3c0,0.1,0,0.1,0.1,0.2
		c0.1,0.1,0.1,0.1,0.1,0.2c0,0.1-0.1,0.1-0.2,0.2c-0.5,0.2-1.1,0.3-1.8,0.4c-1,0-2.2-0.2-3.5-0.9c-2.6-1.4-11.9-6.1-12.8-10.6
		c-0.8-3.7-0.4-4.3-0.3-4.4c-0.2,0.1-2.4,1.4-2.3,3.6c0.2,2.3,1.2,6.3,5.6,8.2c4.4,1.8,2.7,2.2,2,3.1c-0.7,0.9-3.3,1-1.7,4.1
		c1.6,3.1,5.9,2,5.6,1.6c-0.3-0.4-1.7-1.4-1.1-2.4c0.2-0.3,0.8-0.3,1.3-0.2c3.2,1.3,4.9,3.2,4.9,5.6c0,1.1-1.1,2.9-3.4,5.2
		c-2.4,2.4-4.2,4.6-5.4,6.4c-0.8,1.2-1.5,2.6-1.8,4.1c-0.1,0.2,0,0.5,0.2,0.8c0.2,0.3,0.3,0.6,0.3,0.8c0,0.2-0.1,0.5-0.2,0.8
		c-0.2,0.2-0.8,1.2-0.7,6.4c0.1,6.5,1.2,6.2,0.3,8.3c-1,2.1-0.2,2.6,0,2.4s0.7-3.4,4.1-2.3c3.3,1.1,10.7,3.6,16.7,1.6
		c0.4-0.1,0.7-0.2,1-0.4c2.2-0.8,4.3-2.1,6-4c3.2-3.3,4.7-7.4,4.7-12.2C311.5,52.9,311.3,52,310.9,51z"/>
	<g>
		<path class="st3" d="M303.4,96.4c0,1.1-0.1,2.1-0.3,3.1c-0.4,1.8-0.9,3.2-1.6,4.3c-0.7,1.1-1.7,2.3-3,3.4c-1.6,1.4-4,2.1-7,2.1
			c-0.7,0-1.4-0.2-2.2-0.5c-0.8-0.3-1.5-0.7-1.9-1.2c-0.4-0.4-0.9-0.8-1.3-1.2c-0.5-0.5-1-1.4-1.6-2.7c1.1,0.8,2.3,1.7,3.8,2.6
			c0.4,0.2,1,0.3,1.8,0.5c0.9,0.2,1.5,0.3,1.9,0.3c1.1,0,1.9-0.1,2.6-0.4c0.9-0.4,1.8-1.1,2.7-2.2c0.9-1.1,1.5-2.3,1.8-3.5
			c0.2-1,0.3-2.4,0.3-4.4c0-1.3-0.4-2.8-1.1-4.4c-0.7-1.5-1.5-2.8-2.5-3.9c-2.3-2.6-4.6-3.9-6.9-4c-1.5-0.1-2.8,0.1-3.9,0.7
			c-0.5,0.3-1.3,0.8-2.3,1.7c1,1.9,1.6,3.6,1.7,5.2c0.1,1,0.2,2,0.2,3.2c0,2.1-0.2,4-0.6,5.7c0,0.2-0.5,1.7-1.3,4.6
			c0.5,0.5,1.3,1.7,2.6,3.6h-8.5c1-2.2,1.8-4.4,2.4-6.8c0-0.2,0.3-0.6,0.6-1.3c0.4-0.7,0.6-1.1,0.6-1.3c0-0.2-0.1-0.3-0.3-0.4
			c-0.2-0.1-0.3-0.2-0.3-0.4c0.2-1.2,0.2-2.4,0.2-3.5c0-2.5-0.6-5.1-1.9-7.7c-1.2-2.4-2.8-3.6-5-3.6c-0.8,0-2,0.4-3.6,1.3
			c-1.5,0.8-2.2,1.7-2.2,2.7v13.4c0,1.9,0.3,3.3,1,4.3c0.2,0.2,0.6,0.7,1.1,1.4c0.5,0.7,1,1.3,1.6,1.8h-8.5c0.5-4,0.8-7.8,0.8-11.2
			c0-1.6,0-3.2,0-4.8c0-0.2,0.1-0.4,0.4-0.6c0.3-0.2,0.4-0.4,0.4-0.6c0-0.2-0.2-0.3-0.5-0.4c-0.3-0.1-0.5-0.2-0.5-0.4
			c-0.1-2.2-0.2-4.4-0.3-6.7l-3.8-2.7l8.5,0.1v1.9c0.5-0.2,1.1-0.5,1.9-0.9c1.5-0.8,3.1-1.1,4.7-1.1c2.3,0,4.6,0.9,6.7,2.8
			c0.2-0.1,0.8-0.4,1.7-0.9c0.4-0.2,1-0.5,1.6-0.9c0.3-0.2,1-0.5,1.9-0.9c0.6-0.2,1.8-0.4,3.3-0.5c0.3,0,0.6,0,0.9,0
			c1.9,0,3.8,0.5,5.8,1.6c1.9,1,3.3,2.1,4.2,3.5c0.4,0.5,0.9,1.4,1.6,2.5c0,0.1-0.1,0.2-0.4,0.4c-0.3,0.1-0.5,0.3-0.4,0.4
			c0,0.1,0.3,0.3,0.8,0.5c0.5,0.3,0.7,0.4,0.8,0.5C303.1,91.8,303.4,93.8,303.4,96.4z"/>
		<path class="st3" d="M314,108.9h-4.5c0-0.5,0.1-1.3,0.2-2.4c0.1-1.1,0.2-2.1,0.4-3.2v-4l0.6-0.8l-0.6-0.8V86.6
			c0-0.9-0.2-1.6-0.6-2.1c-0.5-0.5-2-1.5-4.5-2.9h9.1v8.6l-0.8,1.3l0.8,0.3V108.9z"/>
		<path class="st3" d="M342.4,81.2l-1.1,3.8c-0.1,0.2,0,0.3,0.2,0.4c0.2,0,0.3,0.2,0.3,0.4v24.8l-4.4-5c0,0-0.1-0.1-0.1-0.2
			c0-0.1,0-0.2,0.1-0.4c0-0.2,0.1-0.3,0.1-0.4c0-0.2-0.2-0.3-0.7-0.4c-0.5-0.2-0.8-0.3-0.9-0.4l-13.9-16.1v8.2c0,2.8,0.2,5,0.5,6.7
			c0.3,1.7,1.4,3.9,3.3,6.6h-7.3c0.3-1.2,0.5-2.5,0.6-3.9l0.1-0.5c0.2-1.6,0.3-2.8,0.3-3.5V93l0.6-1.3l-0.6-0.1v-6.3
			c-0.4-0.4-0.8-0.9-1.4-1.5c-0.7-0.7-1.7-1.4-2.9-2.1h7.8l7.6,9.4c0.1,0.1,0.2,0.5,0.4,1.3c0.2,0.8,0.3,1.2,0.4,1.3l0.9-0.5
			l7.1,8.7V88.5c-0.9-2.1-2-3.9-3.5-5.4l-1.6-1.8l1.6,0c0.9,0.2,1.9,0.3,3.1,0.3c0.1,0,0.4,0,0.6,0c0.3,0,0.5,0,0.7,0
			C340.9,81.6,341.5,81.5,342.4,81.2z"/>
		<path class="st3" d="M367.9,101.3c0,2-1,3.9-2.9,5.6c-0.7,0.6-1.5,1.1-2.5,1.5c-0.1,0.1-0.3,0-0.6-0.3c-0.3-0.3-0.5-0.4-0.6-0.4
			c-0.1,0-0.3,0.3-0.5,0.7c-0.3,0.5-0.4,0.7-0.6,0.7c-1.2,0.2-2.5,0.3-4,0.3c-3,0-5.7-0.6-8-1.7c-2.9-1.4-4.4-3.4-4.4-6.2
			c0-0.6,1-1.5,3.1-2.7c1.7-0.9,3.1-1.5,4.2-1.7c-0.3,0.5-0.6,1.1-1.1,2.1c-0.5,0.9-0.7,1.7-0.7,2.3c0,1.8,0.7,3.3,2,4.3
			c1.4,1,3.2,1.5,5.5,1.5c1.3,0,2.6-0.5,4-1.5c1.4-1.1,2.1-2.3,2.1-3.6c0-2.5-1.5-4.3-4.5-5.3c-1.8-0.5-4.5-1.4-8.2-2.5
			c-0.9-0.4-1.7-0.9-2.4-1.5c0,0,0-0.1,0-0.1c0-0.1,0.1-0.2,0.4-0.5c0.3-0.2,0.4-0.4,0.3-0.5c-0.1-0.2-0.4-0.3-1-0.4
			c-0.5-0.1-0.8-0.2-0.9-0.4c-0.5-0.6-0.8-1.7-0.8-3.3c0-2.3,1.4-4.1,4.1-5.5c2.2-1.1,4.6-1.6,7.2-1.6c2.2,0,4,0.4,5.4,1.1
			c0,0,0.1,0.1,0.1,0.1c0,0.1-0.1,0.2-0.2,0.4c-0.1,0.2-0.2,0.3-0.2,0.4c0,0,0,0.1,0.1,0.1c0.4-0.1,0.8-0.2,1.3-0.3
			c1.7,1.2,2.8,3,3.3,5.5c-1.5,0.3-2.8,0.9-3.8,1.9c-0.9,0.9-1.8,1.5-2.8,1.7c0.3-0.7,0.5-1.3,0.8-1.9c0.4-0.8,0.5-1.6,0.5-2.1
			c0-1.2-0.6-2.3-1.9-3.3s-2.5-1.5-3.8-1.5c-1.3,0-2.5,0.5-3.7,1.5c-1.1,1-1.7,2.1-1.7,3.3c0,2.9,1.5,4.8,4.4,5.9
			c2.8,0.7,5.5,1.4,8.2,2.1C366.5,96.8,367.9,98.6,367.9,101.3z"/>
		<path class="st3" d="M395.1,81.9l-0.9,2.9c-0.5,0-1.7-0.1-3.5-0.2c-2-0.1-4.3-0.1-6.7-0.1c-0.6,0-1.4,0.6-2.3,1.7
			c-0.9,1.2-1.5,1.9-1.7,2.1c-0.5,0.7-0.8,1.7-1.1,2.8c-0.5,2-0.8,4.1-0.8,6.3c0,3.2,0.9,5.6,2.7,7.4c0.9,0.9,1.7,1.5,2.6,1.8
			c0.9,0.3,2.1,0.4,3.7,0.4c0.5,0,1.6-0.4,3.2-1.1c2.1-0.9,3.7-1.9,4.6-3l-0.8,2c-1.1,0.9-2.2,1.9-3.3,2.8c-1.7,1.2-3.8,1.8-6.2,1.9
			c-3.2,0.1-5.9-1-8.2-3.2c-0.9-0.9-1.7-1.8-2.3-2.8c-0.1-0.1,0.1-0.3,0.4-0.6c0.3-0.3,0.5-0.4,0.4-0.6c-0.1-0.2-0.3-0.3-0.8-0.4
			c-0.5-0.1-0.8-0.2-0.8-0.4c-0.2-0.6-0.2-1.7-0.2-3.3c0-2.8,0.7-5.4,2.1-7.9c0.4-0.8,1.1-1.7,2.1-2.6c2.2-2,3.3-3.1,3.5-3.3
			L367,84.5c1-0.7,2.6-2.1,4.9-4.2c1.6,1.5,4.3,2.5,8.3,2.9l8.5-0.4l0.4,0.5l2.4-1.3L395.1,81.9z"/>
		<path class="st3" d="M422.7,99.3l-0.8,4.6c-0.2,0.5-0.5,1-0.8,1.4c-0.7,1-1.5,1.7-2.5,2.2c-2.4,1.2-5,1.7-7.7,1.7
			c-2.3,0-4.3-0.4-6-1.1c0.1-0.6,0.2-0.9,0.3-0.9c-0.1,0-0.1,0-0.2,0c-0.5,0.1-1.1,0.1-1.8,0.1c-0.8-0.4-1.6-0.9-2.3-1.5
			c-3.1-2.3-4.7-5.8-4.7-10.2c0-4.1,1.3-7.4,3.8-10.1c0.7-0.7,1.4-1.3,2.1-1.8c0.1,0,0.1,0.2,0.2,0.7c0.1,0.5,0.1,0.8,0.2,0.7
			c0.2-0.7,0.5-1.4,0.9-2.2c2.3-1.2,4.5-1.7,6.5-1.7c2.7,0,4.9,0.2,6.5,0.5c0.8,0.3,1.9,0.6,3.5,1c0.1-0.3,0.8-0.9,1.9-1.8v6
			l0.1,7.5h-1.5c-1.5-1.1-3-1.6-4.7-1.6h-14.5c-0.2,0.6-0.8,1.5-1.9,2.7c0,0,0.2,0.1,0.5,0.3c0.3,0.2,0.5,0.3,0.5,0.4
			c0,1.3,0.3,2.6,1,3.8c0.5,1,1.4,2.1,2.6,3.3c2.1,2.2,4.7,3.3,7.8,3.3c1.2,0,2.9-0.5,5-1.4c1-0.4,1.7-0.8,2-1.1
			c0.2-0.2,0.9-0.9,2.1-2.2c0.5-0.5,1-1.1,1.4-1.7C422.4,99.8,422.6,99.5,422.7,99.3z M419.4,87.9c-0.9-0.9-1.3-1.4-1.4-1.5
			c-0.6-0.6-1.1-1-1.6-1.2c-1.7-0.7-3.3-1.1-4.9-1.1c-1.7,0-3.6,0.6-5.6,1.9c-1.9,1.2-3.4,2.6-4.4,4.2l14.3,0.2c0.5,0,1.1-0.3,1.9-1
			C418.7,88.5,419.3,87.9,419.4,87.9z"/>
		<path class="st3" d="M451,108.9c-0.5,0.1-0.9,0.1-1.4,0.1c-0.7,0-1-0.1-0.8-0.1c-1.1,0-2-0.2-2.5-0.6c-0.1-0.1-0.2-0.1-0.3-0.1
			c-0.2,0-0.4,0.1-0.7,0.4s-0.6,0.4-0.8,0.5c-0.5-0.1-1.1-0.4-2-1c-1-0.7-2-1.6-2.9-2.6c-2.2-2.5-3.6-4.1-4.3-4.8
			c-1.2-1.3-2.2-2.2-3-2.7V109l-1.2-1l-1.5,1h-1.8V93.4l0.9-2.5l-0.9-0.6v-2.9c0-1.6-0.1-2.6-0.4-3c-0.2-0.3-0.4-0.6-0.6-1
			c-0.6-0.6-1.5-1.2-2.8-1.8h2.4c-0.1,0,0.7,0,2.2-0.1c0.7,0,1.3,0,1.6,0.2c0.4,0.4,0.9,0.8,1.5,1.4c2.2-1.4,4.3-2.1,6.4-2h0.2
			c1.8,0,3.2,0.5,4.4,1.4c1.3,1,1.9,2.4,1.9,4.1c0,0.4,0,0.8-0.1,1.2c0,0.1-0.2,0.2-0.4,0.2c-0.3,0-0.4,0.1-0.4,0.2
			c0,0.1,0,0.4,0.1,0.8c0.1,0.4,0.2,0.7,0.2,0.9c0,0.1,0,0.2,0,0.2c-0.9,2.2-3.5,4.2-7.8,6c1.4,0.8,2.9,2.1,4.6,3.9
			c1.3,1.5,2.7,3,4,4.5c0.9,0.9,1.5,1.5,1.7,1.7c0.5,0.5,1.3,1,2.3,1.5L451,108.9z M439.9,87.8c0-1.2-0.3-2-0.9-2.6
			c-0.6-0.6-1.2-0.9-1.7-0.9c-1.1,0-2.6,0.6-4.4,1.8l-0.2,0.1V94c2.2-0.8,3.9-1.6,5.2-2.5C439.2,90.5,439.9,89.3,439.9,87.8z"/>
	</g>
	<path class="st3" d="M742,99c0,2.5-0.6,4.5-1.9,6.4c-1.4,2.1-4.4,2.6-5.9,1.9c-0.8-0.4-1.6-0.9-2.3-1.5c-0.8-0.6-1.4-1.3-2.2-1.9
		c-0.2-0.2-0.5-0.3-0.8-0.3c-0.6,0.1-0.8,0.7-0.5,1.3c0.3,0.5,0.6,0.9,0.9,1.4c2.1,3.4-0.4,7.1-4,7.5c-2.1,0.2-4-0.1-5.8-1.3
		c-1.3-0.8-2.3-1.9-2.8-3.3c-0.4-1-0.3-2,0.1-3c0.5-1.1,1.1-2.1,2-2.9c0.3-0.3,0.6-0.5,0.8-0.8c0.3-0.5,0.1-0.9-0.5-0.9
		c-0.4,0-0.8,0.1-1.3,0.1c-0.8,0.1-1.5,0.2-2.3,0.2c-2.1,0-3.8-1.4-4.3-3.5c-0.6-2.5-0.1-4.8,1.1-7c1-1.8,3.6-2.8,5.7-1.4
		c0.9,0.6,1.8,1.4,2.7,2.1c0.2,0.2,0.4,0.4,0.7,0.6c0.5,0.3,1,0.1,1-0.5c0-0.5-0.1-1-0.2-1.5c-0.2-0.8-0.4-1.6-0.7-2.3
		c-0.6-1.7,0.2-2.9,1.3-3.9c0.7-0.6,1.5-0.9,2.4-1.1c3.3-0.5,6,0.7,8.2,3c1,1.1,1.5,2.4,1.1,3.9c-0.2,0.6-0.4,1.1-0.9,1.5
		c-0.7,0.6-1.3,1.2-2,1.7c-0.3,0.2-0.6,0.4-0.4,0.8c0.2,0.4,0.6,0.6,1,0.5c0.7-0.2,1.3-0.5,2-0.7c1.1-0.4,2.1-0.8,3.3-0.8
		c1.8,0.1,2.9,1,3.6,2.5C741.8,96.9,742.1,98.1,742,99z M732,88.5c-0.3,0.3-0.6,0.6-0.8,0.9c-0.7,1-1.3,2.1-2,3.1
		c-0.1,0.2-0.4,0.4-0.7,0.7c-0.2-1-0.1-1.7,0.1-2.5c0.2-1.1,0.4-2.2,0.4-3.3c0-0.2-0.1-0.4-0.2-0.7c-0.3,0.5-0.4,0.8-0.5,1.1
		c-0.3,1-0.6,2-0.9,3c-0.2,0.5-0.3,1-0.9,1.3c-0.4-0.5-0.6-0.9-0.7-1.5c-0.2-1.2-0.3-2.3-0.5-3.5c0-0.2-0.1-0.3-0.4-0.7
		c-0.1,0.5-0.1,0.8-0.1,1c0,1.1,0.1,2.1,0.1,3.2c0,0.6,0,1.3-0.1,1.9c-0.1,1-0.8,1.9-2.2,1.8c-0.4-0.1-0.8-0.1-1.2-0.3
		c-0.9-0.4-1.7-1-2.5-1.5c-0.2-0.1-0.5-0.5-0.8-0.1c-0.1,0.2,0,0.6,0.1,0.8c0.1,0.3,0.4,0.5,0.6,0.8c0.2,0.2,0.4,0.4,0.6,0.7
		c0.2,0.4,0,0.7-0.4,0.7c-0.5-0.1-1.1-0.2-1.6-0.4c-0.7-0.2-1.4-0.5-2.1-0.8c-0.2-0.1-0.4,0-0.7,0c0.6,0.7,1.2,1,1.9,1.3
		c0.7,0.3,1.4,0.7,2,1c0.1,0.1,0.2,0.3,0.2,0.4c0,0.1-0.2,0.2-0.3,0.2c-0.5,0.1-1,0.1-1.5,0.1c-0.8,0.1-1.6,0-2.5,0.5
		c1.1,0.2,1.9,0.4,2.8,0.5c0.6,0.1,1.3,0.2,1.9,0.3c0.1,0,0.3,0.2,0.3,0.3c0,0.1-0.1,0.3-0.2,0.4c-0.5,0.2-1,0.4-1.5,0.5
		c-0.4,0.1-0.7,0.2-0.8,0.8c0.8-0.1,1.6-0.1,2.3-0.2c0.3,0,0.6-0.1,0.9-0.1c1.1,0,1.7,0.7,1.4,1.7c-0.1,0.4-0.3,0.9-0.5,1.3
		c-0.3,0.6-0.7,1.2-1.1,1.7c-0.3,0.4-0.5,0.9-0.8,1.3c-0.1,0.2-0.1,0.4-0.1,0.6c0.2-0.1,0.4,0,0.5-0.1c0.3-0.2,0.5-0.4,0.8-0.7
		c0.7-0.8,1.5-1.5,2.2-2.3c0.2-0.2,0.4-0.2,0.7-0.3c0,0.3,0.1,0.5,0.1,0.7c-0.1,1.1-0.2,2.3-0.4,3.4c-0.1,0.6-0.2,1.3,0,2.1
		c0.8-0.6,1-1.4,1.4-2.1c0.3-0.8,0.6-1.6,1-2.3c0.1-0.2,0.3-0.3,0.5-0.6c0.4,1.4,0.7,2.7,1.1,4.1c0.1-0.2,0.2-0.3,0.2-0.4
		c0.1-0.8,0.2-1.6,0.2-2.4c0-0.8,0-1.6,0.1-2.4c0.2-1.3,1.2-2,2.5-1.6c0.4,0.1,0.8,0.3,1.2,0.5c0.9,0.6,1.9,1.2,2.8,1.8
		c0.8,0.6,1,0.7,2,0.9c-0.3-0.3-0.5-0.5-0.7-0.7c-0.8-0.7-1.7-1.4-2.5-2.2c-0.6-0.5-1.2-1.1-1.5-1.9c1.8,0,3.3,1,5,1.2
		c-0.2-0.6-0.6-0.7-1-0.9c-0.9-0.5-1.7-0.9-2.6-1.3c-0.4-0.2-0.8-0.4-0.8-0.9c0.2-0.1,0.3-0.1,0.5-0.2c1.1-0.4,2.3-0.4,3.5-0.4
		c0.8,0,0.8,0,1.5-0.5c-1.1-0.2-2.1-0.3-3.1-0.5c-0.8-0.1-1.7-0.3-2.5-0.5c-1.3-0.4-1.7-1.5-1.4-2.7c0.1-0.4,0.3-0.8,0.4-1.2
		c0.4-0.8,0.8-1.7,1.2-2.5C731.8,89.3,731.9,88.9,732,88.5C732,88.4,732,88.4,732,88.5C732,88.4,732,88.4,732,88.5z"/>
	<path class="st3" d="M725,94.7c-1.8,0.2-3,0.9-3.1,3.3c-0.1,1.9,1.7,3.1,3.2,3c1.8,0,3.3-1.5,3.2-3.4
		C728.4,96.1,726.7,94.5,725,94.7z M725.3,98.7C725.3,98.7,725.3,98.7,725.3,98.7C725.2,98.7,725.2,98.7,725.3,98.7
		c-0.1,0-0.1,0-0.2,0c-0.5,0-0.8-0.4-0.8-0.8c0-0.5,0.4-0.8,0.8-0.8c0.5,0,0.8,0.4,0.8,0.8C725.9,98.3,725.7,98.6,725.3,98.7z"/>
	<path class="st6" d="M303.4,11.6c0,1.8-0.4,3.2-1.3,4.5c-1,1.5-3.1,1.8-4.1,1.3c-0.6-0.3-1.1-0.7-1.6-1.1c-0.5-0.4-1-0.9-1.5-1.3
		c-0.1-0.1-0.4-0.2-0.6-0.2c-0.4,0.1-0.6,0.5-0.4,0.9c0.2,0.3,0.4,0.7,0.6,1c1.5,2.4-0.3,5-2.8,5.2c-1.5,0.1-2.8-0.1-4.1-0.9
		c-0.9-0.6-1.6-1.3-2-2.3c-0.3-0.7-0.2-1.4,0.1-2.1c0.3-0.8,0.8-1.5,1.4-2.1c0.2-0.2,0.4-0.4,0.5-0.6c0.2-0.3,0-0.7-0.4-0.7
		c-0.3,0-0.6,0.1-0.9,0.1c-0.5,0.1-1.1,0.1-1.6,0.1c-1.5,0-2.7-1-3-2.4c-0.4-1.7-0.1-3.3,0.8-4.9c0.7-1.2,2.6-2,4-1
		c0.7,0.5,1.2,1,1.9,1.5c0.2,0.1,0.3,0.3,0.5,0.4c0.3,0.2,0.7,0,0.7-0.3c0-0.3,0-0.7-0.1-1c-0.1-0.5-0.3-1.1-0.5-1.6
		c-0.4-1.2,0.1-2,0.9-2.8c0.5-0.4,1-0.6,1.7-0.7c2.3-0.3,4.2,0.5,5.8,2.1c0.7,0.7,1,1.7,0.7,2.7c-0.1,0.4-0.3,0.8-0.6,1.1
		c-0.5,0.4-0.9,0.8-1.4,1.2c-0.2,0.2-0.4,0.3-0.3,0.6c0.1,0.3,0.4,0.5,0.7,0.4c0.5-0.2,0.9-0.3,1.4-0.5c0.8-0.3,1.5-0.6,2.3-0.5
		c1.2,0.1,2.1,0.7,2.6,1.8C303.3,10.1,303.4,11,303.4,11.6z M296.4,4.2c-0.2,0.2-0.4,0.4-0.6,0.6c-0.5,0.7-0.9,1.5-1.4,2.2
		c-0.1,0.2-0.3,0.3-0.5,0.5c-0.1-0.7-0.1-1.2,0.1-1.8c0.2-0.8,0.3-1.5,0.2-2.3c0-0.1-0.1-0.2-0.2-0.5c-0.2,0.3-0.3,0.5-0.4,0.8
		c-0.2,0.7-0.4,1.4-0.7,2.1c-0.1,0.4-0.2,0.7-0.6,0.9c-0.3-0.3-0.4-0.7-0.5-1.1c-0.1-0.8-0.2-1.6-0.4-2.5c0-0.1-0.1-0.2-0.2-0.5
		c-0.1,0.4-0.1,0.5-0.1,0.7c0,0.7,0,1.5,0,2.2c0,0.4,0,0.9,0,1.3c-0.1,0.7-0.6,1.4-1.5,1.2c-0.3,0-0.6-0.1-0.8-0.2
		c-0.6-0.3-1.2-0.7-1.8-1c-0.2-0.1-0.4-0.3-0.5-0.1c-0.1,0.1,0,0.4,0.1,0.6c0.1,0.2,0.3,0.4,0.4,0.6c0.1,0.2,0.3,0.3,0.4,0.5
		c0.2,0.3,0,0.5-0.3,0.5c-0.4-0.1-0.7-0.2-1.1-0.3c-0.5-0.2-1-0.4-1.5-0.5c-0.1,0-0.2,0-0.5,0c0.4,0.5,0.9,0.7,1.3,0.9
		c0.5,0.2,1,0.5,1.4,0.7c0.1,0,0.1,0.2,0.1,0.3c0,0.1-0.1,0.2-0.2,0.2c-0.4,0-0.7,0.1-1.1,0.1c-0.5,0-1.1,0-1.7,0.3
		c0.7,0.1,1.3,0.2,2,0.4c0.4,0.1,0.9,0.1,1.3,0.2c0.1,0,0.2,0.1,0.2,0.2c0,0.1-0.1,0.2-0.2,0.3c-0.4,0.1-0.7,0.3-1.1,0.4
		c-0.2,0.1-0.5,0.1-0.6,0.5c0.6,0,1.1-0.1,1.6-0.1c0.2,0,0.4-0.1,0.6-0.1c0.8,0,1.2,0.5,1,1.2c-0.1,0.3-0.2,0.6-0.4,0.9
		c-0.2,0.4-0.5,0.8-0.7,1.2c-0.2,0.3-0.4,0.6-0.5,0.9c-0.1,0.1,0,0.2-0.1,0.4c0.2,0,0.3,0,0.3-0.1c0.2-0.1,0.4-0.3,0.5-0.5
		c0.5-0.5,1-1.1,1.6-1.6c0.1-0.1,0.3-0.1,0.5-0.2c0,0.2,0.1,0.4,0.1,0.5c-0.1,0.8-0.2,1.6-0.3,2.4c-0.1,0.5-0.2,0.9,0,1.4
		c0.6-0.4,0.7-1,1-1.5c0.2-0.5,0.4-1.1,0.7-1.6c0.1-0.1,0.2-0.2,0.4-0.4c0.3,1,0.5,1.9,0.7,2.9c0.1-0.1,0.2-0.2,0.2-0.3
		c0.1-0.6,0.1-1.1,0.2-1.7c0-0.6,0-1.1,0-1.7c0.1-0.9,0.9-1.4,1.7-1.1c0.3,0.1,0.6,0.2,0.8,0.4c0.7,0.4,1.3,0.8,1.9,1.2
		c0.6,0.4,0.7,0.5,1.4,0.6c-0.2-0.2-0.3-0.4-0.5-0.5c-0.6-0.5-1.2-1-1.8-1.5c-0.4-0.4-0.8-0.8-1-1.4c1.3,0,2.3,0.7,3.5,0.8
		c-0.1-0.4-0.5-0.5-0.7-0.6c-0.6-0.3-1.2-0.6-1.8-0.9c-0.3-0.1-0.5-0.2-0.6-0.6c0.1-0.1,0.2-0.1,0.3-0.1c0.8-0.3,1.6-0.3,2.5-0.3
		c0.5,0,0.5,0,1.1-0.4c-0.8-0.1-1.5-0.2-2.2-0.3c-0.6-0.1-1.2-0.2-1.7-0.4c-0.9-0.3-1.2-1-1-1.9c0.1-0.3,0.2-0.6,0.3-0.8
		c0.3-0.6,0.6-1.2,0.8-1.8C296.3,4.8,296.3,4.5,296.4,4.2C296.4,4.2,296.4,4.2,296.4,4.2C296.4,4.2,296.4,4.2,296.4,4.2z"/>
	<path class="st6" d="M291.5,8.6c-1.2,0.1-2.1,0.6-2.1,2.3c-0.1,1.3,1.2,2.1,2.3,2.1c1.3,0,2.3-1.1,2.3-2.4
		C293.9,9.6,292.7,8.5,291.5,8.6z M291.7,11.4C291.7,11.4,291.7,11.4,291.7,11.4C291.6,11.4,291.6,11.4,291.7,11.4
		c-0.1,0-0.1,0-0.1,0c-0.3,0-0.6-0.3-0.6-0.6c0-0.3,0.3-0.6,0.6-0.6c0.3,0,0.6,0.3,0.6,0.6C292.1,11.1,291.9,11.3,291.7,11.4z"/>
	<path class="st3" d="M161.1,33.8c-0.4-0.1-0.8-0.1-1.1-0.3c-0.7-0.4-1.8,0.1-2.3-0.8c-2.4-4.6-6.4-5-10.7-4.5
		c-3.3,0.4-5.1,2.6-6.3,5.5c-0.5,1.3-0.9,2.5-3,2.3c-3.1-0.2-6.2,0.7-9.1,1.9c-3.4,1.4-6.9,2.9-9.3,5.8c-2.2,2.5-4.5,4.7-7.9,5.3
		c-0.5,0.1-1.4,0.3-1.4,0.9c0,0.6,1,0.2,1.4,0.6c0.1,0.1,0.2,0.1,0.4,0.3c-1.6-0.1-3,0.3-4.5,0.5c-4.2,0.6-8.5,1.1-12.8,1.9
		c-4.9,0.8-9.7,1.6-14.6,2.3c-2.5,0.4-5,0.8-7.4,1.5c-0.9,0.3-0.8,0.7-0.2,1.1c0.4,0.3,0.9,0.5,1.4,0.5c0.3,0,0.7,0.2,0.8,0.4
		c0.4,0.9,0.6,1.1,1.6,0.8c0.6-0.2,1.2-0.4,1.8-0.5c3.4-0.6,6.8-1.2,10.2-1.7c2-0.3,4-0.9,6-0.5c-0.3,0.3-0.6,0.5-0.9,0.7
		c0.3,0,0.7,0,1,0c0.4-0.1,0.8-0.2,1.2-0.2c0.1,0,0.3,0.1,0.4,0.1c-0.1,0.1-0.2,0.1-0.3,0.2c-0.2,0.1-0.5,0.2-0.7,0.4
		c-0.3,0.2-1,0.2-0.9,0.7c0.1,0.4,0.7,0.2,1,0.2c2.7,0,5.2-0.9,7.8-1.1c2.2-0.2,4.3-0.6,6.5-0.8c2.1-0.2,4.1-0.2,5.8,0.7
		c3.6,1.9,7.1,3.9,11.1,4.5c0.2,0,0.9-0.1,0.7,0.5c-0.3,1.1,0.6,1.5,1.1,2.2c1,0,0.6,1.3,0.9,1.3c0.5,0,0.9-0.9,1.6,0
		c0.4,0.5,1.5,0,1.7,1c0,0,0.1,0,0.1,0.1c0.4-1.6,1.4-0.9,2.4-0.7c0.1,0,0.3-0.4,0.6-0.3c0,0,0,0,0,0c0.8,0,1.7-0.4,2.1,0.7
		c1.5,2.2,3.4,4.1,5.5,5.6c2.3,1.7,4.9,2.6,7.8,2.2c0-0.3-0.2-0.6-0.4-0.8c-2.7-3.4-6.1-5.9-10.1-7.6c-0.4-0.1-0.9-0.2-1-0.5
		c-0.8-1.9-2.5-1.1-3.7-1c-1.4,0.1-2.4,0-3.4-1c-0.2-0.2-0.9-0.1-0.6-0.7c0.2-0.5,0.3-1.1,1.1-1.3c4.9-1.1,9.3-3,13.2-6.2
		c3.3-2.7,5.9-5.9,7.5-9.9c1.7-4.4,3.1-9,7.7-11.4C161.8,34.6,162.1,34.1,161.1,33.8z M130,65c-1.4-0.6-1.5-1.3-0.3-2.3
		c0,0.8,0,1.6,0.6,2.2C130.3,65,130.2,65.1,130,65z M155,33.4c-0.3,0.1-0.5-0.2-0.6-0.4c0,0,0.2-0.1,0.2-0.2c0.3,0,0.5,0,0.6,0.3
		C155.2,33.1,155.1,33.3,155,33.4z"/>
	<path class="st4" d="M241.8,97.3c-0.2-0.8-1-1.3-1.9-1.3c-0.6,0-0.7-0.4-1-0.9c-0.6-1.4-2-2.3-3.1-3.2c-1-0.8-2.9,0.2-3.5,1.4
		c-0.2,0.4-0.4,0.6-0.9,0.5c-0.6-0.1-1.3,0.1-1.5,0.5c-0.3,0.4-0.5,0.5-0.8,0.6c0,0,0-0.1,0-0.2c-0.2-1.3-1-1.1-1-1.1h-2.5
		c-0.1-0.4-0.1-0.9-0.1-1.6c-0.5,0.4-1.3,0.1-1.8,0.5c0.1,0.5,0.1,0.8-0.1,1.1h-4.9c0,0,0,0,0,0c-0.3-0.1-0.6-0.1-1,0h0.6
		c-2.7,0.6-7.2,1.4-10.4,2.1c0,0,0,0,0,0c0,0,0,0,0,0c0,0,0,0,0,0c-0.7,0.2-1.4,0.3-2.1,0.5c-0.5,0.1-1,0.2-1.5,0.3
		c-0.8,0.2-1.4,0.3-1.8,0.3c-0.2,0-0.3,0-0.5,0c-0.1,0-0.2-0.1-0.3-0.1c-0.1-0.1-0.3-0.2-0.4-0.3c-0.3-0.3-0.6-0.8-1-1.6
		c-0.6,0-1.1,0-1.7,0c-5.2-0.4-10.4-0.3-15.6-0.4c-1.5,1.7-2.6,1.7-4.2,0c-1.1,0-2.1-0.1-3.2-0.1c-0.6,1.7,0.2,3.1,1.3,4.3
		c0.7,0.7,0.4,1-0.3,1.3c-1.5,0.6-3.3-0.4-4.4-2.2c-0.4-0.7-0.4-1.7-1-2.3c-0.6,0.6-1.2,1.3-1.7,1.9c-2,2.3-4.4,3.8-7.5,3.8
		c-2.8,0-5.6-0.8-7.7-3.1c-0.2-0.2-0.5-0.5-0.4-0.6c0.2-0.3,0.5-0.1,0.8,0c3.6,0.4,7.1,0,10.3-2c0.5-0.3,1-0.6,1-1.3
		c-1.3-0.1-2.5-0.1-3.2-0.1c-1.9,0-2.6-0.1-4.5-0.2c-1.1,0.1-1.6-0.3-1.5-1.4c-1.5,1-3,2-4.8,0.8c-0.4-0.3-0.8-0.5-0.9-1
		c0-0.5,0.6-0.5,0.9-0.7c1.8-1.1,2.6-2.8,3.1-4.7c0.1-0.5,0.2-1.1,0.6-1.5c0,0,0,0,0,0c0-1.4-0.4-2.7-1.1-3.9
		c-2.1,0.8-4.4,1.2-6.5,2.1c-1.9,0.8-3.7,1.7-4.4,3.8c-0.2,0.6-0.5,0.4-0.9,0.2c-1.4-0.8-1.7-2-1.1-3.9c0.1-0.3,0.6-0.7,0.1-1
		c-0.4-0.2-0.8-0.4-1.3-0.2c-1.9,0.8-2.8,2.3-3.6,4c-0.2,0.5,0,1.3-0.8,1.2c-0.8-0.1-1.3-0.7-1.5-1.4c0-0.1-0.1-0.3,0-0.4
		c0.4-2-0.7-2.1-2.2-2c-2.4,0.1-4.7-0.1-7,0.9c-1.3,0.6-2,1.6-2.5,2.8c-0.4,1-0.7,0.7-1.1,0c-1.4-2.1-0.8-5.3,1.3-6.8
		c1.8-1.3,3.7-1.7,5.8-1.6c2-0.3,4,0.1,6-0.2c0.3-0.1,0.7-0.2,1-0.3c0.9-0.1,0.7-0.5,0.1-0.8c-1-0.6-1.4-1.6-1.9-2.5
		c-0.3-0.6-0.3-1.2,0-1.9c0.2-0.5,0.4-0.6,0.8-0.2c2.2,2.4,5.2,2.8,8.3,3c2.1,0.1,3.9,1.2,6,1.4c0.9,0.1,1.9,0,2.8,0.6
		c-4.6,0.8-9.2,1.6-13.9,1.9c-2.9,0.2-5.7,0.3-8.5,0c-2.7-0.3-5.8,1.6-6.8,3.9c-0.1,0.1-0.1,0.3-0.1,0.6c0,0,0,0,0,0
		c0,0,0.1,0,0.1,0c2.4-2.9,5.1-3.8,8.7-3.4c3.8,0.5,7.7,0.2,11.5-0.5c3.4-0.6,6.8-1.2,10.2-1.8c0.2,0,0.3-0.1,0.5-0.2
		c-0.3-0.7-0.5-1.4-1.2-1.9c-5,0-9.5-1.4-13.1-4.9c-0.9-0.9-1.7-1.9-2.3-3.1c-0.4-0.9-0.5-1.6,0.8-1.7c0-0.1,0.1-0.1,0.1-0.2
		c-0.4-1.1-1.2-1-2.1-0.8c-0.1,0.1-0.2,0.2-0.3,0.3c0,0,0.1,0,0.1,0c-0.1,2.1-1.6,3.5-3.7,3.6c-2.5,0.1-6.3-2.1-6.9-4.5h0l0,0
		c-3.7,0.3-7.4,1.2-11,2.2c-2.1,0.6-4.3,1.2-6.4-0.1c-0.4-0.3-0.9-0.6-1.3-0.8c-1.1-0.5-2.2,0.2-2,1.4c0.3,1.4,0.1,2.7,0.3,4.1
		c1.1-0.6,2.3-0.6,3.5-0.7c1-0.1,2-0.2,3-0.7c0.2-0.1,0.5-0.2,0.6-0.1c0.3,0.1,0.2,0.5,0.1,0.7c-0.2,0.6-0.6,1.1-1.2,1.4
		c-1.9,1-4,1.4-5.9,2.2c-0.8,0.3-1.5,0.7-2,1.3c-0.2,0.2-0.4,0.6-0.3,0.7c0.1,0.2,0.4,0.1,0.7,0c0.6-0.3,1.2-0.5,1.8-0.7
		c2.6-0.8,4.9,1.1,4.7,3.8c0,0.3,0,0.7-0.3,0.8c-0.2,0-0.4-0.2-0.6-0.4c-1.1-1.1-2.1-2.3-3.7-2.7c-1.2-0.3-2.3-0.1-3.2,0.8
		c-0.2,0.2-0.6,0.4-0.4,0.7c0.1,0.2,0.5,0.4,0.8,0.4c2.7-0.3,3.4,1.6,4.2,3.6c0.2,0.4,0.4,0.8,0.7,1.3c0.2,0.4,0.7,0.7,0.4,1.1
		c-0.2,0.2-0.9,0.2-1.2,0.1c-1.1-0.4-2.3-0.8-2.8-2.1c-0.3-0.8-0.9-1.4-1.6-1.9c-1-0.8-2.4-0.6-3,0.4c-2,3.4-5.1,5.7-8.1,8.1
		c-0.1,0.1-0.3,0.1-0.5,0.2c0-0.2-0.2-0.4-0.1-0.6c0.1-0.6,0.5-1,0.9-1.4c2.1-2,4.1-4,5.8-6.4c0.9-1.2,0.8-1.8-0.4-2.6
		c-1.4-1.1-2.9-2-3.9-3.5c-0.2-0.3-0.4-0.6-0.3-1.1c0,0,0,0,0,0c-0.1-0.1-0.3-0.2-0.4-0.2c-3.7-0.3-7.2-1-10.7-2.3
		c-4.8-1.8-6.4-3.9-6.7-8.9c-0.1-1.4-0.9-2.5-2-3.3c-0.5-0.4-0.9-0.2-1.3,0.2c-1.3,1.2-2.8,1.8-4.6,1.6c-3.3-0.5-6.4-1.5-9.4-2.9
		c-6.2-2.9-12.8-3.3-19.5-2.5C32,57.2,27.4,60,23.1,63c-1.3,0.9-2.8,1.8-3.5,3.5c2.8-1.4,5.6-2.6,8.7-3c0.3,0,0.7-0.2,0.9,0.1
		c0,0.1-0.3,0.4-0.5,0.7c-0.2,0.2-0.5,0.4-0.5,0.6c-0.4,2-1.9,2.4-3.6,2.7c-2.9,0.4-5.3,1.9-7.9,3c-0.7,0.5-0.9,1.3-1.3,2.1
		c2.6-1.7,5.1-0.9,7.6,0.1c0.7,0.3,1,0.6,0.7,1.4c-0.6,1.5-1.2,3-2.2,4.4c-1,1.5-2.5,2.1-4.2,2.5c-0.4,0.1-0.9,0.1-0.8,0.6
		c0.1,0.4,0.6,0.2,0.9,0.2c1.5-0.1,2.8,0.3,4,1.2c2,1.6,1.5,4-0.1,5.6c-0.3,0.3-0.6,0.2-0.9-0.1c-2.6-2.4-5.7-2.5-8.9-1.6
		c-0.1,0.4-0.3,0.7-0.3,1.1c-0.1,2.3-0.4,4.5-0.3,6.8c0.1,1.3-0.7,2-2,2c-1.1,0-2.2,0.1-3.2,0c-0.9-0.1-1.7,0.2-2.3,0.8
		c0,0.6,0,1.2,0,1.8c0.3,0.1,0.5,0.4,0.8,0.2c0.3-0.6-0.6-1.6,0.5-2c1.8,0.2,3.6,0,5.4,0.1c0.5,0,0.9-0.1,1.4,0.1
		c1.4,0.5,1.7,1.9,2.4,2.9c0.2,0.2,0.2,0.8,0.7,0.6c0.4-0.1,0.3-0.6,0.3-0.9c-0.1-0.5-0.2-0.9-0.2-1.4c-0.3-2.6,1.3-4,3.2-5.1
		c1.4-0.8,3-1.1,4.6-1.3c1.7-0.2,1.9,1.2,2,2.3c0.3,2.1,0.1,4.2-1.7,5.9c-0.3,0.3-0.8,0.7-0.4,1.3c0.3,0.5,0.8,0.3,1.2,0.2
		c3.6-0.8,7.6,1.9,8.3,5.7c0.1,0.5-0.1,0.6-0.4,0.8c-1.8,1.2-3.8,2-5.9,2.3c-1.5,0.2-2.7-0.5-4-1.3c-0.3-0.2-0.9-0.8-1.2-0.4
		c-0.3,0.4,0.4,0.7,0.7,1c3.5,3.5,2.6,8,0,11.5c-0.3,0.4-0.7,0.5-1.2,0.3c-3.5-1-5.7-4-5.6-7.6c0-0.3,0-0.6,0-0.9
		c0-0.4,0-0.7-0.3-0.9c-0.4-0.2-0.6,0.2-0.9,0.4c-0.4,0.3-0.8,0.7-1.1,1.1c0.1,0.3,0.2,0.6,0.2,0.8c1,6,3.3,11.4,6.9,16.3
		c1,1.4,2,3,3.8,3.7c0.1-2,0.8-3.3,2.1-3.6c1.9-0.5,3.7,0,4.5,1.3c0.4,0.6,0.3,1.2,0.5,1.8c0.1,0.3,0.1,0.8,0.6,0.9
		c0.5,0.1,0.8-0.2,1.1-0.5c0.7-0.7,0.9-1.8,2.2-2c2-0.3,3.4,0.9,3.9,2.2c0.9,2.3,0.5,3-1.1,4c-0.7,0.4-1.5,0.7-1.6,1.7c0,0,0,0,0,0
		c2.7,0.6,5.3,0.5,8,0.3c4.1-0.4,8.2-1.2,12.1-2.5c3.4-1.2,6.6-2.8,10.2-3.4c1.3-0.2,2.8-0.6,4,0.4c1.3,1,2.7,1,4.1,0.5
		c1.1-0.3,1.5-0.9,1.1-2.1c-0.8-2.7,0.6-6.4,3-7.9c3.3-2.1,7.1-2.9,10.9-3.5c2.1-0.3,4.2-0.5,6.4-0.7c1.7-1.6,3.3-3.2,3.1-5.8
		c-0.1-1.9-1.2-3.4-2.3-4.8c-1.3-1.5-2.6-3-4.5-3.9c1.3-0.3,1.6-0.2,2.8,0.6c1.9,1.3,3.3,3.2,4.5,5.1c0.6,1,1.2,1.1,2,0.4
		c1.8-1.4,3.5-2.9,5.4-4.3c0.7-0.6,1.6-0.9,2.6-0.5c0.5,0.2,0.6,0.4,0.2,0.8c-1.1,1-1.8,2.3-2.6,3.5c-0.9,1.3-2.1,2-3.7,2
		c-0.5,0-1-0.1-1.5,0.2c-0.3,0.1-0.9,0.1-0.9,0.2c0,0.5,0.4,0.7,0.7,1c1.6,1.1,3.2,0.8,4.9,0.3c1.4-0.4,2.8-0.9,4.3-0.9
		c0.3,0,0.8,0,0.9,0.3c0.1,0.4-0.4,0.4-0.6,0.6c-0.7,0.5-1.4,1-2.1,1.6c-1.2,1.2-2.5,1.2-3.9,0.6c-0.3-0.1-0.6-0.2-0.8-0.3
		c-0.2-0.1-0.6-0.2-0.7,0c-0.2,0.3,0.1,0.5,0.3,0.6c1.1,1.2,2.6,1.9,3.8,2.9c1.5,1.2,2.7,2.7,3.1,4.6c0.1,0.8,0.1,1.2-1,1
		c-1.5-0.4-2.8-1.2-3.9-2.2c0.5,0.9,0,1.6-0.2,2.5c-0.2,0.7-0.2,1.5,0.5,1.8c0.5,0.2,1.3,0.4,1.7-0.2c0.6-1,1.6-1.1,2.6-1.2
		c3.4-0.3,6.4,1.3,9.5,2.2c2.9,0.8,5.8,1.5,8.9,1.6c-0.9-0.8-1.9-1.5-2.8-2.3c-1.2-1.1-1.5-2.5-0.8-4c1-2.6,5.9-5,8.6-4.1
		c3.3,1,4.4,3.2,3.5,7c-0.2,0.7-0.3,1.3,0.3,1.8c0.7,0.6,1.1-0.2,1.6-0.4c1.1-0.6,2-1.5,3.1-2c1.3-0.6,2.3-0.4,3.2,0.6
		c2.9-1.6,5.2-4,7-6.8c-2.3,0.2-4.2,1.3-6.3,2.1c-1.9,0.7-3.6,1.7-5.3,2.9c-0.6,0.4-0.9,0.4-1.4-0.1c-0.6-0.6,0-0.9,0.3-1.2
		c2.1-2,4.7-3.3,7.4-4.4c2.2-0.9,4.4-1.6,6.8-1.8c0.5-0.4,0.7-1,0.8-1.6c-1,0.5-2.1,0.1-3.2,0.3c-1.5,0.3-2.9,0.7-4.3,1.3
		c-0.2,0.1-0.5,0.3-0.7,0c-0.2-0.2,0-0.5,0-0.7c0.4-1.5,1.8-1.8,3.1-2.5c-2.4-0.4-4.5,0.3-6.5,1.1c-0.4,0.2-0.8,0.3-1.2,0.5
		c-0.4,0.1-0.8,0.5-1.1,0.1c-0.4-0.5-0.1-1,0.2-1.4c0.5-0.7,1.2-1.2,2-1.6c0.2-0.1,0.6,0,0.6-0.3c0-0.3-0.4-0.3-0.7-0.3
		c-1.7,0-3.5,0-5.2,0c-2.9-0.1-5.8-0.4-8.3-2.3c-0.3-0.2-0.6-0.4-0.8-0.7c-0.5-0.7-1.4-1.5-1.2-2.3c0.2-0.4,1.3,0.4,2,0.7
		c3.1,1.2,6.3,0.6,9.5,0.3c0.8-0.1,1.6-0.2,2.4,0c0.5,0.1,1.3,0.3,0.9-0.8c-0.2-0.7-0.2-1.5,0.3-2.1c0.8-1.2,1.7-1.3,2.3,0
		c1,1.9,2.8,2.3,4.8,2.5c0.7,0.1,0.6-0.4,0.4-0.7c-0.3-0.7-0.1-1.3,0.1-1.8c0.3-0.5,0.7-1,1.3-1c0.5,0,0.4,0.7,0.6,1
		c1,2.1,2.6,3.5,4.7,4.3c0.1-0.5,0.3-1,0.4-1.5c0.4-2.1,0.2-4.2,0.2-6.3c0-0.6,0.1-0.9,0.8-0.9c2.8,0.1,5.6,0,8.4-0.2
		c2.3-0.2,4.1-0.1,6.8-0.2c0.1-0.2,0.1-0.3,0.2-0.5c0.3-0.7,0.8-1.2,1.5-1.1c0.8,0,0.6,1,0.9,1.5c1,0,2.1,0,3.1,0
		c0.5-1.6,1.7-2.5,3.3-2.9c0.2,0,0.4-0.1,0.4-0.1c0.2,0.2,0,0.4-0.1,0.5c-0.3,0.8-0.8,1.5-0.8,2.4c4.8-0.1,7.8-0.3,12.7-0.3
		c0.1,0,1.9,0,2-0.1c-0.4-0.2-0.3-0.6-0.2-0.9c0.3,0.2,0.6,0.5,0.7,0.9c3.9-0.3,6.1-0.4,11.6-0.3c0.2,0,0.4,0.1,0.6,0.2
		c0,0,0.1,0.1,0.1,0.1c0.3,0.3,0.8,0.5,1.5,0.6h2.7c0,0.2,0.1,0.3,0.1,0.6c0,0.6,0,1.1,0,1.7c0.1,1.7,0.2,3.4-1.6,4.3
		c-0.3,0.1-0.4,0.4-0.5,0.7c-0.7,2,0.2,3.4,2.9,4.1c1.3,0.3,2.5,0,3.2-1.2c0.9-1.5,0.8-3.3-0.3-3.9c-1.4-0.7-1.3-1.7-1.2-2.9
		c0-0.9,0.1-1.8,0-2.6c0-0.3,0-0.6,0-0.8h6.1c-0.2,1.3-0.1,2.6,0,3.9c0,0.8-0.3,1.2-1,1.5c-0.9,0.3-1.4,1-1.4,2
		c0,1.5,0.5,2.6,1.8,3.3c1.4,0.7,4,0.3,4.8-0.6c1.4-1.5,0.7-4-1.3-4.7c-0.3-0.1-0.4-0.2-0.4-0.5c-0.3-1.6-0.2-3.2-0.3-4.8
		c0,0,0,0,0-0.1h4.4c0,0,0.8,0.2,1-1.1c0,0,0,0,0,0c0.7,0.1,1.1,0.5,1.6,1.1c0.7,0.9,1.6,1.6,2.7,2.1c1.7,0.7,3.6,0.3,3.9-1
		c0.3-1.4,1.1-2,2.3-2.4c0.6-0.2,1.1-0.5,1.6-0.8C241.7,99.4,242.1,98.4,241.8,97.3z M29.4,64.5c0.6-0.6,1.3-0.9,2.2-0.2
		c0.4,0.3,0.9,0.3,1.3,0c0.3-0.2,0.3-0.6,0.2-0.9c-0.3-0.6-1-0.6-1.6-0.7c-0.5-0.1-1.2,0.8-1.4-0.2c-0.2-0.8,0.3-1.5,1.1-1.9
		c0.7-0.3,1.4-0.6,2.1-0.5c0.7,0,1.5,0.1,2,0.7c0.4,0.5,2.2,1,0,1.9c-2.2,0.9-2.2,5-0.1,6.2c0.6,0.3,0.7,0.6,0.5,1.1
		c-0.7,1.2-1.6,2.3-3,2.6c-1.1,0.2-2-0.2-2.5-1.2c-0.4-1,0.2-1.7,1.2-2.1c0.3-0.1,0.9-0.2,0.8-0.7c-0.2-0.5-0.6-0.3-1.1-0.2
		c-0.8,0.2-1.9,0.5-2.3-0.5C28.1,66.5,28.6,65.4,29.4,64.5z M34.2,106.9c-0.2,0.4-0.6,1.3-1,1.1c-0.6-0.4-0.8-1.3-0.4-2.1
		c0.8-1.4,1.4-2.8,1.7-4.3c1.3-5.5,0.2-10.4-3.6-14.5c-1.9-2.1-4.4-3.3-7.1-4.1c-0.4-0.1-1-0.1-0.8-0.8c0.1-0.7,0.7-0.3,1-0.4
		c5.5,0.8,9.5,3.8,11.4,8.9C37.6,96.3,37.1,101.7,34.2,106.9z M36.9,68.5c-1.5,0-2.7-1.4-2.7-3.1c0-1.3,1.2-2.5,2.4-2.5
		c1.6,0,2.8,1.2,2.8,2.9C39.4,67.3,38.3,68.5,36.9,68.5z M67.2,85.9c0.2-1.7,0.8-3.3,0.8-5c0-0.4,0.2-0.5,0.5-0.6
		c1.8-0.1,3.6,0,4.7,1.8c0.4,0.7,0.9,1.6,1.8,1.4c1.1-0.3,0.5-1.4,0.6-2.1c0.2-1.6,0.9-3,2.2-3.9c0.3-0.2,0.7-0.4,1.1-0.3
		c1.6,0.2,3.9,2.7,4.3,4.3c0.2,0.7-0.1,1.9,1.1,1.9c1.1,0,0.8-1.2,0.9-1.9c0.1-0.6,0.4-1.1,0.8-1.6c0.6-0.7,1.3-1.4,2.2-1.2
		c0.6,0.1,0.2,1.1,0.3,1.7c0.3,1.6,1,3.1,0.9,4.8c0,0,0,0,0,0c0.4,0.8,0.4,1.6,0,2.4c-0.1,0.4-0.1,0.8-0.3,1.1c-0.4,0.7-0.8,1-1.4,0
		c-0.7-1.2-1.2-2.2-0.7-3.6c0.2-0.4,0-0.9,0-1.4c0-0.1-0.2-0.2-0.3-0.4c-0.1,0.1-0.1,0.3-0.2,0.4c-0.1,0.7-0.1,1.4-0.3,2
		c-0.1,0.4-0.3,0.9-0.9,0.9c-0.6,0-0.8-0.3-0.9-0.9c0-0.3-0.2-0.5-0.3-0.8c-0.3,0.2-0.1,0.5-0.2,0.8c-0.2,0.4-0.4,0.7-1,0.6
		c-0.6-0.1-0.5-0.5-0.5-0.9c0,0,0-0.1,0-0.1c0-0.7,0-1.4-0.5-2c-0.6,0.5-0.2,1.2-0.3,1.8c-0.1,0.6-0.1,1.6-0.6,1.5
		c-0.7-0.1-1.3-0.9-1.5-1.7c-0.3-1.3-0.4-2.6-0.6-4c0-0.3,0.1-0.6-0.2-0.9c-0.2,1.4,0.1,2.9-0.3,4.3c-0.1,0.4-0.1,0.9-0.5,0.9
		c-0.4,0-0.4-0.5-0.6-0.9c-0.3-0.4-0.1-1.1-0.6-1.5c-0.1,0.5-0.3,0.9-0.4,1.3c-0.1,0.2,0,0.6-0.4,0.4c-0.6-0.3-1.1-0.8-1.3,0.4
		c-0.1,0.4-0.5-0.3-0.8-0.4c-0.2-0.1-0.4-0.2-0.5-0.3c0,0.2,0,0.4,0,0.6c0,0.3,0.1,0.7,0.2,1c0.1,0.5-0.3,0.8-0.7,0.9
		c-0.6,0.2-0.6-0.4-0.7-0.7c-0.3-0.9-0.6-1.9-0.9-2.8c-0.1-0.4-0.2-0.9-0.8-1.2c0,1.4,0.6,2.7,0.9,4.1c0.1,0.5,0.4,1.4,0.1,1.5
		c-0.6,0.3-0.8-0.6-1.2-1c-0.1-0.2-0.3-0.3-0.6-0.6c0.4,1.5,1.1,2.6,1.4,3.9c0.2,1,0,0.9-0.8,0.6C68.5,90.5,66.9,87.8,67.2,85.9z
		 M86.9,102.9c0.7,0.9,1.1,1.9,0.6,3.1c-0.6,1.4-1.7,2-3.1,2.2c-2.4,0.3-3.4-0.3-4.5-2.6c-0.2-0.4-0.2-0.9-0.7-1
		c-0.6-0.1-0.6,0.5-0.8,0.9c-1,1.7-2.3,2.2-3.8,1.3c-2.3-1.3-2.8-2.9-1.6-4.8c0.2-0.3,0.6-0.7,0.3-1.1c-0.3-0.4-0.8-0.3-1.2-0.3
		c-3,0-4.6-2.7-3.3-5.4c0.7-1.5,2-2,4-1.6c0.5,0.1,1,0.4,1.3,0c0.4-0.5,0.1-1.1-0.2-1.6c-0.7-1.2-1.3-2.3-0.7-3.8
		c0.7-1.7,3.9-2.7,5.3-1.6c1,0.8,0.6,2,0.9,3c0.1,0.4-0.1,1.1,0.5,1.1c0.5,0,0.7-0.5,0.9-0.9c0.7-1.5,1.4-2.6,3.3-2.4
		c1.5,0.2,2.3,1,2.8,2.2c0.5,1.1,0.5,2.1-0.5,2.9c-0.2,0.1-0.3,0.3-0.4,0.5c-0.2,0.4-0.9,0.6-0.5,1.2c0.4,0.5,1,0.3,1.4,0.2
		c2.9-0.6,4.1,0.3,4.1,3.3c0,2.2-1.2,3.3-3.4,3.3c-0.5,0-1.2-0.3-1.5,0.3C85.9,102.1,86.6,102.5,86.9,102.9z M50.4,87.1
		c0.5-0.7,1.1-1.4,1.6-2.2c1.2-2.2,3-3.2,5.5-3c0.4,0,1.1,0.4,1.2-0.3c0-0.5-0.4-1-1-1.2c-1.8-0.8-3.5-0.3-5.3,0.2
		c-1.3,0.4-2.7,0.7-4.1,0.6c-0.3,0-0.6,0-0.6-0.3c0-0.1,0.3-0.3,0.5-0.4c0.9-0.4,1.6-1,2.3-1.6c1.3-1.3,2.8-1.3,4.4-0.5
		c0.4,0.2,0.9,0.5,1.1,0.2c0.2-0.3-0.4-0.6-0.6-0.9c-1.1-1.2-2.6-1.8-3.8-2.9c-1.5-1.2-2.5-2.7-2.8-4.7c-0.1-0.7,0-1.1,1-0.8
		c2.7,0.7,4.3,2.3,5,5c0.1,0.2,0.1,0.4,0.2,0.6c0.2,0.8,0.5,1.8,1.2,1.8c0.4,0,0.1-1.2,0.2-1.8c0.2-1.7,0.6-3.3,1.3-4.8
		c0.2-0.4,0.3-0.8,0.5-1.2c0.2-0.4-0.2-1.2,0.4-1.1c0.6,0.1,1.1,0.7,1.2,1.5c0.2,1.5-0.2,2.8-0.8,4.1c-0.7,1.4-0.7,2.8-0.1,4.5
		c0.9-3.2,3.5-4.5,5.8-6.2c0.2-0.1,0.5-0.2,0.7-0.3c0,0.2,0.1,0.5,0.1,0.7c0.1,1.1-0.2,2-1.3,2.6c-1.1,0.6-1.9,1.5-2.7,2.6
		c-1.9,2.6-1,4.9,0.5,7.2c1.3,1.9,2.8,3.5,4.7,4.7c0.2,0.1,0.6,0.1,0.5,0.5c-0.1,0.3-0.5,0.2-0.7,0.2c-1.7-0.2-2.8-1.4-3.8-2.5
		c-1.1-1.1-2-2.5-2.8-3.8c-0.5-0.7-0.8-0.7-1.4-0.3c-1.3,0.8-2.4,1.8-3.6,2.8c-1.1,1-2.3,1.8-3.7,2.3c-0.5,0.2-1.1,0.1-1.4-0.3
		C49.5,87.6,50.2,87.4,50.4,87.1z M69.5,110c-2.1,2.8-4.4,5.5-7.5,7.2c-0.8,0.5-0.8,1.3-0.5,2.1c0.4,1,1.1,1.9,2.1,2.3
		c1.5,0.6,2,1.8,2.3,3.2c0.1,0.4,0.1,1.1-0.7,0.7c-1.2-0.5-2.4-1.1-3.5-1.6c-1.3-0.7-2.1-1.7-2-3.2c0-0.4,0.1-1-0.4-1.1
		c-0.4-0.1-0.6,0.4-0.9,0.7c-1.1,1.5-0.8,3.6,0.6,5.3c0.4,0.4,0.8,0.8,1.2,1.2c0.3,0.3,0.9,0.5,0.6,1c-0.2,0.3-0.9,0.3-1.1,0.4
		c-2-0.1-3.9-2.5-3.5-4.3c0.1-0.5,0.3-0.9,0.4-1.4c0.1-0.6,0.8-1.3,0.3-1.7c-0.3-0.2-1,0.7-1.3,1.2c-0.9,1.6-1.4,3.3-1.9,5
		c-0.3,1-0.7,2-1.6,2.8c-0.4,0.4-0.9,0.5-1.3,0.3c-0.5-0.3,0-0.7,0.1-1c0.7-1.6,0.6-3.3,0.9-4.9c0.4-1.8,1.2-3.1,2.8-4
		c0.2-0.1,0.3-0.2,0.5-0.4c-0.2-0.1-0.4-0.3-0.6-0.3c-0.8-0.1-1.5,0-2.3-0.3c-1-0.4-1.5-1.2-1.6-2.2c-0.1-1.3,0-2.5,0.9-3.5
		c0.3-0.4,0.4-0.1,0.4,0.2c0,0.6,0.3,1.2,0.5,1.7c1,2.6,4.5,3.4,6.4,1.4c0.6-0.6-0.1-0.9-0.5-0.9c-0.9-0.2-1.8-0.2-2.5-1.1
		c-0.9-1.3-0.9-2.8-1.3-4.2c-0.1-0.4,0.7-0.3,1-0.1c0.8,0.5,1.5,1.1,2.2,1.9c0.6,0.8,1.3,1.5,1.8,2.4c0.6,1.2,1.4,1.2,2.4,0.5
		c2.4-1.7,4.6-3.7,6.6-5.8c0.6-0.6,1.1-1.5,2-1C70.8,108.6,69.9,109.5,69.5,110z M90.3,115.8c-1.9,0.3-3.4-0.5-4.3-2.1
		c-0.2-0.3-0.4-0.6-0.7-0.9c-0.2-0.2-0.4-0.4-0.7-0.2c-0.3,0.2-0.5,0.5-0.3,0.8c1.5,2.7-1,3.7-2.2,5.3c-1.2,1.6-2.3,1.2-3.7,0.1
		c-1.8-1.4-3.3-2.7-2.7-5.2c0.1-0.4-0.1-0.9-0.5-0.9c-0.4-0.1-0.8,0.3-0.8,0.7c-0.1,1.4-1.2,1.9-2.3,2.3c-1.7,0.6-2.3,0.3-2.5-1.5
		c-0.1-2-0.1-3.9,1.4-5.5c0.4-0.5,0.6-1,0.1-1.5c-0.6-0.6-1-0.1-1.3,0.3c-1.8,2-4,2-6.3,1.3c-0.8-0.2-1.6-0.6-2.4-0.6
		c-1.1,0-1-0.5-0.7-1.1c0.7-1.4,1.8-2.2,3.3-2.3c0.5,0,1.3,0.2,1.3-0.7c-0.1-0.7-0.8-0.6-1.4-0.7c-2,0-4.1,0.6-6.1-0.2
		c-2.4-0.9-4.8-1.7-7.2-2.6c-0.2-0.1-0.4-0.2-0.5-0.4c-0.1-0.2,0.1-0.2,0.2-0.2c2.9-0.2,5.3-1.7,7.9-2.8c1.6-0.6,3.1-0.8,4.6-0.1
		c0.4,0.2,0.8,0.3,1.1,0c0.2-0.2,0.4-0.5,0.3-0.8c-0.2-0.4-0.6-0.7-1.1-0.6c-1.8,0.3-2.6-1.3-3.9-2.1c-0.2-0.1-0.3-0.4,0-0.5
		c2.4-0.6,4.5-2.4,7.2-2.2c1.2,0.1,2.2,0.6,3,1.5c0.3,0.3,0.2,0.3-0.1,0.6c-1.8,1.5-3.9,0.8-5.8,0.7c-0.2,0-0.4,0-1,0
		c1.1,0.7,2.1,0.9,3,1.1c0.6,0.1,1.4,0,1.5,1c0.1,0.9-0.3,1.3-1.1,1.4c-0.1,0-0.2,0.2-0.3,0.3c0.2,0.1,0.4,0.1,0.5,0.2
		c0.4,0.3,1.3,0.1,1.3,0.7c-0.1,0.7-0.9,0.6-1.4,0.6c-1.9,0.3-3.8,0.5-5.7,0.6c-1.6,0.1-3.2,0.2-4.8,0.3c-0.2,0-0.5-0.1-0.5,0.2
		c0,0.3,0.3,0.3,0.5,0.3c2.3,0,4.5,0.1,6.8-0.1c1.7-0.2,3.4-0.3,5.1-0.1c1.2,0.1,2.1,1.1,3.4,1.4c0.5,0.1-0.1,0.3-0.2,0.3
		c-1,0.4-2,0.7-2.9,1.3c0.8,0,1.5,0,2.3,0c0.2,0,0.6-0.2,0.7,0.2c0,0.2-0.2,0.5-0.4,0.6c-1.3,0.7-2.6,1.3-3.9,1.9
		c-0.2,0.1-0.6,0.1-0.5,0.4c0.1,0.3,0.4,0.2,0.7,0.2c1.1-0.3,2.1-0.6,3.2-0.9c2.1-0.5,4,1.5,3.4,3.6c-0.4,1.1-0.8,2.3-1.3,3.4
		c-0.1,0.2-0.2,0.4,0.1,0.5c0.2,0.1,0.3-0.2,0.3-0.3c0.6-1.2,1.3-2.4,1.9-3.7c0.3-0.7,0.8-1,1.5-0.9c0.9,0.1,0.4,0.8,0.5,1.2
		c0.1,0.6,0,1.3,0,2.1c0.8-1.3,0.9-2.7,1.8-3.7c0.2-0.3,0.5-0.7,0.9-0.6c0.4,0.1,0.5,0.6,0.6,0.9c0.5,2,0.7,4,0.6,6
		c0,0.7,0,1.3,0.4,2c0.6-2.1,0.2-4.3,0.4-6.4c0.1-1.4,0.5-1.7,1.7-0.9c0.3,0.2,0.5,0.5,0.7,0.8c0.4,0.5,0.5,1.5,1.1,1.5
		c0.5,0,0.1-1,0.3-1.4c0.2-0.4,0.3-0.7,0.8-0.7c0.4,0,0.8,0,1.1,0.5c0.6,1.1,0.9,2.4,1.7,3.3c0.1,0.2,0.2,0.5,0.5,0.4
		c0.1,0,0-0.4-0.1-0.6c-0.5-0.6-0.7-1.4-1-2.1c-0.3-0.9-0.8-2,0.4-2.8c0.2-0.2,0.3-0.5,0.5-0.8c0.2-0.5,0.2-1.3,0.6-1.3
		c0.6,0.1,1.2,0.6,1.3,1.4c0,0,0,0,0,0c0.5,1.6,0.1,3.2,0.2,4.7c0,0.9,0.2,1.7,0.6,2.5C91.4,115.4,91.1,115.7,90.3,115.8z
		 M108.4,99.1c-2.4,1.1-4.8,2.3-7.5,2.8c-0.8,0.2-1.7,0.1-2.4-0.3c-0.6-0.3-1.2-0.3-1.7,0.1c-0.1,0.1-0.2,0.5-0.1,0.7
		c0.2,0.7,1,0.8,1.5,0.8c1.2,0,2.1,0.4,2.9,1.2c0.9,0.9,0.8,1.7-0.4,2.2c-1.8,0.8-3.7,1-5.7,0.4c-1.5-0.5-2.9-1-4.4-1.5
		c-0.2-0.1-0.4-0.2-0.6-0.3c-0.9-0.4-1.3-1.3-1.2-2.1c0-0.4,1.2-0.5,1.9-0.4c2.1,0.3,4.2,0.8,6.6,1.6c-1.2-1.4-2.7-1.4-3.8-1.9
		c-0.3-0.1-0.7-0.1-1-0.3c-0.6-0.3-1.8-0.1-1.6-0.7c0.2-0.6,1.5-0.7,2.2-0.5c0.9,0.2,1.8,0,2.7,0.4c-0.5-0.7-1.4-0.7-2-1
		c-0.2-0.1-0.4-0.1-0.6-0.2c0.2-0.1,0.3-0.3,0.5-0.3c0.8-0.1,1.6-0.2,2.4-0.3c2.6-0.1,5.2-0.2,7.8-0.3c-0.6-0.5-1.4-0.1-2.1-0.3
		c-0.4-0.1-0.9,0.2-1.3-0.2c-2.5-0.1-4.9,0.2-7.4-0.3c-0.3,0-0.8,0.2-0.7-0.3c0.1-0.4-0.3-1,0.5-1.3c0.6-0.2,1.3,0,1.7-0.7
		c-0.6-0.3-1.2-0.4-1.9-0.3c-0.3,0-0.6,0-0.7-0.3c0-0.5,0.4-0.8,0.8-0.9c0.5-0.2,1-0.3,1.4-0.5c0.5-0.1,1-0.3,1.5-0.3
		c0.4-0.1,0.7-0.1,1.1-0.1c-0.4-0.4-0.9-0.1-1.3-0.3c-1.3,0.1-2.7-0.1-4,0.3c-1.3,0.3-2-0.9-3-1.3c-0.5-0.2,0.3-0.5,0.5-0.7
		c3.5-1.7,7.1-2.3,10.9-1c0.1,0,0.2,0.1,0.2,0.1c0.7,0.3,2.1,0.2,2,0.9c-0.1,1.2-0.9,2.4-2.2,2.7c-0.9,0.3-1.9,0.3-2.8,0.5
		c-0.4,0.1-1,0.2-0.8,0.8c0.1,0.5,0.5,0.8,1.1,0.8c0.1,0,0.2,0,0.3,0c4-2.2,7.1,1,10.7,1.8C109,98.7,108.8,98.9,108.4,99.1z"/>
	<g class="st7">
		<path class="st8" d="M139.1,125.5c-0.3,0.3-0.9,0.6-0.3,1.2c0.5,0.5,0.8,0.6,1.4,0.1c1.6-1.2,3.4-2.2,5.3-2.9
			c2.1-0.8,4-1.9,6.3-2.1c0.5-0.9,1-1.7,1.5-2.6c-2.4,0.3-4.6,1-6.8,1.8C143.8,122.2,141.2,123.5,139.1,125.5z"/>
	</g>
	<g class="st9">
		<path class="st10" d="M140.5,130.8c0.4-0.2,0.8-0.4,1.3-0.6C141.2,129.9,140.8,130.1,140.5,130.8z"/>
		<path class="st8" d="M8.9,103.6c0,0.1,0.1,0.2,0.3,0.3c0.5,0.2,1,0.3,1.5,0.5c-0.2-0.4-0.5-0.7-0.7-1.1
			C9.7,103.5,9.1,102.8,8.9,103.6z"/>
	</g>
	<path class="st3" d="M219.4,39.6c0.8-0.1,1.4,0.1,2,0.6c0.9,0.7,0.9,1.8-0.1,2.4c-1,0.7-2.8,0.7-3.8,0.1c-1-0.7-1-1.9,0-2.5
		C218.1,39.7,218.8,39.5,219.4,39.6z"/>
</g>
<path class="st5" d="M175.7,94.1c-1.7,0-3.5-0.1-5.2-0.1c-3.1,3.2-6.6,5.6-11.4,5c3.8-0.8,7.5-2,10.2-5v0c-1.1,0-2.1,0-3.2,0
	c0,0.7-0.5,1-1,1.3c-3.2,2-6.6,2.4-10.3,2c-0.3,0-0.6-0.2-0.8,0c0,0.1,0.2,0.4,0.4,0.6c2.1,2.2,4.8,3,7.7,3.1c3,0,5.5-1.4,7.5-3.8
	c0.6-0.7,1.1-1.3,1.7-1.9c0.6,0.6,0.6,1.5,1,2.3c1.1,1.8,2.9,2.8,4.4,2.2c0.7-0.3,0.9-0.5,0.3-1.3C175.9,97.2,175.1,95.8,175.7,94.1
	z"/>
<path class="st5" d="M181.7,99.3c-1.6,0.4-2.8,1.3-3.3,2.9c1.3,0,1.9,0,2.8,0c0-0.9,0.5-1.6,0.8-2.4c0.1-0.2,0.4-0.3,0.1-0.5
	C182.1,99.2,181.8,99.3,181.7,99.3z"/>
<path class="st5" d="M183,94.2c-1.4,0-2.8,0-4.2,0C180.4,96,181.5,96,183,94.2z"/>
<path class="st5" d="M174.4,100.8c-0.7,0-1.3,0.4-1.5,1.1c-0.1,0.2-0.1,0.3-0.2,0.5c0.9,0,1.7-0.1,2.6-0.1
	C175,101.7,175.2,100.8,174.4,100.8z"/>
<path class="st5" d="M51.3,88.4c1.4-0.4,2.6-1.3,3.7-2.3c1.1-1,2.2-2,3.6-2.8c0.6-0.3,1-0.4,1.4,0.3c0.8,1.3,1.7,2.7,2.8,3.8
	c1,1.1,2.1,2.3,3.8,2.5c0.2,0,0.6,0.1,0.7-0.2c0.1-0.4-0.3-0.4-0.5-0.5c-1.9-1.2-3.5-2.8-4.7-4.7c-1.5-2.3-2.4-4.7-0.5-7.2
	c0.7-1,1.6-2,2.7-2.6c1.1-0.6,1.4-1.5,1.3-2.6c0-0.2-0.1-0.5-0.1-0.7c-0.2,0.1-0.5,0.1-0.7,0.3c-2.3,1.6-4.9,2.9-5.8,6.2
	c-0.6-1.7-0.6-3.1,0.1-4.5c0.6-1.3,1-2.7,0.8-4.1c-0.1-0.8-0.6-1.4-1.2-1.5c-0.6-0.1-0.2,0.7-0.4,1.1c-0.2,0.4-0.3,0.8-0.5,1.2
	c-0.7,1.5-1.1,3.2-1.3,4.8c-0.1,0.7,0.2,1.8-0.2,1.8c-0.7,0-1-1-1.2-1.8c-0.1-0.2-0.1-0.4-0.2-0.6c-0.7-2.6-2.3-4.3-5-5
	c-1-0.3-1,0.1-1,0.8c0.2,2,1.3,3.5,2.8,4.7c1.2,1,2.7,1.7,3.8,2.9c0.3,0.3,0.8,0.6,0.6,0.9c-0.2,0.3-0.8,0-1.1-0.2
	c-1.6-0.9-3.1-0.8-4.4,0.5c-0.7,0.7-1.5,1.2-2.3,1.6c-0.2,0.1-0.5,0.3-0.5,0.4c0,0.3,0.3,0.3,0.6,0.3c1.4,0.1,2.7-0.2,4.1-0.6
	c1.7-0.5,3.5-1,5.3-0.2c0.6,0.3,1,0.7,1,1.2c-0.1,0.7-0.8,0.3-1.2,0.3c-2.5-0.3-4.3,0.8-5.5,3c-0.4,0.8-1.1,1.5-1.6,2.2
	c-0.2,0.3-0.9,0.5-0.6,1C50.1,88.5,50.7,88.5,51.3,88.4z"/>
<path class="st5" d="M70.5,108.4c-0.9-0.5-1.4,0.4-2,1c-2.1,2.1-4.2,4.1-6.6,5.8c-1,0.7-1.7,0.7-2.4-0.5c-0.5-0.9-1.1-1.6-1.8-2.4
	c-0.6-0.7-1.3-1.4-2.2-1.9c-0.3-0.2-1.1-0.3-1,0.1c0.4,1.4,0.4,2.9,1.3,4.2c0.6,0.9,1.6,0.9,2.5,1.1c0.4,0.1,1.1,0.3,0.5,0.9
	c-1.9,2-5.4,1.2-6.4-1.4c-0.2-0.6-0.5-1.1-0.5-1.7c0-0.3-0.1-0.6-0.4-0.2c-0.8,1-1,2.3-0.9,3.5c0.1,1,0.5,1.8,1.6,2.2
	c0.8,0.3,1.5,0.2,2.3,0.3c0.2,0,0.4,0.2,0.6,0.3c-0.2,0.1-0.3,0.3-0.5,0.4c-1.6,0.9-2.4,2.2-2.8,4c-0.4,1.6-0.2,3.3-0.9,4.9
	c-0.1,0.3-0.6,0.7-0.1,1c0.4,0.2,0.9,0.1,1.3-0.3c0.9-0.8,1.2-1.8,1.6-2.8c0.5-1.7,1-3.5,1.9-5c0.3-0.5,1.1-1.4,1.3-1.2
	c0.6,0.4-0.1,1.1-0.3,1.7c-0.1,0.5-0.3,0.9-0.4,1.4c-0.5,1.8,1.4,4.2,3.5,4.3c0.3-0.1,0.9-0.1,1.1-0.4c0.3-0.4-0.4-0.7-0.6-1
	c-0.4-0.4-0.8-0.8-1.2-1.2c-1.5-1.7-1.7-3.8-0.6-5.3c0.2-0.3,0.4-0.8,0.9-0.7c0.6,0.1,0.5,0.7,0.4,1.1c-0.1,1.5,0.7,2.5,2,3.2
	c1.2,0.6,2.3,1.1,3.5,1.6c0.8,0.4,0.8-0.3,0.7-0.7c-0.3-1.4-0.8-2.6-2.3-3.2c-1.1-0.4-1.7-1.3-2.1-2.3c-0.3-0.8-0.4-1.6,0.5-2.1
	c3.1-1.8,5.4-4.4,7.5-7.2C69.9,109.5,70.8,108.6,70.5,108.4z"/>
<path class="st5" d="M227.2,87.6c-1.8,0.5-3.5,1.3-5.4,0.8c2.1,0.3,1.8,2,1.8,3.4c0,0.3,0,0.5,0,0.8c0.5-0.5,1.2-0.1,1.8-0.5
	c0-0.1,0-0.3,0-0.4c0.1-1.3-0.5-2.8,1.6-3.2c0.5-0.1,0.7-0.8,0.8-1.4C227.6,87.4,227.4,87.6,227.2,87.6z"/>
<path class="st5" d="M110,115.8c-1.5-0.1-2.9,0.5-4.3,0.9c-1.7,0.5-3.4,0.8-4.9-0.3c-0.3-0.2-0.8-0.5-0.7-1c0-0.1,0.6,0,0.9-0.2
	c0.5-0.2,1-0.2,1.5-0.2c1.6,0,2.8-0.6,3.7-2c0.8-1.2,1.6-2.5,2.6-3.5c0.4-0.4,0.4-0.6-0.2-0.8c-1-0.4-1.9,0-2.6,0.5
	c-1.8,1.4-3.6,2.8-5.4,4.3c-0.8,0.6-1.4,0.5-2-0.4c-1.2-2-2.6-3.8-4.5-5.1c-1.1-0.8-1.5-0.9-2.8-0.6c1.9,0.9,3.2,2.4,4.5,3.9
	c1.1,1.4,2.2,2.9,2.3,4.8c0.2,2.6-1.4,4.2-3.1,5.8c1.2,0,2.4-0.1,3.6-0.1c-0.1-0.3,0.1-0.6,0.3-0.8c0.4-0.5,0.4-1.6,0.8-1.4
	c0.6,0.2,0.5,1.2,0.5,1.9c0,0.1,0,0.3,0,0.4c0.6,0.2,1.2,0.4,1.8,0.5c0-0.1,0-0.2,0-0.3c0.1-0.6-0.3-1.7,0.3-1.8
	c0.8-0.1,1,1,1.3,1.7c0.2,0.5,0.5,1.1,0.5,1.7c0.3,0.6,1,1,0.8,1.8c1.1,1,2.4,1.8,3.9,2.2c1.1,0.3,1.1-0.2,1-1
	c-0.4-2-1.5-3.4-3.1-4.6c-1.3-1-2.7-1.7-3.8-2.9c-0.2-0.2-0.5-0.4-0.3-0.6c0.1-0.2,0.5-0.1,0.7,0c0.3,0.1,0.6,0.2,0.8,0.3
	c1.4,0.6,2.7,0.6,3.9-0.6c0.6-0.6,1.4-1,2.1-1.6c0.2-0.2,0.7-0.2,0.6-0.6C110.8,115.8,110.3,115.9,110,115.8z"/>
<path class="st5" d="M111.6,71c-0.1-0.1-0.4,0-0.6,0.1c-0.9,0.5-2,0.6-3,0.7c-1.2,0.1-2.4,0.1-3.5,0.7c-0.5,1-1.4,1.4-2.4,1.8
	c-0.1,0.2-0.1,0.3-0.2,0.5c-0.2,0.3-0.2,0.9-0.7,0.9c-0.1,0-0.1-0.7-0.1-1.1c-0.5,0.1-1.1,0.2-1.6,0.3c0.2,1.3-0.2,2.6-0.8,3.7
	c-0.1,0.3-0.3,0.6-0.6,0.6c-0.4,0-0.5-0.4-0.5-0.6c-0.1-2-1.4-2.9-3.2-3.4c0,0,0,0,0,0c-0.8,0-1.6-0.1-2.4-0.1
	c-0.1,0.4,0.1,0.7,0.3,1.1c1,1.5,2.5,2.5,3.9,3.5c1.2,0.9,1.3,1.4,0.4,2.6c-1.7,2.3-3.7,4.4-5.8,6.4c-0.4,0.4-0.8,0.8-0.9,1.4
	c0,0.2,0.1,0.4,0.1,0.6c0.2-0.1,0.3-0.1,0.5-0.2c3-2.4,6.1-4.6,8.1-8.1c0.6-1,2-1.2,3-0.4c0.7,0.5,1.3,1.1,1.6,1.9
	c0.5,1.3,1.6,1.7,2.8,2.1c0.4,0.1,1,0.2,1.2-0.1c0.3-0.3-0.2-0.7-0.4-1.1c-0.2-0.4-0.5-0.8-0.7-1.3c-0.8-2-1.5-3.8-4.2-3.6
	c-0.2,0-0.6-0.2-0.8-0.4c-0.2-0.3,0.2-0.5,0.4-0.7c0.9-1,2-1.1,3.2-0.8c1.6,0.4,2.6,1.6,3.7,2.7c0.2,0.2,0.4,0.4,0.6,0.4
	c0.3-0.1,0.3-0.4,0.3-0.8c0.3-2.7-2-4.6-4.7-3.8c-0.6,0.2-1.2,0.4-1.8,0.7c-0.3,0.1-0.6,0.2-0.7,0c-0.1-0.1,0.1-0.5,0.3-0.7
	c0.6-0.6,1.3-1,2-1.3c1.9-0.8,4-1.2,5.9-2.2c0.6-0.3,1-0.8,1.2-1.4C111.8,71.5,111.9,71.2,111.6,71z"/>
<path class="st5" d="M216.7,89.5L216.7,89.5c0,1.4,0,2.8-0.1,4.2h-6.5c-0.9,0.1-1.4,0.5-1.8,0.9c-1.1,0.2-2.2,0.4-3.4,0.3
	c-1.6-0.1-3.2-0.1-4.8-0.2c1.3,2.3,1.3,2.3,4,1.8c0.5-0.1,1-0.2,1.5-0.3c0.7-0.2,1.4-0.3,2.1-0.5c0,0,0,0,0,0
	c3.2-0.7,7.7-1.5,10.4-2.1h-0.6c0.3-0.1,0.6-0.1,1,0c0.1-1.5,0.2-3,0.2-4.5C218.2,89.7,217.5,89.9,216.7,89.5z"/>
<path class="st5" d="M97.2,95.2c0.9-0.2,1.9-0.3,2.8-0.5c1.3-0.4,2.1-1.6,2.2-2.7c0.1-0.7-1.3-0.6-2-0.9c-0.1,0-0.2-0.1-0.2-0.1
	c-3.8-1.3-7.4-0.6-10.9,1c-0.3,0.1-1,0.5-0.5,0.7c1,0.4,1.7,1.6,3,1.3c1.3-0.3,2.7-0.2,4-0.3c0.4,0.2,1-0.2,1.3,0.3
	c-1.4,0.1-2.7,0.4-4,0.9c-0.4,0.1-0.8,0.4-0.8,0.9c0,0.2,0.4,0.3,0.7,0.3c0.7-0.1,1.3,0.1,1.9,0.3C94.3,97,93.5,96.8,93,97
	c-0.8,0.3-0.5,0.9-0.5,1.3c-0.1,0.6,0.5,0.3,0.7,0.3c2.4,0.5,4.9,0.2,7.4,0.3c0.4,0.4,0.9,0.2,1.3,0.2c0.7,0.1,1.4-0.3,2.1,0.3
	c-2.6,0.1-5.2,0.2-7.8,0.3c-0.8,0-1.6,0.1-2.4,0.3c-0.2,0-0.4,0.2-0.5,0.3c0.2,0.1,0.4,0.1,0.6,0.2c0.7,0.3,1.5,0.3,2,1
	c-0.8-0.4-1.8-0.2-2.7-0.4c-0.7-0.2-2-0.1-2.2,0.5c-0.2,0.6,1.1,0.4,1.6,0.7c0.3,0.2,0.7,0.1,1,0.3c1.2,0.6,2.6,0.5,3.8,1.9
	c-2.4-0.8-4.5-1.3-6.6-1.6c-0.7-0.1-1.9,0-1.9,0.4c-0.1,0.8,0.3,1.7,1.2,2.1c0.2,0.1,0.4,0.2,0.6,0.3c1.5,0.5,2.9,1.1,4.4,1.5
	c1.9,0.6,3.8,0.4,5.7-0.4c1.2-0.5,1.3-1.3,0.4-2.2c-0.8-0.8-1.7-1.2-2.9-1.2c-0.6,0-1.3-0.1-1.5-0.8c-0.1-0.2,0-0.6,0.1-0.7
	c0.5-0.4,1.1-0.4,1.7-0.1c0.8,0.4,1.6,0.4,2.4,0.3c2.6-0.5,5-1.8,7.5-2.8c0.4-0.2,0.7-0.4,0-0.6c-3.5-0.8-6.7-3.9-10.7-1.8
	c-0.1,0-0.2,0-0.3,0c-0.6,0-0.9-0.3-1.1-0.8C96.3,95.4,96.8,95.3,97.2,95.2z"/>
<path class="st5" d="M70.1,91.1c0.7,0.3,1,0.4,0.8-0.6c-0.3-1.3-1-2.4-1.4-3.9c0.3,0.3,0.5,0.4,0.6,0.6c0.3,0.4,0.5,1.2,1.2,1
	c0.3-0.1,0-1-0.1-1.5c-0.3-1.3-0.8-2.6-0.9-4.1c0.6,0.2,0.7,0.7,0.8,1.2c0.3,0.9,0.5,1.9,0.9,2.8c0.1,0.3,0.1,0.9,0.7,0.7
	c0.5-0.1,0.8-0.4,0.7-0.9c0-0.3-0.1-0.7-0.2-1c0-0.2,0-0.4,0-0.6c0.2,0.1,0.4,0.2,0.5,0.3c0.3,0.2,0.8,0.8,0.8,0.4
	c0.2-1.2,0.7-0.7,1.3-0.4c0.4,0.2,0.4-0.2,0.4-0.4c0.1-0.4,0.2-0.9,0.4-1.3c0.5,0.4,0.3,1,0.6,1.5c0.2,0.3,0.2,0.9,0.6,0.9
	c0.4,0,0.4-0.6,0.5-0.9c0.4-1.4,0.1-2.8,0.3-4.3c0.3,0.3,0.2,0.6,0.2,0.9c0.2,1.3,0.3,2.7,0.6,4c0.2,0.8,0.8,1.6,1.5,1.7
	c0.5,0.1,0.5-0.9,0.6-1.5c0.1-0.6-0.3-1.3,0.3-1.8c0.4,0.6,0.5,1.3,0.5,2c0,0,0,0.1,0,0.1c0,0.4-0.1,0.8,0.5,0.9
	c0.5,0.1,0.8-0.2,1-0.6c0.1-0.2-0.1-0.6,0.2-0.8c0.1,0.3,0.3,0.5,0.3,0.8c0.1,0.6,0.3,0.9,0.9,0.9c0.6,0,0.8-0.5,0.9-0.9
	c0.2-0.6,0.2-1.4,0.3-2c0-0.1,0.1-0.3,0.2-0.4c0.1,0.1,0.3,0.2,0.3,0.4c0,0.5,0.2,1,0,1.4c-0.5,1.4,0,2.5,0.7,3.6c0.6,1,1,0.7,1.4,0
	c0.2-0.3,0.2-0.7,0.3-1.1c0.4-0.8,0.4-1.6,0-2.4c0,0,0,0,0,0c0-1.7-0.6-3.2-0.9-4.8c-0.1-0.6,0.2-1.6-0.3-1.7
	c-0.9-0.2-1.6,0.6-2.2,1.2c-0.4,0.5-0.6,1-0.8,1.6c-0.2,0.7,0.1,1.8-0.9,1.9c-1.2,0-0.9-1.2-1.1-1.9c-0.4-1.6-2.7-4.1-4.3-4.3
	c-0.4-0.1-0.8,0.1-1.1,0.3c-1.3,1-2.1,2.3-2.2,3.9c-0.1,0.7,0.5,1.9-0.6,2.1c-0.9,0.2-1.4-0.8-1.8-1.4c-1.1-1.8-2.8-1.9-4.7-1.8
	c-0.4,0-0.6,0.2-0.5,0.6c0.1,1.7-0.5,3.3-0.8,5C66.9,87.8,68.5,90.5,70.1,91.1z"/>
<path class="st5" d="M90.3,112.2c0-1.6,0.3-3.2-0.2-4.7c0,0,0,0,0,0c-0.1-0.8-0.7-1.3-1.3-1.4c-0.4,0-0.4,0.8-0.6,1.3
	c-0.1,0.3-0.2,0.6-0.5,0.8c-1.2,0.8-0.7,1.8-0.4,2.8c0.2,0.7,0.4,1.5,1,2.1c0.1,0.1,0.1,0.5,0.1,0.6c-0.3,0.2-0.4-0.2-0.5-0.4
	c-0.8-1-1-2.3-1.7-3.3c-0.3-0.5-0.6-0.5-1.1-0.5c-0.5,0-0.6,0.3-0.8,0.7c-0.2,0.5,0.2,1.4-0.3,1.4c-0.6,0-0.7-1-1.1-1.5
	c-0.2-0.3-0.4-0.6-0.7-0.8c-1.2-0.7-1.6-0.4-1.7,0.9c-0.1,2.1,0.2,4.3-0.4,6.4c-0.4-0.6-0.4-1.3-0.4-2c0.1-2-0.1-4.1-0.6-6
	c-0.1-0.4-0.2-0.8-0.6-0.9c-0.4-0.1-0.7,0.4-0.9,0.6c-0.9,1-1,2.4-1.8,3.7c0-0.9,0.1-1.5,0-2.1c0-0.4,0.4-1.1-0.5-1.2
	c-0.7-0.1-1.2,0.2-1.5,0.9c-0.6,1.3-1.2,2.5-1.9,3.7c-0.1,0.2-0.1,0.4-0.3,0.3c-0.3-0.1-0.2-0.3-0.1-0.5c0.4-1.1,0.9-2.2,1.3-3.4
	c0.7-2.1-1.2-4.1-3.4-3.6c-1.1,0.3-2.2,0.6-3.2,0.9c-0.3,0.1-0.6,0.1-0.7-0.2c-0.1-0.4,0.3-0.4,0.5-0.4c1.3-0.7,2.6-1.3,3.9-1.9
	c0.2-0.1,0.5-0.4,0.4-0.6c-0.1-0.3-0.4-0.2-0.7-0.2c-0.8,0-1.5,0-2.3,0c0.9-0.6,1.9-0.9,2.9-1.3c0.2-0.1,0.7-0.2,0.2-0.3
	c-1.2-0.3-2.2-1.3-3.4-1.4c-1.7-0.2-3.4-0.1-5.1,0.1c-2.2,0.2-4.5,0.1-6.8,0.1c-0.2,0-0.5-0.1-0.5-0.3c0-0.3,0.3-0.2,0.5-0.2
	c1.6-0.1,3.2-0.2,4.8-0.3c1.9-0.2,3.8-0.3,5.7-0.6c0.5-0.1,1.4,0,1.4-0.6c0.1-0.7-0.9-0.4-1.3-0.7c-0.1-0.1-0.3-0.1-0.5-0.2
	c0.1-0.1,0.2-0.3,0.3-0.3c0.8-0.1,1.2-0.5,1.1-1.4c-0.1-1-0.9-0.8-1.5-1c-1-0.2-1.9-0.4-3-1.1c0.6,0,0.8,0,1,0c2,0.1,4,0.8,5.8-0.7
	c0.4-0.3,0.4-0.3,0.1-0.6c-0.8-0.9-1.8-1.4-3-1.5c-2.7-0.2-4.8,1.5-7.2,2.2c-0.3,0.1-0.2,0.4,0,0.5c1.3,0.7,2,2.3,3.9,2.1
	c0.5-0.1,0.8,0.2,1.1,0.6c0.2,0.3-0.1,0.6-0.3,0.8c-0.3,0.3-0.7,0.2-1.1,0c-1.5-0.8-3-0.6-4.6,0.1c-2.6,1-5,2.5-7.9,2.8
	c-0.1,0-0.3,0-0.2,0.2c0.1,0.2,0.3,0.3,0.5,0.4c2.4,0.9,4.8,1.6,7.2,2.6c2,0.8,4.1,0.2,6.1,0.2c0.6,0,1.3,0,1.4,0.7
	c0.1,0.9-0.7,0.6-1.3,0.7c-1.6,0.1-2.7,0.9-3.3,2.3c-0.3,0.7-0.3,1.1,0.7,1.1c0.8,0,1.6,0.3,2.4,0.6c2.3,0.7,4.5,0.7,6.3-1.3
	c0.3-0.3,0.7-0.9,1.3-0.3c0.5,0.5,0.3,1-0.1,1.5c-1.5,1.6-1.5,3.5-1.4,5.5c0.1,1.8,0.7,2.2,2.5,1.5c1.1-0.4,2.2-0.9,2.3-2.3
	c0-0.4,0.4-0.8,0.8-0.7c0.4,0.1,0.6,0.5,0.5,0.9c-0.6,2.5,0.9,3.9,2.7,5.2c1.4,1,2.4,1.5,3.7-0.1c1.2-1.6,3.7-2.6,2.2-5.3
	c-0.2-0.3,0-0.6,0.3-0.8c0.3-0.2,0.5,0,0.7,0.2c0.2,0.3,0.5,0.6,0.7,0.9c0.9,1.6,2.4,2.4,4.3,2.1c0.7-0.1,1-0.4,0.6-1.1
	C90.6,113.9,90.3,113.1,90.3,112.2z"/>
<path class="st5" d="M87.8,101.2c2.2,0,3.4-1.2,3.4-3.3c0-3-1.2-3.9-4.1-3.3c-0.5,0.1-1,0.3-1.4-0.2c-0.4-0.6,0.3-0.8,0.5-1.2
	c0.1-0.2,0.2-0.4,0.4-0.5c1-0.8,1-1.9,0.5-2.9c-0.5-1.2-1.3-2-2.8-2.2c-1.9-0.2-2.7,1-3.3,2.4c-0.2,0.4-0.4,1-0.9,0.9
	c-0.7-0.1-0.4-0.7-0.5-1.1c-0.3-1,0.1-2.2-0.9-3c-1.4-1.1-4.6-0.1-5.3,1.6c-0.6,1.4,0,2.6,0.7,3.8c0.3,0.5,0.6,1.1,0.2,1.6
	c-0.3,0.4-0.9,0.1-1.3,0c-2-0.5-3.2,0-4,1.6c-1.3,2.7,0.3,5.3,3.3,5.4c0.4,0,0.9-0.2,1.2,0.3c0.3,0.5-0.1,0.8-0.3,1.1
	c-1.2,1.9-0.6,3.5,1.6,4.8c1.5,0.9,2.8,0.4,3.8-1.3c0.2-0.3,0.2-0.9,0.8-0.9c0.5,0.1,0.5,0.6,0.7,1c1.1,2.2,2.1,2.9,4.5,2.6
	c1.4-0.2,2.5-0.8,3.1-2.2c0.5-1.2,0.1-2.2-0.6-3.1c-0.3-0.4-1-0.8-0.7-1.4C86.6,100.9,87.3,101.2,87.8,101.2z M88.6,97.9
	c0.2-0.1,0.3,0,0.5,0.4c0,0-0.1,0.1-0.3,0.1c-0.2,0.1-0.3,0-0.4-0.2C88.4,98.1,88.5,97.9,88.6,97.9z M70.5,97.3
	c-0.1,0.2-0.3,0.2-0.4,0.1c-0.1-0.1-0.2-0.3-0.1-0.4c0.1-0.1,0.2-0.1,0.3-0.1C70.5,97,70.6,97.1,70.5,97.3z M84,90.2
	c0.2-0.1,0.3,0,0.5,0.4c0,0-0.1,0.1-0.3,0.1c-0.2,0.1-0.3,0-0.4-0.2C83.8,90.4,83.9,90.3,84,90.2z M75.9,89.3
	c0.2-0.1,0.3,0.1,0.3,0.3c0,0.2,0,0.4-0.3,0.3c-0.1,0-0.2-0.2-0.4-0.3C75.7,89.5,75.8,89.3,75.9,89.3z M75.2,105.1
	c-0.2,0.1-0.3,0-0.4-0.2c0.1-0.1,0.1-0.2,0.2-0.2c0.2-0.1,0.3,0,0.4,0.2C75.4,104.9,75.3,105,75.2,105.1z M84.5,105.5
	c0,0.1-0.2,0.3-0.3,0.3c-0.1,0-0.3-0.2-0.3-0.3c0-0.1,0.1-0.3,0.1-0.3C84.5,105.2,84.6,105.3,84.5,105.5z M79.6,103.9
	c-3.5-0.1-5.7-2.4-5.7-5.9c0-3.5,2.6-6.1,6-6.2c3.1,0,5.5,2.6,5.5,6C85.4,101.3,82.9,104,79.6,103.9z"/>
<path class="st3" d="M99.5,74.9c-1.7,0.1-3.4,0.2-5.1,0.3c1.7,0.5,3,1.4,3.2,3.4c0,0.3,0.1,0.6,0.5,0.6c0.4,0,0.5-0.4,0.6-0.6
	C99.3,77.5,99.7,76.3,99.5,74.9z"/>
<path class="st3" d="M20.3,104.4c-0.6,0-1.3,0-1.6-0.6c-0.3-0.6,0.1-1.2,0.5-1.7c0.8-1,1.6-2,2.7-3.3c-1,0.5-1.6,0.9-2.3,1.2
	c-0.3,0.1-0.5,0.5-0.9,0.3c-0.1,0,0.2-0.6,0.4-0.9c0.3-0.6,0.7-1.2,1.1-1.9c-0.9,0.6-1.5,1.3-2.2,2c-0.1,0.1-0.3,0.2-0.5,0.3
	c-0.1-0.2-0.1-0.4-0.2-0.6c-0.1-0.5,0.1-1.2-0.4-1.7c-0.1,0.9-0.2,1.8-0.4,2.6c-0.2,1-0.2,2.2-1.3,2.7c-1.1,0.5-1.8-0.5-2.6-1.1
	c0,0-0.1,0-0.2,0c-0.1,0.3,0.4,0.7,0,1c-0.1,0.1-0.5-0.2-0.8-0.3c-0.2-0.1-0.4-0.2-0.6-0.2c0.4,0.9,0.2,1.8,0.3,2.8
	c0.7,0.3,1.4,0.6,1.4,1.3c0,0.7-0.5,1.1-1.2,1.4v0l0,0c-0.5,1,0.2,1.9,0,2.9c0,0.2,0.2,0.2,0.4,0.2c0.9-0.3,0.4,0.2,0.3,0.5
	c-0.1,0.4-0.3,0.7-0.4,1.1c1.1-0.3,1.4-1.3,2.2-1.9c0.4-0.3,0.7-0.8,1.2-0.6c0.6,0.2,0.6,0.8,0.7,1.3c0.2,1.1,0,2.2,0.5,3.4
	c0.2-1.4-0.1-2.7,0.5-4.3c0.5,1.6,1,2.9,1.4,4.2c0.2,0.1,0.4,0,0.3-0.3c-0.3-1.5-0.6-2.9-0.9-4.4c0.1,0,0.2-0.1,0.3-0.1
	c1,1.8,2,3.7,3,5.5c-0.4-2-1-3.9-1.6-5.8c-0.3-0.8-0.2-1.3,0.8-1.2c1.1,0.1,2.2,0,3.5,0c-0.9-0.7-1.9-0.5-2.8-1.4c1.3,0,2.3,0,3.5,0
	c-1.1-0.8-2.3-0.6-3.2-1.4c1.3-0.3,2.6-0.6,3.8-0.9C23.5,104.2,21.9,104.3,20.3,104.4z M16.4,108.6c-1.2,0-1.9-0.9-1.9-2.3
	c0-1.3,0.8-2.2,1.9-2.2c1.1,0,1.9,0.9,1.9,2.3C18.3,107.7,17.5,108.6,16.4,108.6z"/>
<path class="st3" d="M134.1,125c-0.5,1.3-0.6,2.4-0.6,3.5c0,0.5,0.2,1.2-0.4,1.4c-0.7,0.2-0.7-0.6-0.9-1.1c-0.5-1-0.9-2-1.4-2.9
	c-0.1-0.3-0.2-0.7-0.6-0.6c-0.4,0.1-0.2,0.6-0.1,0.9c0.3,1,0.6,2,0.9,3c0.1,0.4,0.3,0.9-0.1,1.2c-0.4,0.2-0.7-0.3-0.9-0.6
	c-0.7-0.7-1.4-1.4-2.1-2.1c-0.3-0.3-0.7-0.7-1-0.5c-0.4,0.3,0.1,0.7,0.4,0.9c1,1.4,2.1,2.6,2.8,4.2c2.1,0.1,4.2,0,6.3-0.5
	C133.8,130.2,134.9,127.4,134.1,125z"/>
<path class="st3" d="M216.6,82.4c-1,0.1-1.9,0.6-2.1,1.6c-0.2,1.1-0.6,2.7,0.8,3.3c1.1,0.5,1.3,1.2,1.4,2.2c0.8,0.4,1.4,0.2,2.1-0.3
	c0.5-0.4-0.1-1.3,0.9-1.5c1.2-0.3,1.3-1.3,1.2-2.3C220.5,83,219.2,82.1,216.6,82.4z"/>
<path class="st3" d="M225.7,83.7c-1.2-0.4-2.5-0.5-3.5,0.6c-0.9,1-1.1,3.1-0.5,4.1c1.9,0.5,3.7-0.3,5.4-0.8c0.3-0.1,0.4-0.3,0.5-0.5
	C227.7,85.2,227.2,84.2,225.7,83.7z"/>
<path class="st3" d="M145.5,112.3c-4.8-0.3-9.7-0.1-14.7-0.7c0.8,0.7,1.6,0.9,2.4,1c2.1,0.3,4.3,0.5,6.5,0.5c3.4,0,6.8,0,10.1,0.5
	c1.9,0.3,3.5,1.1,5.3,1.6c0.1-0.2,0.2-0.5,0.2-0.7c-0.4-0.2-0.8-0.4-1.2-0.6C151.4,112.9,148.5,112.5,145.5,112.3z"/>
<path class="st3" d="M102.4,120.3c-0.6,0.1-0.1,1.2-0.3,1.8c0,0.1,0,0.2,0,0.3c0.7,0.4,1.4,0.9,2.1,1.3c0.1-0.6-0.2-1.2-0.5-1.7
	C103.5,121.3,103.2,120.2,102.4,120.3z"/>
<path class="st3" d="M99.9,119.6c-0.4-0.2-0.4,1-0.8,1.4c-0.2,0.2-0.4,0.5-0.3,0.8c0.5-0.1,1,0.3,1.5,0c0-0.1,0-0.3,0-0.4
	C100.3,120.8,100.4,119.8,99.9,119.6z"/>
<path class="st3" d="M79.7,95.5c-1.3,0-2.4,1.2-2.4,2.7c0,1.4,1.1,2.5,2.4,2.5c1.4,0,2.5-1.2,2.5-2.6C82.3,96.6,81.1,95.5,79.7,95.5
	z"/>
<path class="st3" d="M79.9,91.9c-3.5,0-6,2.6-6,6.2c0,3.5,2.3,5.8,5.7,5.9c3.2,0.1,5.8-2.6,5.8-6.1C85.4,94.4,83.1,91.8,79.9,91.9z
	 M79.5,102.8c-3,0-4.9-1.9-4.9-4.9c0-2.9,2.1-5,4.9-5c2.9,0,4.9,2,4.9,4.9C84.5,100.8,82.6,102.8,79.5,102.8z"/>
<path class="st3" d="M32.4,140.1c0.4-1,1.2-1.7,1.9-2.9c-1.5,0.9-2.8,1.7-4.2,2.1C30.8,139.8,31.5,140.1,32.4,140.1z"/>
<path class="st3" d="M27.7,138.3c0.5,0.4,1.2,0.7,1.8,0.9c-1-1-1.1-2.6-1.8-3.7C27.7,136.4,27.7,137.3,27.7,138.3z"/>
<path class="st11" d="M28.3,64.8c0-0.2,0.3-0.4,0.5-0.6c0.2-0.2,0.5-0.6,0.5-0.7c-0.2-0.3-0.6-0.1-0.9-0.1c-3.1,0.5-5.9,1.6-8.7,3
	c-1.1,1.2-2.1,2.5-2.9,4c2.6-1.1,5.1-2.5,7.9-3C26.4,67.2,27.9,66.8,28.3,64.8z"/>
<path class="st11" d="M132.3,83.7c1.6-0.1,2.7,0.1,2.2,2c0,0.1,0,0.3,0,0.4c0.2,0.8,0.7,1.4,1.5,1.4c0.8,0.1,0.6-0.8,0.8-1.2
	c0.8-1.7,1.7-3.3,3.6-4c0.6-0.2,0.9,0,1.3,0.2c0.5,0.3,0,0.7-0.1,1c-0.6,1.9-0.3,3.1,1.1,3.9c0.4,0.2,0.7,0.4,0.9-0.2
	c0.7-2.1,2.6-3,4.4-3.8c2.1-0.9,4.3-1.3,6.5-2.1c-0.3-0.9-0.7-1.7-1-2.6c-0.2,0.1-0.3,0.2-0.5,0.2c-3.4,0.6-6.8,1.3-10.2,1.8
	c-3.8,0.6-7.7,0.9-11.5,0.5c-3.7-0.5-6.5,0.6-8.9,3.5c0.1-0.4,0.1-0.6,0.2-0.8c1-2.3,4.1-4.2,6.8-3.9c2.9,0.3,5.7,0.2,8.5,0
	c4.7-0.3,9.3-1.1,13.9-1.9c-0.9-0.6-1.9-0.5-2.8-0.6c-2.1-0.2-3.9-1.3-6-1.4c-3.1-0.2-6-0.6-8.3-3c-0.4-0.4-0.6-0.3-0.8,0.2
	c-0.3,0.6-0.3,1.2,0,1.9c0.5,1,0.9,1.9,1.9,2.5c0.6,0.3,0.7,0.7-0.1,0.8c-0.3,0.1-0.7,0.2-1,0.3c-2,0.3-4-0.1-6,0.2
	c-2.1-0.1-4.1,0.3-5.8,1.6c-2,1.5-2.7,4.8-1.3,6.8c0.4,0.6,0.7,0.9,1.1,0c0.5-1.2,1.3-2.2,2.5-2.8C127.6,83.6,129.9,83.8,132.3,83.7
	z"/>
<path class="st11" d="M20.5,88.4c0.3,0.3,0.6,0.4,0.9,0.1c1.6-1.7,2-4.1,0.1-5.6c-1.2-0.9-2.5-1.3-4-1.2c-0.3,0-0.8,0.2-0.9-0.2
	c-0.1-0.5,0.5-0.5,0.8-0.6c1.7-0.4,3.2-1,4.2-2.5c0.9-1.4,1.6-2.8,2.2-4.4c0.3-0.8,0-1.2-0.7-1.4c-2.5-1-5.1-1.7-7.6-0.1
	c-2,4.6-3.4,9.4-3.9,14.4C14.8,85.9,17.9,86,20.5,88.4z"/>
<path class="st11" d="M31.6,64.2c-0.8-0.7-1.6-0.4-2.2,0.2c-0.8,0.9-1.3,2-0.8,3.2c0.5,1,1.5,0.7,2.3,0.5c0.5-0.1,0.9-0.3,1.1,0.2
	c0.2,0.5-0.4,0.5-0.8,0.7c-1,0.4-1.6,1.1-1.2,2.1c0.4,1,1.4,1.5,2.5,1.2c1.5-0.3,2.3-1.4,3-2.6c0.3-0.5,0.1-0.7-0.5-1.1
	c-2.1-1.2-2.2-5.4,0.1-6.2c2.2-0.9,0.4-1.3,0-1.9c-0.5-0.6-1.3-0.7-2-0.7c-0.8-0.1-1.4,0.2-2.1,0.5c-0.8,0.4-1.3,1-1.1,1.9
	c0.2,1.1,1,0.2,1.4,0.2c0.6,0.1,1.2,0.1,1.6,0.7c0.2,0.3,0.2,0.7-0.2,0.9C32.5,64.5,32,64.5,31.6,64.2z"/>
<path class="st11" d="M32.9,105.9c-0.4,0.8-0.2,1.7,0.4,2.1c0.4,0.3,0.7-0.6,1-1.1c2.9-5.2,3.4-10.7,1.2-16.1c-2-5.1-5.9-8-11.4-8.9
	c-0.3,0.1-0.8-0.3-1,0.4c-0.1,0.7,0.5,0.7,0.8,0.8c2.7,0.7,5.2,2,7.1,4.1c3.8,4.2,4.9,9,3.6,14.5C34.2,103.2,33.6,104.6,32.9,105.9z
	"/>
<path class="st11" d="M141.5,128c-1.1,0.5-2,1.4-3.1,2c-0.4,0.3-0.9,1-1.6,0.4c-0.6-0.5-0.4-1.1-0.3-1.8c0.9-3.8-0.2-6-3.5-7
	c-2.7-0.8-7.6,1.5-8.6,4.1c-0.6,1.5-0.4,2.9,0.8,4c0.9,0.8,1.8,1.5,2.8,2.3c0.7,0,1.4,0,2.1,0c-0.7-1.6-1.8-2.9-2.8-4.2
	c-0.2-0.3-0.8-0.6-0.4-0.9c0.3-0.3,0.7,0.2,1,0.5c0.7,0.7,1.4,1.4,2.1,2.1c0.3,0.3,0.5,0.8,0.9,0.6c0.4-0.2,0.2-0.8,0.1-1.2
	c-0.3-1-0.6-2-0.9-3c-0.1-0.3-0.3-0.8,0.1-0.9c0.3-0.1,0.4,0.4,0.6,0.6c0.5,1,0.9,2,1.4,2.9c0.2,0.4,0.2,1.2,0.9,1.1
	c0.6-0.1,0.4-0.9,0.4-1.4c0.1-1.1,0.1-2.2,0.6-3.5c0.8,2.4-0.3,5.3,2.3,6.8c0,0,0,0,0,0c0,0,0,0,0,0c1.4-0.2,2.8-0.4,4.1-1
	c0.2-0.6,0.7-0.8,1.3-0.6c1-0.5,1.9-1,2.9-1.6C143.8,127.6,142.7,127.4,141.5,128z"/>
<path class="st11" d="M151.4,107.1c-0.2-0.4,0-1-0.6-1c-0.6,0-1,0.5-1.3,1c-0.3,0.6-0.5,1.2-0.1,1.8c0.2,0.3,0.3,0.8-0.4,0.7
	c-1.9-0.2-3.7-0.6-4.8-2.5c-0.7-1.3-1.5-1.2-2.3,0c-0.4,0.7-0.5,1.5-0.3,2.1c0.4,1.1-0.4,1-0.9,0.8c-0.8-0.2-1.6-0.1-2.4,0
	c-3.2,0.2-6.3,0.9-9.5-0.3c-0.7-0.3-1.8-1.1-2-0.7c-0.3,0.8,0.6,1.6,1.2,2.3c0.2,0.3,0.5,0.4,0.8,0.7c2.4,1.9,5.3,2.2,8.3,2.3
	c1.7,0.1,3.5,0,5.2,0c0.3,0,0.6,0,0.7,0.3c0,0.3-0.4,0.2-0.6,0.3c-0.8,0.4-1.5,0.8-2,1.6c-0.3,0.4-0.6,1-0.2,1.4
	c0.3,0.4,0.8,0,1.1-0.1c0.4-0.1,0.8-0.3,1.2-0.5c2-0.8,4.1-1.5,6.5-1.1c-1.3,0.6-2.7,1-3.1,2.5c-0.1,0.2-0.3,0.5,0,0.7
	c0.2,0.2,0.5,0.1,0.7,0c1.4-0.6,2.8-1,4.3-1.3c1.1-0.2,2.2,0.2,3.2-0.3c0.3-0.8,0.7-1.6,1-2.4c-1.8-0.5-3.5-1.3-5.3-1.6
	c-3.4-0.5-6.7-0.5-10.1-0.5c-2.2,0-4.3-0.2-6.5-0.5c-0.7-0.1-1.5-0.3-2.4-1c5.1,0.6,9.9,0.4,14.7,0.7c3,0.2,5.9,0.5,8.6,1.7
	c0.4,0.2,0.8,0.4,1.2,0.6c0,0,0,0,0,0c0.3-1,0.5-2.1,0.8-3.1C154,110.5,152.4,109.2,151.4,107.1z"/>
<path class="st11" d="M21.2,110.5c-0.3-0.3-0.9-0.6-0.7-1c0.4-0.4,0.9,0.1,1.2,0.4c1.2,0.8,2.4,1.5,4,1.3c2.2-0.3,4.1-1.1,5.9-2.3
	c0.3-0.2,0.5-0.3,0.4-0.8c-0.7-3.7-4.7-6.5-8.3-5.7c-0.5,0.1-0.9,0.3-1.2-0.2c-0.4-0.6,0.1-1,0.4-1.3c1.8-1.6,1.9-3.7,1.7-5.9
	c-0.1-1.1-0.4-2.5-2-2.3c-1.6,0.2-3.2,0.4-4.6,1.3C16,95,14.3,96.4,14.7,99c0.1,0.5,0.2,0.9,0.2,1.4c0,0.3,0.1,0.8-0.3,0.9
	c-0.5,0.2-0.5-0.4-0.7-0.6c-0.7-1-1-2.4-2.4-2.9c-0.5-0.2-0.9-0.1-1.4-0.1c-1.8-0.1-3.6,0.1-5.4-0.1c-1.2,0.4-0.2,1.4-0.5,2
	c0.6,0,1.1,0,1.7,0.1c0.9,0.2,2,0.4,2.4,1.2c0.4,0.9-0.6,1.6-1.3,2.1c-0.5,0.3-0.9,0.8-1,1.3c-0.3,0.8-0.2,1.5,0.9,1.4c1,0,2,0,3,0
	c1,0,1.4-0.3,0.9-1.4c-0.5-0.2-1-0.3-1.5-0.5c-0.1,0.3,0.4,0.7-0.2,0.8c-0.4,0-0.9,0.2-1.2-0.2c-0.2-0.3,0.2-0.5,0.3-0.8
	c0.2-0.5,0.5-0.5,0.8-0.1c0.2-0.8,0.8-0.1,1.1-0.3c-0.2-0.7-0.7-1.4-0.1-2c0.1-0.1,0.9,0.3,1.1,0.8c0.2,0.1,0.4,0.2,0.6,0.2
	c0.3,0.1,0.7,0.4,0.8,0.3c0.3-0.3-0.1-0.6,0-1c0.1,0,0.1,0,0.2,0c0.8,0.6,1.5,1.5,2.6,1.1c1.1-0.5,1.1-1.7,1.3-2.7
	c0.1-0.8,0.2-1.6,0.4-2.6c0.5,0.6,0.3,1.2,0.4,1.7c0,0.2,0.1,0.4,0.2,0.6c0.2-0.1,0.4-0.2,0.5-0.3c0.7-0.7,1.4-1.4,2.2-2
	c-0.4,0.6-0.7,1.2-1.1,1.9c-0.2,0.3-0.4,0.8-0.4,0.9c0.3,0.3,0.6-0.1,0.9-0.3c0.7-0.3,1.3-0.7,2.3-1.2c-1.1,1.3-1.9,2.3-2.7,3.3
	c-0.4,0.5-0.8,1-0.5,1.7c0.3,0.6,1,0.6,1.6,0.6c1.6-0.1,3.2-0.1,4.8-0.1c-1.2,0.3-2.5,0.6-3.8,0.9c0.9,0.8,2.1,0.6,3.2,1.4
	c-1.2,0-2.2,0-3.4,0c0,0,0,0,0,0.1c0.8,0.7,1.8,0.7,2.7,1.3c-1.3,0-2.4,0.1-3.5,0c-1-0.1-1.1,0.4-0.8,1.2c0.6,1.9,1.2,3.8,1.6,5.8
	c-1-1.8-2-3.7-3-5.5c-0.1,0-0.2,0.1-0.3,0.1c0.3,1.5,0.6,2.9,0.9,4.4c0.1,0.2,0,0.3-0.1,0.3c0.2,0.8,0.5,1.6,0.6,2.4
	c-0.1-0.8-0.4-1.6-0.6-2.4c-0.1,0-0.1,0-0.2,0c-0.4-1.3-0.9-2.6-1.4-4.1c0,0,0,0-0.1,0c-0.5,1.5-0.3,2.8-0.5,4.1
	c-0.5-1.1-0.3-2.3-0.5-3.4c-0.1-0.5,0-1.1-0.7-1.3c-0.5-0.1-0.8,0.3-1.2,0.6c-0.8,0.6-1.1,1.6-2.2,1.9c0,0,0,0,0,0
	c0.1,0.7,0.2,1.4,0.3,2.1c0.4-0.4,0.7-0.7,1.1-1.1c0.2-0.2,0.4-0.6,0.9-0.4c0.4,0.2,0.3,0.6,0.3,0.9c0,0.3,0,0.6,0,0.9
	c0,3.7,2.1,6.6,5.6,7.6c0.5,0.1,0.9,0.1,1.2-0.3C23.7,118.5,24.7,114,21.2,110.5z"/>
<path class="st11" d="M79.6,92.8c-2.8,0-4.9,2.1-4.9,5c0,3,1.9,4.9,4.9,4.9c3,0,4.9-1.9,4.9-5C84.5,94.8,82.5,92.9,79.6,92.8z
	 M79.7,100.7c-1.3,0-2.4-1.1-2.4-2.5c0-1.5,1-2.7,2.4-2.7c1.4,0,2.5,1.2,2.5,2.6C82.2,99.6,81.2,100.7,79.7,100.7z"/>
<path class="st11" d="M152,91.4c-0.3,0.2-0.9,0.1-0.9,0.7c0,0.5,0.5,0.8,0.9,1c1.9,1.1,3.3,0.2,4.8-0.8c-0.2-1.2-0.3-2.4-0.5-3.6
	c-0.4,0.6-0.8,1.3-1.2,1.9c0.3-1,0.4-2,1.2-2.7c0,0,0,0,0,0c-0.2-0.9-0.5-1.8-0.7-2.7c-0.4,0.4-0.4,1-0.6,1.5
	C154.6,88.6,153.8,90.4,152,91.4z"/>
<path class="st11" d="M131.8,70.1c2.1-0.1,3.6-1.5,3.7-3.6c-0.3-0.1-0.5,0.3-0.6,0.3c-0.9-0.2-2-0.9-2.4,0.7c0,0-0.1,0-0.1-0.1
	c-0.2-1-1.3-0.5-1.7-1c-0.6-0.8-1.1,0.1-1.6,0c-0.3,0,0.1-1.3-0.9-1.3c-1.1,0.2-2.3,0.3-3.4,0.5C125.5,68,129.2,70.2,131.8,70.1z"/>
<path class="st11" d="M139.1,72c3.7,3.5,8.2,4.8,13.1,4.9c-0.4-0.6-0.7-1.3-1.3-1.8c-0.3-0.1-0.6-0.2-0.9-0.2
	c-3.5-0.2-6.4-1.6-8.9-4.1c-1.2-1.2-2.1-2.6-3.6-3.6c-1.3,0-1.3,0.8-0.8,1.7C137.4,70.1,138.2,71.1,139.1,72z"/>
<path class="st11" d="M34.1,133c-1.3,0.2-1.5,1.3-2.2,2c-0.3,0.3-0.6,0.6-1.1,0.5c-0.5-0.1-0.5-0.5-0.6-0.9
	c-0.2-0.6-0.1-1.3-0.5-1.8c-0.8-1.2-2.6-1.8-4.5-1.3c-1.3,0.3-2.1,1.6-2.1,3.6c1.4,1.3,3.1,2.2,4.8,3.1c0-0.9,0-1.9,0-2.8
	c0.7,1.1,0.8,2.7,1.8,3.7c0,0,0,0,0,0c0,0,0,0,0,0c0.1,0.3,0.3,0.2,0.5,0.2c1.5-0.4,2.7-1.2,4.2-2.1c-0.6,1.1-1.5,1.8-1.9,2.9
	c0.9,0.5,1.9,0.5,2.8,0.8c0.1-1,1-1.3,1.6-1.7c1.7-1,2-1.7,1.1-4C37.5,133.9,36,132.7,34.1,133z"/>
<path class="st11" d="M36.7,62.9c-1.2,0-2.4,1.2-2.4,2.5c0,1.7,1.1,3,2.7,3.1c1.4,0,2.5-1.2,2.5-2.7C39.5,64,38.3,62.8,36.7,62.9z
	 M37,65.8c-0.2,0-0.4-0.1-0.4-0.4c0-0.2,0.2-0.4,0.4-0.4c0.2,0.1,0.4,0.2,0.4,0.4C37.4,65.7,37.2,65.8,37,65.8z"/>
<path class="st11" d="M16.4,108.6c1.1,0,1.9-0.9,1.9-2.2c0-1.4-0.8-2.3-1.9-2.3c-1.1,0-1.9,1-1.9,2.2
	C14.5,107.7,15.2,108.6,16.4,108.6z M16.1,105.9c0.3,0,0.5,0.2,0.5,0.4c0,0.3-0.3,0.4-0.5,0.4c-0.2,0-0.4-0.2-0.3-0.5
	C15.8,106,16,105.9,16.1,105.9z"/>
<path class="st3" d="M16.1,105.9c-0.1,0-0.3,0.1-0.4,0.3c0,0.3,0.1,0.4,0.3,0.5c0.3,0,0.6,0,0.5-0.4C16.7,106.1,16.5,106,16.1,105.9
	z"/>
<path class="st3" d="M70.3,97c-0.1,0-0.3,0-0.3,0.1c-0.1,0.2,0,0.3,0.1,0.4c0.2,0.1,0.3,0.1,0.4-0.1C70.6,97.1,70.5,97,70.3,97z"/>
<path class="st3" d="M37,65c-0.2,0-0.4,0.2-0.4,0.4c0,0.3,0.2,0.4,0.4,0.4c0.2,0,0.4-0.1,0.4-0.4C37.3,65.2,37.2,65.1,37,65z"/>
<path class="st3" d="M84,105.1c0,0-0.1,0.2-0.1,0.3c0,0.1,0.2,0.3,0.3,0.3c0.1,0,0.3-0.1,0.3-0.3C84.6,105.3,84.5,105.2,84,105.1z"
	/>
<path class="st3" d="M76.3,89.6c0-0.2-0.2-0.3-0.3-0.3c-0.1,0-0.2,0.2-0.3,0.3c0.1,0.1,0.2,0.2,0.4,0.3
	C76.2,89.9,76.3,89.7,76.3,89.6z"/>
<path class="st3" d="M75,104.6c-0.1,0-0.1,0.2-0.2,0.2c0.1,0.2,0.3,0.3,0.4,0.2c0.1-0.1,0.2-0.2,0.2-0.3
	C75.4,104.6,75.2,104.6,75,104.6z"/>
<path class="st3" d="M88.6,97.9c-0.1,0-0.2,0.2-0.2,0.3c0,0.2,0.2,0.3,0.4,0.2c0.1,0,0.2-0.1,0.3-0.1C88.9,97.9,88.7,97.8,88.6,97.9
	z"/>
<path class="st3" d="M84.2,90.7c0.1,0,0.2-0.1,0.3-0.1c-0.1-0.4-0.3-0.4-0.5-0.4c-0.1,0-0.2,0.2-0.2,0.3
	C83.9,90.7,84,90.7,84.2,90.7z"/>
<path class="st3" d="M101.1,74.6c0,0.4,0.1,1.1,0.1,1.1c0.6,0,0.5-0.6,0.7-0.9c0.1-0.1,0.1-0.3,0.2-0.5
	C101.8,74.3,101.5,74.5,101.1,74.6z"/>
<path class="st3" d="M159,99c4.8,0.6,8.3-1.8,11.4-5c-0.4,0-0.8,0-1.2,0C166.5,97,162.9,98.2,159,99z"/>
<path class="st3" d="M156.4,88.7c0-0.3,0-0.5,0-0.8c-0.8,0.7-0.9,1.7-1.2,2.7C155.6,90,156,89.3,156.4,88.7z"/>
<path class="st3" d="M195.7,100.9c-0.1,0.3-0.1,0.7,0.2,0.9c0.2,0,0.3,0,0.5,0C196.3,101.4,196,101.1,195.7,100.9z"/>
</svg>
